<svg width="28" height="28" viewBox="0 0 28 28" fill="none" xmlns="http://www.w3.org/2000/svg">
    <rect width="28" height="28" rx="14" fill="#BFBFC4"/>
    <g clip-path="url(#clip0_3548_12821)">
        <path d="M20.4571 7.53908C20.9958 8.0777 20.6827 9.247 19.7758 10.1539L17.8838 12.046C17.626 12.3038 17.5799 12.4419 17.5937 12.7687L17.8515 19.269C17.8561 19.4761 17.7917 19.651 17.6582 19.7845L17.0689 20.3738C16.9492 20.4935 16.7743 20.4567 16.7052 20.2679L14.7994 15.1396L12.1753 17.2296L12.8429 19.582C12.8935 19.7615 12.8429 19.9134 12.6955 20.0608L12.4884 20.2679C12.3641 20.3922 12.1984 20.3922 12.0741 20.2679L7.7283 15.9222C7.604 15.7979 7.604 15.6321 7.7283 15.5078L7.93546 15.3007C8.08277 15.1534 8.23469 15.1027 8.41423 15.1534L10.762 15.8163L12.8567 13.1969L7.7237 11.2864C7.53955 11.2219 7.49812 11.0424 7.61781 10.9227L8.20707 10.3334C8.34057 10.1999 8.52011 10.1401 8.72727 10.1447L15.2275 10.4025C15.5497 10.4117 15.6925 10.3703 15.9503 10.1125L17.8423 8.22041C18.7492 7.31351 19.9139 6.99586 20.4571 7.53908Z" fill="white"/>
    </g>
    <defs>
        <clipPath id="clip0_3548_12821">
            <rect width="16" height="16" fill="white" transform="translate(6 6)"/>
        </clipPath>
    </defs>
</svg>
