<svg width="40" height="40" viewBox="0 0 40 40" fill="none" xmlns="http://www.w3.org/2000/svg">
    <rect width="40" height="40" rx="8" fill="white"/>
    <path d="M20.3421 18.2264L7.83691 13.0841L32.8473 9.16895L20.3421 18.2264Z" fill="#669AFF"/>
    <path d="M20.3423 18.2264L21.92 33.5365L32.8475 9.16895L20.3423 18.2264Z" fill="#3A64FA"/>
    <path opacity="0.05" d="M20.4198 18.2184L20.415 18.172L20.3718 18.1542L8.12498 13.1181L32.7171 9.26841L21.9677 33.2389L20.4198 18.2184Z" stroke="#292838" stroke-width="0.15625"/>
    <path d="M3.24274 31.875C3.24274 32.6301 2.63925 33.2422 1.89481 33.2422C1.15036 33.2422 0.546875 32.6301 0.546875 31.875C0.546875 31.1199 1.15036 30.5078 1.89481 30.5078C2.63925 30.5078 3.24274 31.1199 3.24274 31.875Z" fill="#6486FF"/>
    <path d="M7.85211 28.6719C7.85211 29.427 7.24862 30.0391 6.50418 30.0391C5.75974 30.0391 5.15625 29.427 5.15625 28.6719C5.15625 27.9168 5.75974 27.3047 6.50418 27.3047C7.24862 27.3047 7.85211 27.9168 7.85211 28.6719Z" fill="#6486FF"/>
    <path d="M12.4615 25.4688C12.4615 26.2238 11.858 26.8359 11.1136 26.8359C10.3691 26.8359 9.76562 26.2238 9.76562 25.4688C9.76562 24.7137 10.3691 24.1016 11.1136 24.1016C11.858 24.1016 12.4615 24.7137 12.4615 25.4688Z" fill="#6486FF"/>
    <path d="M17.0709 22.2656C17.0709 23.0207 16.4674 23.6328 15.7229 23.6328C14.9785 23.6328 14.375 23.0207 14.375 22.2656C14.375 21.5105 14.9785 20.8984 15.7229 20.8984C16.4674 20.8984 17.0709 21.5105 17.0709 22.2656Z" fill="#6486FF"/>
</svg>
