<svg width="40" height="41" viewBox="0 0 40 41" fill="none" xmlns="http://www.w3.org/2000/svg">
    <path d="M20.3422 18.621L7.83704 13.4787L32.8474 9.56348L20.3422 18.621Z" fill="#669AFF" />
    <path d="M20.3422 18.621L21.92 33.9311L32.8474 9.56348L20.3422 18.621Z" fill="#3A64FA" />
    <path opacity="0.05" d="M20.4199 18.613L20.4152 18.5665L20.3719 18.5487L8.1251 13.5126L32.7172 9.66294L21.9679 33.6334L20.4199 18.613Z" stroke="#292838" strokeWidth="0.15625" />
    <path d="M3.24274 32.2695C3.24274 33.0246 2.63925 33.6367 1.89481 33.6367C1.15036 33.6367 0.546875 33.0246 0.546875 32.2695C0.546875 31.5145 1.15036 30.9023 1.89481 30.9023C2.63925 30.9023 3.24274 31.5145 3.24274 32.2695Z" fill="#6486FF" />
    <path d="M7.85211 29.0664C7.85211 29.8215 7.24862 30.4336 6.50418 30.4336C5.75974 30.4336 5.15625 29.8215 5.15625 29.0664C5.15625 28.3113 5.75974 27.6992 6.50418 27.6992C7.24862 27.6992 7.85211 28.3113 7.85211 29.0664Z" fill="#6486FF" />
    <path d="M12.4615 25.8633C12.4615 26.6184 11.858 27.2305 11.1136 27.2305C10.3691 27.2305 9.76562 26.6184 9.76562 25.8633C9.76562 25.1082 10.3691 24.4961 11.1136 24.4961C11.858 24.4961 12.4615 25.1082 12.4615 25.8633Z" fill="#6486FF" />
    <path d="M17.0709 22.6602C17.0709 23.4152 16.4674 24.0273 15.7229 24.0273C14.9785 24.0273 14.375 23.4152 14.375 22.6602C14.375 21.9051 14.9785 21.293 15.7229 21.293C16.4674 21.293 17.0709 21.9051 17.0709 22.6602Z" fill="#6486FF" />
</svg>