<svg width="14" height="14" viewBox="0 0 14 14" fill="none" xmlns="http://www.w3.org/2000/svg">
    <path d="M0.749512 10.0698C0.749512 10.6094 1.16455 11.0244 1.6543 11.0244C2.15234 11.0244 2.55078 10.5928 2.55078 10.0947V6.99854L2.40967 3.56201L3.75439 5.07275L11.6733 12.9917C11.8643 13.1826 12.0884 13.2739 12.3208 13.2739C12.8188 13.2739 13.2588 12.8257 13.2588 12.3442C13.2588 12.1118 13.1592 11.8794 12.9683 11.6885L5.05762 3.76953L3.54688 2.44141L7.12451 2.55762H10.0796C10.5776 2.55762 11.001 2.15918 11.001 1.67773C11.001 1.18799 10.6108 0.772949 10.0547 0.772949H1.7207C1.13135 0.772949 0.749512 1.16309 0.749512 1.73584V10.0698Z" fill="white"/>
</svg>
