<svg width="24" height="24" viewBox="0 0 24 24" fill="none" xmlns="http://www.w3.org/2000/svg">
<g clip-path="url(#clip0_3490_9614)">
<path d="M6.28906 19.7681C4.49609 19.7681 3.56641 18.8467 3.56641 17.0703V6.96826C3.56641 5.19189 4.49609 4.27051 6.28906 4.27051H17.7109C19.5039 4.27051 20.4336 5.19189 20.4336 6.96826V17.0703C20.4336 18.8384 19.5039 19.7681 17.7109 19.7681H6.28906ZM6.26416 18.1411H17.7192C18.4165 18.1411 18.8066 17.7759 18.8066 17.0537V9.38379C18.8066 8.65332 18.4165 8.29639 17.7192 8.29639H6.26416C5.5752 8.29639 5.19336 8.65332 5.19336 9.38379V17.0537C5.19336 17.7759 5.5752 18.1411 6.26416 18.1411ZM10.3979 11.1768C10.1074 11.1768 10.0078 11.0854 10.0078 10.7866V10.3052C10.0078 10.0063 10.1074 9.91504 10.3979 9.91504H10.8877C11.1865 9.91504 11.2861 10.0063 11.2861 10.3052V10.7866C11.2861 11.0854 11.1865 11.1768 10.8877 11.1768H10.3979ZM13.1206 11.1768C12.8218 11.1768 12.7222 11.0854 12.7222 10.7866V10.3052C12.7222 10.0063 12.8218 9.91504 13.1206 9.91504H13.6021C13.9009 9.91504 14.0005 10.0063 14.0005 10.3052V10.7866C14.0005 11.0854 13.9009 11.1768 13.6021 11.1768H13.1206ZM15.835 11.1768C15.5361 11.1768 15.4365 11.0854 15.4365 10.7866V10.3052C15.4365 10.0063 15.5361 9.91504 15.835 9.91504H16.3164C16.6152 9.91504 16.7148 10.0063 16.7148 10.3052V10.7866C16.7148 11.0854 16.6152 11.1768 16.3164 11.1768H15.835ZM7.68359 13.8496C7.39307 13.8496 7.29346 13.7583 7.29346 13.4595V12.978C7.29346 12.6792 7.39307 12.5879 7.68359 12.5879H8.17334C8.47217 12.5879 8.57178 12.6792 8.57178 12.978V13.4595C8.57178 13.7583 8.47217 13.8496 8.17334 13.8496H7.68359ZM10.3979 13.8496C10.1074 13.8496 10.0078 13.7583 10.0078 13.4595V12.978C10.0078 12.6792 10.1074 12.5879 10.3979 12.5879H10.8877C11.1865 12.5879 11.2861 12.6792 11.2861 12.978V13.4595C11.2861 13.7583 11.1865 13.8496 10.8877 13.8496H10.3979ZM13.1206 13.8496C12.8218 13.8496 12.7222 13.7583 12.7222 13.4595V12.978C12.7222 12.6792 12.8218 12.5879 13.1206 12.5879H13.6021C13.9009 12.5879 14.0005 12.6792 14.0005 12.978V13.4595C14.0005 13.7583 13.9009 13.8496 13.6021 13.8496H13.1206ZM15.835 13.8496C15.5361 13.8496 15.4365 13.7583 15.4365 13.4595V12.978C15.4365 12.6792 15.5361 12.5879 15.835 12.5879H16.3164C16.6152 12.5879 16.7148 12.6792 16.7148 12.978V13.4595C16.7148 13.7583 16.6152 13.8496 16.3164 13.8496H15.835ZM7.68359 16.5225C7.39307 16.5225 7.29346 16.4312 7.29346 16.1323V15.6509C7.29346 15.3521 7.39307 15.2607 7.68359 15.2607H8.17334C8.47217 15.2607 8.57178 15.3521 8.57178 15.6509V16.1323C8.57178 16.4312 8.47217 16.5225 8.17334 16.5225H7.68359ZM10.3979 16.5225C10.1074 16.5225 10.0078 16.4312 10.0078 16.1323V15.6509C10.0078 15.3521 10.1074 15.2607 10.3979 15.2607H10.8877C11.1865 15.2607 11.2861 15.3521 11.2861 15.6509V16.1323C11.2861 16.4312 11.1865 16.5225 10.8877 16.5225H10.3979ZM13.1206 16.5225C12.8218 16.5225 12.7222 16.4312 12.7222 16.1323V15.6509C12.7222 15.3521 12.8218 15.2607 13.1206 15.2607H13.6021C13.9009 15.2607 14.0005 15.3521 14.0005 15.6509V16.1323C14.0005 16.4312 13.9009 16.5225 13.6021 16.5225H13.1206Z" fill="#573CFF"/>
</g>
<defs>
<clipPath id="clip0_3490_9614">
<rect width="24" height="24" fill="white"/>
</clipPath>
</defs>
</svg>
