<svg width="32" height="32" viewBox="0 0 32 32" fill="none" xmlns="http://www.w3.org/2000/svg">
    <g clip-path="url(#clip0_5161_13723)">
        <path d="M16 27.4421C9.74674 27.4421 4.56706 22.2734 4.56706 16.0091C4.56706 9.75586 9.73568 4.57617 15.9889 4.57617C22.2533 4.57617 27.4329 9.75586 27.4329 16.0091C27.4329 22.2734 22.2533 27.4421 16 27.4421ZM14.7715 21.4766C15.181 21.4766 15.5352 21.2663 15.7897 20.89L20.9694 12.8105C21.1243 12.5671 21.2572 12.2904 21.2572 12.0358C21.2572 11.4603 20.7591 11.0729 20.2057 11.0729C19.8516 11.0729 19.5417 11.2611 19.3092 11.6484L14.7272 18.9753L12.5911 16.2637C12.3145 15.9095 12.0488 15.7767 11.7057 15.7767C11.1302 15.7767 10.6875 16.2415 10.6875 16.806C10.6875 17.0827 10.7871 17.3483 10.9863 17.5918L13.6979 20.89C14.0078 21.2884 14.3509 21.4766 14.7715 21.4766Z" fill="#573CFF"/>
    </g>
    <defs>
        <clipPath id="clip0_5161_13723">
            <rect width="32" height="32" fill="white"/>
        </clipPath>
    </defs>
</svg>
