<svg width="12" height="12" viewBox="0 0 12 12" fill="none" xmlns="http://www.w3.org/2000/svg">
    <path d="M8.65649 6.00122C8.65649 5.86011 8.60254 5.73975 8.49463 5.63184L5.25732 2.46509C5.16602 2.37378 5.05396 2.32812 4.92114 2.32812C4.65137 2.32812 4.43555 2.53564 4.43555 2.80542C4.43555 2.93823 4.4895 3.05859 4.58081 3.15405L7.50269 6.00122L4.58081 8.84839C4.49365 8.9397 4.43555 9.06006 4.43555 9.19287C4.43555 9.4668 4.65137 9.67432 4.92114 9.67432C5.05396 9.67432 5.16602 9.62866 5.25732 9.53735L8.49463 6.37061C8.60669 6.2627 8.65649 6.14233 8.65649 6.00122Z" fill="#F33E3E"/>
</svg>
