<svg width="17" height="16" viewBox="0 0 17 16" fill="none" xmlns="http://www.w3.org/2000/svg">
    <g clip-path="url(#clip0_3859_7468)">
        <path d="M4.73112 12.2546C4.53743 12.0664 4.54297 11.7454 4.73112 11.5573L8.27279 8.01009L4.73112 4.46842C4.54297 4.28027 4.54297 3.96484 4.73112 3.77116C4.91927 3.57194 5.24577 3.57747 5.43392 3.77116L8.97559 7.31283L12.5173 3.77116C12.7054 3.57747 13.0264 3.57747 13.2201 3.77116C13.4137 3.95931 13.4082 4.28027 13.2201 4.46842L9.67839 8.01009L13.2201 11.5573C13.4082 11.7454 13.4082 12.0609 13.2201 12.2546C13.0319 12.4482 12.7054 12.4427 12.5173 12.2546L8.97559 8.71289L5.43392 12.2546C5.24577 12.4427 4.9248 12.4427 4.73112 12.2546Z" fill="#292838"/>
    </g>
    <defs>
        <clipPath id="clip0_3859_7468">
            <rect width="16" height="16" fill="white" transform="translate(0.975586)"/>
        </clipPath>
    </defs>
</svg>
