<svg width="20" height="20" viewBox="0 0 20 20" fill="none" xmlns="http://www.w3.org/2000/svg">
    <path fill-rule="evenodd" clip-rule="evenodd" d="M12.4996 16.1692V9.05211C12.4996 8.6978 12.3587 8.35849 12.1086 8.10839L10.2228 6.2226C9.9727 5.9725 9.63339 5.8316 9.27908 5.8316H4.66299C3.92602 5.8316 3.3291 6.42852 3.3291 7.16549V16.1692C3.3291 16.9062 3.92602 17.5031 4.66299 17.5031H11.1657C11.9027 17.5031 12.4996 16.9062 12.4996 16.1692Z" stroke="#292838" stroke-width="1.25" stroke-linecap="round" stroke-linejoin="round"/>
    <path d="M12.5001 14.1684H15.3346C16.0716 14.1684 16.6685 13.5715 16.6685 12.8345V5.7174C16.6685 5.36308 16.5276 5.02377 16.2775 4.77367L14.3918 2.88788C14.1416 2.63778 13.8023 2.49689 13.448 2.49689H8.83194C8.09496 2.49689 7.49805 3.0938 7.49805 3.83078V5.83161" stroke="#292838" stroke-width="1.25" stroke-linecap="round" stroke-linejoin="round"/>
    <path d="M16.6677 5.83161H14C13.6315 5.83161 13.333 5.53315 13.333 5.16466V2.49689" stroke="#292838" stroke-width="1.25" stroke-linecap="round" stroke-linejoin="round"/>
    <path d="M12.4988 9.16633H9.83101C9.46252 9.16633 9.16406 8.86787 9.16406 8.49938V5.8316" stroke="#292838" stroke-width="1.25" stroke-linecap="round" stroke-linejoin="round"/>
</svg>
