<svg width="24" height="25" viewBox="0 0 24 25" fill="none" xmlns="http://www.w3.org/2000/svg">
    <path d="M6.96973 20.2349C5.17676 20.2349 4.24707 19.3135 4.24707 17.5371V7.43506C4.24707 5.65869 5.17676 4.7373 6.96973 4.7373H17.022C18.8149 4.7373 19.7446 5.65869 19.7446 7.43506V17.5371C19.7446 19.3052 18.8149 20.2349 17.022 20.2349H6.96973ZM7.06934 18.6079H16.9224C17.686 18.6079 18.1177 18.2012 18.1177 17.396V7.56787C18.1177 6.7627 17.686 6.36426 16.9224 6.36426H7.06934C6.29736 6.36426 5.87402 6.7627 5.87402 7.56787V17.396C5.87402 18.2012 6.29736 18.6079 7.06934 18.6079ZM14.5898 14.6318C14.1748 14.6318 13.9009 14.3496 13.9009 13.8931V12.5649L14.0254 11.3696L12.9048 12.5898L10.0078 15.4951C9.8501 15.6445 9.67578 15.7192 9.44336 15.7192C9.02832 15.7192 8.72119 15.437 8.72119 14.9971C8.72119 14.7979 8.8125 14.6069 8.95361 14.4658L11.8672 11.5522L13.0957 10.4316L11.9585 10.5562H10.5557C10.1074 10.5562 9.81689 10.2905 9.81689 9.87549C9.81689 9.46875 10.1074 9.20312 10.5474 9.20312H14.4321C14.9468 9.20312 15.2705 9.45215 15.2705 10.0249V13.8848C15.2705 14.3247 14.9966 14.6318 14.5898 14.6318Z" fill="#292838"/>
</svg>
