<svg width="24" height="25" viewBox="0 0 24 25" fill="none" xmlns="http://www.w3.org/2000/svg">
    <g clip-path="url(#clip0_5322_39234)">
        <path d="M6.96973 20.2349H17.022C18.8149 20.2349 19.7446 19.3052 19.7446 17.5371V7.43506C19.7446 5.65869 18.8149 4.7373 17.022 4.7373H6.96973C5.17676 4.7373 4.24707 5.65869 4.24707 7.43506V17.5371C4.24707 19.3135 5.17676 20.2349 6.96973 20.2349ZM7.06934 18.6079C6.29736 18.6079 5.87402 18.2012 5.87402 17.396V7.56787C5.87402 6.7627 6.29736 6.36426 7.06934 6.36426H16.9224C17.686 6.36426 18.1177 6.7627 18.1177 7.56787V17.396C18.1177 18.2012 17.686 18.6079 16.9224 18.6079H7.06934ZM14.5898 10.2822C14.1748 10.2822 13.9092 10.5728 13.9092 11.021V12.3491L14.0254 13.5444L12.9131 12.3325L10.0078 9.42725C9.8584 9.27783 9.67578 9.20312 9.45166 9.20312C9.02832 9.20312 8.72119 9.48535 8.72119 9.92529C8.72119 10.1162 8.8208 10.3154 8.95361 10.4482L11.8672 13.3618L13.104 14.4907L11.9668 14.3579H10.564C10.1074 14.3579 9.81689 14.6318 9.81689 15.0386C9.81689 15.4536 10.1074 15.7192 10.5557 15.7192H14.4321C14.9551 15.7192 15.2705 15.4619 15.2705 14.8975V11.0376C15.2705 10.5894 15.0049 10.2822 14.5898 10.2822Z" fill="#292838"/>
    </g>
    <defs>
        <clipPath id="clip0_5322_39234">
            <rect width="24" height="24" fill="white" transform="translate(0 0.466797)"/>
        </clipPath>
    </defs>
</svg>
