<svg width="17" height="16" viewBox="0 0 17 16" fill="none" xmlns="http://www.w3.org/2000/svg">
    <path d="M11.2557 3.38151C11.3547 3.38151 11.508 3.3933 11.7155 3.41688C11.9277 3.43574 12.1683 3.48762 12.4371 3.57251C12.7059 3.6574 12.9795 3.79417 13.2577 3.98282C13.536 4.17147 13.793 4.43557 14.0288 4.77514C14.0052 4.78929 13.9156 4.85296 13.76 4.96614C13.6091 5.07933 13.4369 5.2444 13.2436 5.46134C13.0502 5.67357 12.8804 5.94475 12.7342 6.27489C12.5927 6.6003 12.522 6.98939 12.522 7.44214C12.522 7.96092 12.6116 8.39953 12.7908 8.75796C12.9747 9.11639 13.187 9.40643 13.4275 9.62809C13.6727 9.84976 13.8897 10.0125 14.0783 10.1162C14.2717 10.2153 14.3754 10.2671 14.3896 10.2719C14.3849 10.2907 14.3495 10.3968 14.2835 10.5902C14.2174 10.7788 14.1137 11.0241 13.9722 11.3259C13.8354 11.623 13.6562 11.9343 13.4346 12.2597C13.2318 12.5474 13.0219 12.8233 12.805 13.0874C12.5927 13.3515 12.3593 13.5661 12.1046 13.7312C11.8546 13.901 11.5717 13.9859 11.2557 13.9859C11.0152 13.9859 10.81 13.9576 10.6402 13.901C10.4704 13.8444 10.3077 13.7783 10.1521 13.7029C10.0012 13.6321 9.83375 13.5685 9.64982 13.5119C9.46589 13.4553 9.23716 13.427 8.96362 13.427C8.60519 13.427 8.30571 13.4741 8.06518 13.5685C7.82937 13.6675 7.60536 13.7642 7.39313 13.8585C7.1809 13.9528 6.93094 14 6.64325 14C6.20465 14 5.81792 13.8255 5.48307 13.4765C5.15294 13.1275 4.81337 12.7101 4.46438 12.2244C4.19555 11.8376 3.95031 11.3919 3.72865 10.8873C3.50699 10.3827 3.33013 9.8474 3.19808 9.28146C3.06603 8.71551 3 8.14957 3 7.58363C3 6.67812 3.17214 5.91646 3.51642 5.29864C3.8607 4.68082 4.30167 4.21391 4.83931 3.89793C5.37696 3.58194 5.93583 3.42395 6.51592 3.42395C6.82247 3.42395 7.11016 3.47347 7.37898 3.57251C7.65252 3.67155 7.90719 3.77295 8.143 3.87671C8.37881 3.97575 8.5934 4.02527 8.78676 4.02527C8.97069 4.02527 9.18764 3.97339 9.43759 3.86963C9.68755 3.76116 9.96345 3.65269 10.2653 3.54421C10.5718 3.43574 10.902 3.38151 11.2557 3.38151ZM10.7605 2.23547C10.5247 2.52316 10.2276 2.76133 9.86913 2.94997C9.51541 3.13862 9.18056 3.23295 8.86458 3.23295C8.79855 3.23295 8.73488 3.22587 8.67357 3.21172C8.66886 3.19286 8.66178 3.15984 8.65235 3.11268C8.64763 3.06552 8.64528 3.01364 8.64528 2.95705C8.64528 2.59862 8.72309 2.24962 8.87873 1.91006C9.03436 1.57049 9.21358 1.28752 9.41637 1.06114C9.66633 0.764022 9.98231 0.516422 10.3643 0.318343C10.7511 0.120263 11.1213 0.0141486 11.475 0C11.4891 0.0801752 11.4962 0.172141 11.4962 0.275897C11.4962 0.639043 11.4278 0.992757 11.2911 1.33704C11.1543 1.6766 10.9774 1.97608 10.7605 2.23547Z" fill="white"/>
</svg>
