<svg width="29" height="29" viewBox="0 0 29 29" fill="none" xmlns="http://www.w3.org/2000/svg">
    <path fill-rule="evenodd" clip-rule="evenodd" d="M10.5 3.39453L13.5 4.39453V7.39453H6.5C4.84315 7.39453 3.5 8.73768 3.5 10.3945V15.0522C3.5 16.4288 4.43689 17.6288 5.77239 17.9626L9.14171 18.805C9.25979 18.8345 9.37944 18.8568 9.5 18.8717V24.3945C9.5 24.9468 9.94772 25.3945 10.5 25.3945H18.5C19.0523 25.3945 19.5 24.9468 19.5 24.3945V18.8717C19.6206 18.8568 19.7402 18.8345 19.8583 18.805L23.2276 17.9626C24.5631 17.6288 25.5 16.4288 25.5 15.0522V10.3945C25.5 8.73768 24.1569 7.39453 22.5 7.39453H15.5V4.39453L18.5 3.39453V2.39453H10.5V3.39453ZM6.5 11.3945V13.3945H10.5V11.3945H6.5ZM18.5 11.3945V13.3945H22.5V11.3945H18.5ZM11.5 11.3945V13.3945H17.5V11.3945H11.5Z" fill="#573CFF"/>
</svg>
