<svg width="14" height="14" viewBox="0 0 14 14" fill="none" xmlns="http://www.w3.org/2000/svg">
    <g opacity="0.6" clip-path="url(#clip0_3399_8938)">
        <path fill-rule="evenodd" clip-rule="evenodd" d="M13.2119 8.82022C13.3182 8.45044 13.0198 7.46749 12.0904 7.17033C8.42855 5.99953 6.76695 5.78001 4.34717 5.27783C4.34717 5.27783 3.66057 3.26699 3.58113 3.22726C3.50169 3.18754 2.12827 2.60024 1.96105 2.60019C1.79383 2.60014 1.85785 4.9261 1.85785 4.9261C1.39153 4.90901 0.963575 4.97687 0.854222 5.35688C0.74296 5.74467 1.12162 6.04526 1.24561 6.14486C1.83415 6.61231 3.14225 7.20895 4.86984 7.79907C4.86984 7.79907 2.26738 9.49737 2.47481 9.64424C2.68223 9.79112 3.11809 9.9479 3.44523 10.0733C3.77237 10.1987 7.90364 8.76419 8.42855 8.84389C8.95345 8.9236 10.6033 9.33364 11.7163 9.41511C12.0414 9.42477 13.0288 9.45702 13.2119 8.82022Z" fill="#292838"/>
    </g>
    <defs>
        <clipPath id="clip0_3399_8938">
            <rect width="14" height="14" fill="white"/>
        </clipPath>
    </defs>
</svg>
