<svg width="24" height="24" viewBox="0 0 24 24" fill="none" xmlns="http://www.w3.org/2000/svg">
    <path d="M6.6875 12.0063C6.6875 11.7241 6.79541 11.4834 7.01123 11.2676L13.4858 4.93408C13.6685 4.75146 13.8926 4.66016 14.1582 4.66016C14.6978 4.66016 15.1294 5.0752 15.1294 5.61475C15.1294 5.88037 15.0215 6.12109 14.8389 6.31201L8.99512 12.0063L14.8389 17.7007C15.0132 17.8833 15.1294 18.124 15.1294 18.3896C15.1294 18.9375 14.6978 19.3525 14.1582 19.3525C13.8926 19.3525 13.6685 19.2612 13.4858 19.0786L7.01123 12.7451C6.78711 12.5293 6.6875 12.2886 6.6875 12.0063Z" fill="#573CFF" />
</svg>