<svg width="28" height="28" viewBox="0 0 28 28" fill="none" xmlns="http://www.w3.org/2000/svg">
<g clip-path="url(#clip0_1824_31034)">
<path d="M20.25 13.9492C20.25 13.6172 20.123 13.334 19.8691 13.0801L12.252 5.62891C12.0371 5.41406 11.7734 5.30664 11.4609 5.30664C10.8262 5.30664 10.3184 5.79492 10.3184 6.42969C10.3184 6.74219 10.4453 7.02539 10.6602 7.25L17.5352 13.9492L10.6602 20.6484C10.4551 20.8633 10.3184 21.1465 10.3184 21.459C10.3184 22.1035 10.8262 22.5918 11.4609 22.5918C11.7734 22.5918 12.0371 22.4844 12.252 22.2695L19.8691 14.8184C20.1328 14.5645 20.25 14.2812 20.25 13.9492Z" fill="#573CFF"/>
</g>
<defs>
<clipPath id="clip0_1824_31034">
<rect width="28" height="28" fill="white"/>
</clipPath>
</defs>
</svg>
