<svg width="14" height="14" viewBox="0 0 14 14" fill="none" xmlns="http://www.w3.org/2000/svg">
    <g opacity="0.6" clip-path="url(#clip0_1824_32544)">
        <path fill-rule="evenodd" clip-rule="evenodd" d="M13.7715 5.23529C13.6654 4.83845 13.4134 4.29653 12.4513 4.16887C11.3797 4.03107 9.60411 4.71824 7.07865 5.69165C6.3828 5.96239 5.73326 6.25249 5.10612 6.53617C4.66691 6.73217 4.26728 6.70579 3.87785 6.81272C3.77343 6.8414 3.65938 6.82379 3.57733 6.75312L1.88954 5.29935C1.80522 5.22672 1.68692 5.2084 1.58459 5.25213L0.312464 5.79567C0.147889 5.86599 0.084875 6.06657 0.17967 6.21837L1.07614 7.65393C1.16473 7.79579 1.11426 7.98053 0.976918 8.07597C0.673803 8.2866 0.47171 8.53954 0.557558 8.86114C0.668981 9.27722 1.18082 9.34409 1.34906 9.36706C2.0902 9.46408 3.46436 9.32038 5.18928 8.96893C5.38142 8.92979 5.55859 9.08562 5.54186 9.28099L5.40961 10.8255C5.3923 11.0277 5.5817 11.1853 5.77742 11.1316L7.45097 10.6722C7.51838 10.6537 7.5769 10.6116 7.61587 10.5536L9.34667 7.97696C9.38554 7.91911 9.44386 7.87717 9.51092 7.85818C10.6211 7.54383 11.6987 7.12337 12.7299 6.60212C13.0327 6.43221 13.9541 5.91878 13.7715 5.23529Z" fill="#111112"/>
    </g>
    <defs>
        <clipPath id="clip0_1824_32544">
            <rect width="14" height="14" fill="white"/>
        </clipPath>
    </defs>
</svg>
