<svg width="15" height="14" viewBox="0 0 15 14" fill="none" xmlns="http://www.w3.org/2000/svg">
    <path d="M0.79875 14.0003C0.577274 13.8909 0.466553 13.6175 0.466553 13.344C0.466553 13.2893 0.466553 13.18 0.466553 13.1253C0.466553 9.07832 0.466553 5.03133 0.466553 1.03906C0.466553 0.820301 0.521914 0.656256 0.577274 0.437497C0.632667 0.328102 0.743389 0.218738 0.854143 0.109375C3.23494 2.46097 5.56039 4.81257 7.88583 7.16421C5.50502 9.35173 3.17958 11.6487 0.79875 14.0003Z" fill="white"/>
    <path d="M10.2113 4.75791C9.54683 5.41419 8.82705 6.07043 8.16265 6.78139C5.94793 4.53915 3.67785 2.29692 1.46313 0.0546818C1.46313 0.0546818 1.46313 0 1.5185 0C4.39764 1.58596 7.27675 3.17195 10.2113 4.75791Z" fill="white"/>
    <path d="M1.46313 13.9996C3.67785 11.8121 5.94793 9.62457 8.16265 7.43701C8.77169 8.03857 9.43611 8.64017 10.1559 9.29641C7.27675 10.8824 4.39764 12.4684 1.5185 13.9996H1.46313Z" fill="white"/>
    <path d="M10.5437 9.0782C9.82388 8.42195 9.15948 7.76568 8.4397 7.10944C9.15948 6.39848 9.87927 5.68752 10.599 4.97656C10.8205 5.08593 11.042 5.19532 11.2634 5.35937C11.8171 5.68752 12.4262 5.96096 12.9799 6.28908C13.146 6.34376 13.2567 6.45316 13.3674 6.6172C13.5889 6.89064 13.5889 7.16412 13.3674 7.43756C13.2567 7.54692 13.146 7.65631 12.9799 7.711C12.2047 8.2032 11.3742 8.64071 10.5437 9.0782Z" fill="white"/>
</svg>
