<svg width="28" height="29" viewBox="0 0 28 29" fill="none" xmlns="http://www.w3.org/2000/svg">
    <path d="M27 14.8945C26.989 13.5812 25.2065 12.4113 22.9179 12.4113H18.2526C17.6365 12.4113 17.4164 12.2789 17.0313 11.8816L9.45028 3.79184C9.19721 3.52697 8.91113 3.39453 8.59204 3.39453H6.96361C6.67753 3.39453 6.50148 3.65941 6.64452 3.95739L10.5836 12.3893L4.86204 13.0183L2.81549 9.48666C2.65044 9.21075 2.40838 9.08935 2.05628 9.08935H1.53915C1.22006 9.08935 1 9.31008 1 9.6191V20.17C1 20.479 1.22006 20.6997 1.53915 20.6997H2.05628C2.40838 20.6997 2.65044 20.5673 2.81549 20.3024L4.86204 16.7707L10.5836 17.3998L6.64452 25.8206C6.50148 26.1297 6.67753 26.3945 6.96361 26.3945H8.59204C8.91113 26.3945 9.19721 26.2621 9.45028 25.9972L17.0313 17.9075C17.4164 17.4991 17.6365 17.3777 18.2526 17.3777H22.9179C25.2065 17.3777 26.989 16.2079 27 14.8945Z" fill="#573CFF" />
</svg>