<svg width="28" height="28" viewBox="0 0 28 28" fill="none" xmlns="http://www.w3.org/2000/svg">
    <g clipPath="url(#clip0_3012_1231)">
        <path d="M4.36133 12.1719C4.36133 16.5566 7.92578 20.1211 12.3105 20.1211C13.9414 20.1211 15.4355 19.623 16.6855 18.7734L21.1777 23.2656C21.4512 23.5488 21.832 23.6758 22.2129 23.6758C23.043 23.6758 23.6387 23.0508 23.6387 22.2402C23.6387 21.8496 23.502 21.4883 23.2383 21.2148L18.7754 16.7422C19.7031 15.4629 20.2598 13.8809 20.2598 12.1719C20.2598 7.78711 16.6953 4.22266 12.3105 4.22266C7.92578 4.22266 4.36133 7.78711 4.36133 12.1719ZM6.43164 12.1719C6.43164 8.92969 9.05859 6.29297 12.3105 6.29297C15.5527 6.29297 18.1895 8.92969 18.1895 12.1719C18.1895 15.4141 15.5527 18.0508 12.3105 18.0508C9.05859 18.0508 6.43164 15.4141 6.43164 12.1719Z" fill="white" />
    </g>
    <defs>
        <clipPath id="clip0_3012_1231">
            <rect width="28" height="28" fill="white" />
        </clipPath>
    </defs>
</svg>