<svg width="29" height="29" viewBox="0 0 29 29" fill="none" xmlns="http://www.w3.org/2000/svg">
    <g clipPath="url(#clip0_2645_1750)">
        <path d="M18.9935 19.3705L18.9935 7.39111C18.9935 6.82943 18.6255 6.49048 18.0541 6.49048L16.0011 6.49048C15.4297 6.49048 15.0617 6.82943 15.0617 7.39111L15.0617 19.3705C15.0617 19.9322 15.4297 20.2808 16.0011 20.2808L18.0541 20.2808C18.6255 20.2808 18.9935 19.9322 18.9935 19.3705ZM13.9577 19.3705L13.9577 9.56038C13.9577 8.9987 13.5994 8.65006 13.028 8.65006L10.9652 8.65006C10.3939 8.65006 10.0259 8.9987 10.0259 9.56038L10.0259 19.3705C10.0259 19.9322 10.3939 20.2808 10.9652 20.2808L13.028 20.2808C13.5994 20.2808 13.9577 19.9322 13.9577 19.3705ZM24.0293 19.3705L24.0293 11.5747C24.0293 11.0227 23.6613 10.6644 23.0899 10.6644L21.0369 10.6644C20.4655 10.6644 20.0975 11.0227 20.0975 11.5747L20.0975 19.3705C20.0975 19.9322 20.4655 20.2808 21.0369 20.2808L23.0899 20.2808C23.6613 20.2808 24.0293 19.9322 24.0293 19.3705ZM8.92187 19.3705L8.92187 13.5406C8.92187 12.9789 8.55387 12.6303 7.9825 12.6303L5.92944 12.6303C5.35807 12.6303 4.99007 12.9789 4.99007 13.5406L4.99007 19.3705C4.99007 19.9322 5.35807 20.2808 5.92944 20.2808L7.9825 20.2808C8.55387 20.2808 8.92187 19.9322 8.92187 19.3705ZM24.9783 22.6632C24.9783 22.1208 24.5522 21.7141 24.0196 21.7141L4.99007 21.7141C4.45743 21.7141 4.03133 22.1208 4.03133 22.6632C4.03133 23.2055 4.45743 23.6122 4.99007 23.6122L24.0196 23.6122C24.5522 23.6122 24.9783 23.2055 24.9783 22.6632Z" fill="#573CFF" />
    </g>
    <defs>
        <clipPath id="clip0_2645_1750">
            <rect width="28" height="28" fill="white" transform="translate(0.5 0.394531)" />
        </clipPath>
    </defs>
</svg>