<svg width="65" height="64" viewBox="0 0 65 64" fill="none" xmlns="http://www.w3.org/2000/svg">
    <path d="M50.7275 0H15.2275C7.35748 0 0.977539 6.37994 0.977539 14.25V49.75C0.977539 57.6201 7.35748 64 15.2275 64H50.7275C58.5976 64 64.9775 57.6201 64.9775 49.75V14.25C64.9775 6.37994 58.5976 0 50.7275 0Z" fill="white"/>
    <path d="M15.165 34.9513L34.2384 39.1586L35.8278 53.1832L55.4622 28.5L15.165 34.9513Z" fill="#D6E7F7"/>
    <path d="M33.5249 29.1624L13.5166 20.9347L53.5332 14.6704L33.5249 29.1624Z" fill="#38BDF5"/>
    <path d="M33.5249 29.1624L36.0493 53.6586L53.5332 14.6704L33.5249 29.1624Z" fill="#3397D5"/>
    <path opacity="0.05" d="M33.6493 29.1496L33.6416 29.0752L33.5725 29.0468L13.9775 20.9891L53.3249 14.8295L36.1259 53.1823L33.6493 29.1496Z" stroke="#292838" stroke-width="0.25"/>
    <ellipse cx="11.3842" cy="45.875" rx="2.15669" ry="2.1875" fill="#49B5E3"/>
    <ellipse cx="18.7592" cy="40.75" rx="2.15669" ry="2.1875" fill="#49B5E3"/>
    <ellipse cx="26.1342" cy="35.625" rx="2.15669" ry="2.1875" fill="#49B5E3"/>
</svg>
