<svg width="57" height="31" viewBox="0 0 49 37" fill="none" xmlns="http://www.w3.org/2000/svg"><path fill-rule="evenodd" clip-rule="evenodd" d="M15.857 3.27575C17.597 3.17575 19.335 3.18375 21.075 3.18375C21.087 3.18375 29.892 3.18375 29.892 3.18375C31.666 3.18375 33.404 3.17575 35.143 3.27575C36.724 3.36575 38.264 3.55775 39.797 3.98675C43.024 4.88875 45.842 6.77275 47.879 9.44375C49.904 12.0977 51 15.3467 51 18.6827C51 22.0227 49.904 25.2697 47.879 27.9237C45.842 30.5937 43.024 32.4787 39.797 33.3807C38.264 33.8097 36.724 34.0007 35.143 34.0917C33.404 34.1917 31.666 34.1827 29.926 34.1827C29.914 34.1827 21.107 34.1837 21.107 34.1837C19.335 34.1827 17.597 34.1917 15.857 34.0917C14.277 34.0007 12.737 33.8097 11.204 33.3807C7.977 32.4787 5.159 30.5937 3.122 27.9237C1.097 25.2697 0 22.0227 0 18.6837C0 15.3467 1.097 12.0977 3.122 9.44375C5.159 6.77275 7.977 4.88875 11.204 3.98675C12.737 3.55775 14.277 3.36575 15.857 3.27575Z" fill="#33CC55"></path><g filter="url(#filter0_dd_0_1)"><path fill-rule="evenodd" clip-rule="evenodd" d="M35.5 32.1836C42.9558 32.1836 49 26.1394 49 18.6836C49 11.2277 42.9558 5.18359 35.5 5.18359C28.0442 5.18359 22 11.2277 22 18.6836C22 26.1394 28.0442 32.1836 35.5 32.1836Z" fill="white"></path></g><defs><filter id="filter0_dd_0_1" x="14" y="0.183594" width="43" height="43" filterUnits="userSpaceOnUse" color-interpolation-filters="sRGB"><feFlood flood-opacity="0" result="BackgroundImageFix"></feFlood><feColorMatrix in="SourceAlpha" type="matrix" values="0 0 0 0 0 0 0 0 0 0 0 0 0 0 0 0 0 0 127 0" result="hardAlpha"></feColorMatrix><feOffset dy="3"></feOffset><feGaussianBlur stdDeviation="0.5"></feGaussianBlur><feColorMatrix type="matrix" values="0 0 0 0 0 0 0 0 0 0 0 0 0 0 0 0 0 0 0.06 0"></feColorMatrix><feBlend mode="normal" in2="BackgroundImageFix" result="effect1_dropShadow_0_1"></feBlend><feColorMatrix in="SourceAlpha" type="matrix" values="0 0 0 0 0 0 0 0 0 0 0 0 0 0 0 0 0 0 127 0" result="hardAlpha"></feColorMatrix><feOffset dy="3"></feOffset><feGaussianBlur stdDeviation="4"></feGaussianBlur><feColorMatrix type="matrix" values="0 0 0 0 0 0 0 0 0 0 0 0 0 0 0 0 0 0 0.15 0"></feColorMatrix><feBlend mode="normal" in2="effect1_dropShadow_0_1" result="effect2_dropShadow_0_1"></feBlend><feBlend mode="normal" in="SourceGraphic" in2="effect2_dropShadow_0_1" result="shape"></feBlend></filter></defs></svg>