<svg width="375" height="545" viewBox="0 0 375 545" fill="none" xmlns="http://www.w3.org/2000/svg">
<mask id="mask0_2693_10202" style="mask-type:alpha" maskUnits="userSpaceOnUse" x="-17" y="349" width="172" height="181">
<path fill-rule="evenodd" clip-rule="evenodd" d="M71.8611 390.073L70.0069 390.724L70.8036 392.995L69.7895 396.05L69.1977 401.359L78.9181 397.948L82.4161 401.971L80.5584 402.623L77.8572 400.87L74.0372 402.211L75.6776 406.886L80.2942 407.816L82.9486 409.435L82.1518 407.164L84.0095 406.512L85.0705 403.59L87.8328 405.171L89.4731 409.846L87.5075 410.535L88.3041 412.806L91.0666 414.387L93.4098 421.065L99.0752 424.628L102.523 428.519L109.217 428.72L114.68 432.053L124.293 428.681L125.35 425.76L127.316 425.07L128.113 427.34L129.97 426.689L129.174 424.418L133.105 423.039L135.867 424.62L137.725 423.968L138.522 426.238L136.664 426.89L137.461 429.161L144.996 426.517L145.84 428.921L138.304 431.565L139.101 433.836L133.204 435.905L134.001 438.176L149.291 432.811L154.862 436.106L153.801 439.029L147.904 441.098L146.847 444.019L139.308 446.664L138.078 449.796L136.923 452.451L135.754 455.411L140.421 456.474L142.495 455.746L145.149 457.366L144.088 460.288L140.157 461.667L137.134 465.278L137.01 470.872L135.044 471.562L132.39 469.943L131.333 472.864L132.129 475.135L130.849 478.134L127.025 479.476L126.015 482.531L121.972 483.949L120.914 486.87L115.017 488.939L112.363 487.321L109.662 485.568L111.302 490.243L108.648 488.624L104.828 489.965L105.624 492.235L96.012 495.608L93.2496 494.027L91.3955 494.678L94.0463 496.298L96.8088 497.879L92.9889 499.219L93.7856 501.49L92.7715 504.545L73.2224 511.405L70.3039 514.979L65.423 519.242L44.236 526.676L39.6159 525.747L33.0335 525.506L28.1471 524.52L22.4696 526.512L17.9576 525.545L19.0184 522.623L28.6309 519.25L29.7999 516.29L27.8342 516.98L28.9563 513.886L29.4367 508.617L25.3972 510.034L23.0592 515.955L20.0794 519.7L18.2217 520.352L17.3782 517.948L14.7238 516.329L17.6424 512.755L17.874 507.123L18.9351 504.201L15.9084 507.813L13.9272 514.059L12.8696 516.98L1.2915 521.042L2.08829 523.313L-5.66648 526.034L-4.82295 528.438L-8.64281 529.778L-11.344 528.026L-12.9375 523.485L-8.05661 519.222L-6.91678 515.822L-3.8901 512.209L-5.85926 512.9L-4.68676 509.939L-2.83256 509.288L-3.62936 507.017L-2.6152 503.962L1.20815 502.62L-0.291569 498.346L0.71901 495.291L1.99964 492.292L3.96531 491.602L2.37186 487.061L-3.52523 489.13L-4.36876 486.726L-8.9889 485.796L-9.78557 483.526L-8.66344 480.432L-0.90867 477.711L-1.70546 475.44L-5.74843 476.859L-9.19587 472.968L-10.8362 468.293L-6.90479 466.914L-7.70145 464.643L-10.5755 463.101L-12.4297 463.752L-11.5128 460.43L-9.43551 459.701L-10.2322 457.431L-9.0633 454.47L-7.91202 451.816L-6.05442 451.164L-3.49382 452.516L-1.52815 451.826L-4.19673 450.513L-6.05442 451.164L-9.55236 447.141L-10.349 444.871L-6.63373 443.567L-3.8714 445.148L-0.37338 449.171L1.48082 448.52L0.637275 446.116L-6.63373 443.567L-11.9894 440.196L-15.4369 436.305L-16.2805 433.901L-14.4263 433.25L-9.86739 434.351L-7.10506 435.932L-3.39317 434.629L-2.11262 431.63L-5.83016 427.684L-13.3654 430.328L-12.3044 427.405L-9.27781 423.793L-6.18994 420.009L-1.08952 415.67L0.764683 415.019L3.79125 411.407L11.546 408.686L9.90581 404.011L11.7635 403.359L12.9324 400.399L13.9899 397.478L13.0526 394.807L14.9103 394.155L18.2468 390.734L21.9622 389.43L22.6651 391.434L24.5192 390.783L23.0195 386.509L24.1886 383.549L29.9776 381.518L26.7438 372.301L30.5673 370.96L28.9271 366.285L31.0008 365.557L30.2041 363.287L26.4901 359.339L28.5638 358.612L26.9703 354.07L28.0925 350.977L29.9502 350.325L30.7937 352.729L32.6514 352.077L31.8078 349.673L34.5055 351.427L38.0647 355.278L47.6771 351.905L49.3174 356.58L51.9717 358.199L57.6514 361.456L60.3058 363.076L61.1025 365.346L59.2449 365.998L60.0417 368.269L63.7535 366.966L64.597 369.371L66.5628 368.681L70.0138 372.57L73.2475 381.786L71.0643 387.803L71.8611 390.073ZM39.4088 512.918L49.0213 509.546L46.3201 507.793L39.4088 512.918Z" fill="black"/>
</mask>
<g mask="url(#mask0_2693_10202)">
<path fill-rule="evenodd" clip-rule="evenodd" d="M71.861 390.073L70.0068 390.724L70.8034 392.995L69.7894 396.05L69.1976 401.359L78.918 397.948L82.416 401.971L80.5583 402.623L77.8571 400.87L74.0371 402.211L75.6774 406.886L80.294 407.816L82.9484 409.435L82.1516 407.164L84.0093 406.512L85.0704 403.59L87.8327 405.171L89.473 409.846L87.5073 410.535L88.304 412.806L91.0665 414.387L93.4097 421.065L99.0751 424.628L102.523 428.519L109.216 428.72L114.68 432.053L124.293 428.681L125.35 425.76L127.316 425.07L128.112 427.34L129.97 426.689L129.173 424.418L133.105 423.039L135.867 424.62L137.725 423.968L138.522 426.238L136.664 426.89L137.461 429.161L144.996 426.517L145.839 428.921L138.304 431.565L139.101 433.836L133.204 435.905L134.001 438.176L149.291 432.811L154.862 436.106L153.801 439.029L147.904 441.098L146.847 444.019L139.308 446.664L138.078 449.796L136.923 452.451L135.754 455.411L140.421 456.474L142.495 455.746L145.149 457.366L144.088 460.288L140.157 461.667L137.134 465.278L137.01 470.872L135.044 471.562L132.39 469.943L131.332 472.864L132.129 475.135L130.849 478.134L127.025 479.476L126.015 482.531L121.972 483.949L120.914 486.87L115.017 488.939L112.363 487.321L109.662 485.568L111.302 490.243L108.648 488.624L104.828 489.965L105.624 492.235L96.0119 495.608L93.2495 494.027L91.3953 494.678L94.0461 496.298L96.8087 497.879L92.9888 499.219L93.7855 501.49L92.7713 504.545L73.2223 511.405L70.3038 514.979L65.4229 519.242L44.2358 526.676L39.6158 525.747L33.0334 525.506L28.147 524.52L22.4694 526.512L17.9575 525.545L19.0183 522.623L28.6307 519.25L29.7997 516.29L27.8341 516.98L28.9562 513.886L29.4366 508.617L25.3971 510.034L23.0591 515.955L20.0793 519.7L18.2216 520.352L17.3781 517.948L14.7237 516.329L17.6423 512.755L17.8739 507.123L18.9349 504.201L15.9083 507.813L13.927 514.059L12.8695 516.98L1.29137 521.042L2.08817 523.313L-5.6666 526.034L-4.82307 528.438L-8.64294 529.778L-11.3442 528.026L-12.9376 523.485L-8.05673 519.222L-6.91691 515.822L-3.89022 512.209L-5.85938 512.9L-4.68688 509.939L-2.83269 509.288L-3.62948 507.017L-2.61532 503.962L1.20803 502.62L-0.291691 498.346L0.718888 495.291L1.99952 492.292L3.96519 491.602L2.37174 487.061L-3.52535 489.13L-4.36888 486.726L-8.98902 485.796L-9.7857 483.526L-8.66356 480.432L-0.908792 477.711L-1.70558 475.44L-5.74856 476.859L-9.19599 472.968L-10.8363 468.293L-6.90491 466.914L-7.70157 464.643L-10.5757 463.101L-12.4298 463.752L-11.5129 460.43L-9.43564 459.701L-10.2323 457.431L-9.06342 454.47L-7.91214 451.816L-6.05454 451.164L-3.49394 452.516L-1.52827 451.826L-4.19685 450.513L-6.05454 451.164L-9.55248 447.141L-10.3491 444.871L-6.63385 443.567L-3.87152 445.148L-0.373502 449.171L1.4807 448.52L0.637153 446.116L-6.63385 443.567L-11.9895 440.196L-15.437 436.305L-16.2807 433.901L-14.4265 433.25L-9.86751 434.351L-7.10518 435.932L-3.3933 434.629L-2.11274 431.63L-5.83028 427.684L-13.3655 430.328L-12.3045 427.405L-9.27793 423.793L-6.19006 420.009L-1.08964 415.67L0.764561 415.019L3.79112 411.407L11.5459 408.686L9.90569 404.011L11.7634 403.359L12.9323 400.399L13.9898 397.478L13.0525 394.807L14.9102 394.155L18.2467 390.734L21.962 389.43L22.665 391.434L24.5191 390.783L23.0194 386.509L24.1885 383.549L29.9775 381.518L26.7437 372.301L30.5671 370.96L28.9269 366.285L31.0007 365.557L30.204 363.287L26.4899 359.339L28.5637 358.612L26.9702 354.07L28.0923 350.977L29.95 350.325L30.7936 352.729L32.6513 352.077L31.8077 349.673L34.5054 351.427L38.0646 355.278L47.6769 351.905L49.3173 356.58L51.9716 358.199L57.6513 361.456L60.3057 363.076L61.1024 365.346L59.2448 365.998L60.0415 368.269L63.7533 366.966L64.5969 369.371L66.5626 368.681L70.0137 372.57L73.2474 381.786L71.0642 387.803L71.861 390.073ZM39.4087 512.918L49.0212 509.546L46.3199 507.793L39.4087 512.918Z" fill="url(#paint0_linear_2693_10202)"/>
<path d="M108.958 494.647L98.3368 491.814L98.8725 487.857C97.4496 487.992 94.9848 487.926 95.4316 486.742M95.4316 486.742C95.4779 486.62 95.5553 486.485 95.6683 486.338M95.4316 486.742L95.6683 486.338M95.4316 486.742L93.6517 489.785L90.665 491.24L83.4656 492.9C83.2231 492.402 82.7354 491.654 82.7252 492.645C82.715 493.636 80.7213 494.854 79.7257 495.339L73.9945 498.748L71.7733 497.982L69.3095 496.718C67.2415 497.11 63.0086 497.694 62.6204 496.898C62.2323 496.101 60.4928 495.06 59.6716 494.639C58.761 494.877 56.8914 495.254 56.6974 494.856C56.5033 494.458 54.9907 492.197 54.2587 491.116C53.5141 491.274 51.928 491.389 51.5398 490.593L50.3269 488.104C49.7447 486.909 48.1267 485.274 47.3904 484.607L44.9015 485.819L46.8422 489.802L47.3147 492.036L42.5791 494.959L40.3325 496.67L37.1032 497.628C36.8564 497.543 36.3653 497.125 36.3754 496.134C36.3855 495.144 35.9029 493.901 35.6603 493.403C35.1667 493.233 33.9318 492.89 32.9413 492.88C31.7031 492.867 28.7414 491.846 29.0093 489.867C29.2772 487.889 29.2772 487.889 28.5368 487.634C27.9445 487.429 22.3415 487.983 19.614 488.286L15.1843 485.516L13.9587 484.265L11.4949 483.002C10.6736 482.58 8.92902 482.034 8.52065 483.219C8.01019 484.7 4.28289 485.9 2.81473 484.151C1.6402 482.752 0.359366 482.062 -0.134233 481.892L-1.85762 480.884C-2.51295 480.382 -3.92316 479.426 -4.32142 479.62C-4.71967 479.814 -6.1636 482.161 -6.83578 483.31L-9.09492 486.259C-8.76726 486.51 -8.31105 487.109 -9.10756 487.497C-9.90406 487.885 -11.7457 487.14 -12.567 486.719L-13.2947 485.225L-15.0181 484.217C-15.8436 484.208 -17.5431 484.092 -17.7372 483.694L-20.163 478.716C-20.4056 478.218 -21.146 477.963 -22.129 477.21C-22.9154 476.607 -26.3278 472.357 -26.7363 471.94M95.6683 486.338C96.8732 484.765 96.8762 481.232 96.7271 479.662L91.7869 478.373C92.1188 478.211 92.2438 477.288 90.0888 474.888C87.9338 472.488 83.7697 471.191 81.957 470.842L79.7737 466.362L82.2628 465.149L81.0499 462.66L84.3173 457.988L83.5896 456.494L80.1428 454.478L79.1724 452.486C78.7843 451.69 76.2192 450.64 74.9852 450.215L71.589 443.245L67.6065 445.186L65.4232 440.706C65.0351 439.909 60.3255 438.672 58.0192 438.153L56.0279 439.124M56.0279 439.124C57.621 438.347 59.0317 436.017 59.5379 434.949L61.8224 429.524L60.6094 427.035C59.3586 428.26 56.9615 430.167 57.3799 427.992C57.7984 425.817 58.0901 423.129 58.1836 422.056L58.0042 415.367C58.5105 414.299 58.9281 412.207 56.5487 412.381C54.1693 412.554 50.7998 409.432 49.4125 407.85C47.1745 408.735 42.8515 410.061 43.464 408.284C44.2297 406.063 43.2594 404.072 44.0124 403.089C47.1985 401.536 49.6459 401.165 50.4714 401.173L52.9731 398.722C52.2328 398.467 51.4004 397.517 53.9941 395.761C56.5877 394.004 58.4272 390.11 59.0228 388.382L57.3247 384.897C58.418 382.927 60.9034 378.841 62.0982 378.259C63.2929 377.677 62.6297 374.714 62.1487 373.306L60.9358 370.817C60.0337 370.23 57.7826 369.15 55.9956 369.528C51.0553 368.239 47.136 363.989 48.6295 363.261L55.5989 359.865L51.7175 351.9C52.6196 352.487 54.2809 353.115 53.7088 350.93C53.1367 348.744 51.5297 346.037 50.7978 344.956L48.1293 339.48L50.6184 338.267L46.737 330.302L48.779 324.379L47.3235 321.392L47.6166 316.937L37.9132 297.024C37.8323 296.858 36.9327 296.023 33.9812 294.012C31.0297 292 27.6705 289.489 26.3598 288.485L22.2358 280.022L23.7294 279.295L17.3841 270.066M56.0279 439.124L53.3595 433.648L51.866 434.375L46.9258 433.087L43.9516 433.304L42.9812 431.313L38.9608 436.968L36.4843 436.943L32.2971 434.671L32.8455 429.475C32.6072 428.565 31.8802 426.989 30.8796 427.969C29.6287 429.195 26.4119 428.914 27.1396 430.408C27.7218 431.603 26.5399 432.548 25.8761 432.872L22.8892 434.327L19.2125 430.575L19.4045 436.025L14.1332 442.906C12.8865 443.719 10.4928 445.296 10.8911 445.102C11.2893 444.908 10.8701 447.166 10.6107 448.319L8.12163 449.532L7.8411 452.749L5.84984 453.719L2.37777 454.179L-0.851711 455.137L-4.09383 457.332L-6.31504 456.567L-6.80021 455.571" stroke="#D2D2D2" stroke-width="0.5"/>
</g>
<mask id="mask1_2693_10202" style="mask-type:alpha" maskUnits="userSpaceOnUse" x="-102" y="77" width="244" height="252">
<path fill-rule="evenodd" clip-rule="evenodd" d="M75.5612 229.205L75.2002 226.52L71.9126 226.962L68.07 224.74L61.0689 222.461L62.9616 236.535L56.5543 240.135L56.1926 237.445L59.3124 234.287L58.5686 228.756L51.7996 229.667L49.2558 235.64L46.3294 238.772L49.6175 238.329L49.9792 241.019L53.6284 243.267L50.7237 246.555L43.9546 247.465L43.5719 244.619L40.2844 245.061L37.3791 248.35L27.7094 249.65L21.3195 256.305L15.105 259.874L12.9656 268.854L6.94107 275.3L8.81271 289.218L12.4613 291.461L12.844 294.307L9.5565 294.749L9.9182 297.439L13.2057 296.997L13.9712 302.689L11.0664 305.978L11.4281 308.667L8.14059 309.109L7.77887 306.42L4.49084 306.862L5.958 317.772L2.47705 318.24L1.00989 307.33L-2.27766 307.772L-3.42589 299.234L-6.71393 299.676L-3.73681 321.814L-9.73983 328.417L-13.3896 326.169L-14.5378 317.631L-18.1864 315.388L-19.6542 304.473L-23.539 301.938L-26.8019 299.639L-30.4722 297.234L-33.2087 303.239L-32.8049 306.241L-35.7313 309.373L-39.3805 307.125L-40.146 301.433L-44.1773 296.344L-51.6949 294.617L-52.0776 291.771L-49.1518 288.639L-52.8003 286.396L-56.0879 286.838L-59.7804 284.273L-60.5248 278.737L-64.3668 276.52L-65.154 270.666L-68.8026 268.424L-69.9508 259.885L-67.025 256.753L-63.9057 253.596L-70.6742 254.506L-67.7484 251.374L-68.4922 245.843L-71.7797 246.285L-73.6513 232.367L-70.7465 229.079L-71.1076 226.394L-74.0341 229.521L-76.9394 232.809L-77.6831 227.278L-80.9707 227.721L-84.8134 225.499L-88.6198 197.193L-92.6312 192.256L-97.0242 184.478L-101.15 153.8L-98.6065 147.822L-96.4449 139.003L-93.7512 132.681L-94.8566 124.461L-92.2925 118.639L-88.6428 120.887L-86.7711 134.805L-83.1009 137.209L-83.4836 134.363L-79.6199 136.741L-72.6405 138.859L-73.427 133.01L-80.7681 128.202L-84.9935 123.134L-85.3552 120.445L-81.8743 119.976L-78.9479 116.845L-74.937 121.782L-67.3984 123.666L-63.7492 125.913L-67.7812 120.82L-75.6604 116.403L-79.309 114.16L-81.5633 97.3957L-84.8514 97.8379L-86.3613 86.6096L-89.8423 87.0777L-90.586 81.5468L-87.4668 78.3889L-80.8912 77.5047L-76.4982 85.2832L-72.2254 87.7707L-68.1935 92.8645L-68.5769 90.0133L-64.9059 92.4224L-64.5449 95.1071L-61.2568 94.665L-57.4142 96.8866L-56.6697 102.423L-50.481 101.59L-46.639 103.807L-42.947 106.372L-42.5642 109.219L-35.9886 108.334L-37.1369 99.7958L-33.6559 99.3277L-31.1123 93.3497L-27.8248 92.9076L-23.9611 95.2856L-22.4511 106.514L-19.1631 106.072L-19.9503 100.218L-13.7363 96.649L-6.96722 95.7387L-6.20174 101.431L-2.91422 100.989L-0.0306337 97.5391L-0.391649 94.8545L3.83716 97.019L4.24163 100.027L7.52917 99.5846L11.1999 101.989L14.4617 104.283L14.8234 106.973L12.2844 110.053L12.6671 112.899L15.1851 109.663L14.8234 106.973L21.2307 103.373L24.5182 102.931L25.2416 108.31L22.3368 111.599L15.9295 115.199L16.2906 117.883L19.7715 117.415L25.2416 108.31L31.2873 102.021L37.5013 98.4517L40.9828 97.9835L41.3438 100.668L38.5857 106.516L35.6809 109.804L36.4036 115.179L40.0957 117.744L46.4602 113.826L44.993 102.916L48.6423 105.164L52.6748 110.257L56.9212 115.482L61.357 123.578L61.718 126.263L65.7505 131.356L67.2604 142.585L74.0289 141.675L74.3906 144.364L78.0614 146.768L81.71 149.011L85.5778 148.491L85.9395 151.181L89.6267 156.639L90.3501 162.019L87.4494 162.409L87.8104 165.093L93.9992 164.261L97.6695 166.665L98.7967 175.047L112.141 173.253L112.886 178.789L119.654 177.879L120.058 180.881L123.346 180.439L129.711 176.526L130.115 179.529L136.69 178.645L140.554 181.023L140.916 183.712L137.435 184.181L137.796 186.87L141.277 186.402L138.157 189.555L131.964 193.285L133.836 207.203L127.067 208.114L124.141 211.246L118.159 218.005L115.233 221.136L111.945 221.579L111.584 218.889L108.296 219.331L109.018 224.705L105.537 225.174L105.92 228.02L99.7063 231.594L86.3622 233.388L78.8493 228.762L75.5612 229.205ZM-81.2299 151.122L-79.3582 165.04L-76.239 161.882L-81.2299 151.122Z" fill="black"/>
</mask>
<g mask="url(#mask1_2693_10202)">
<path fill-rule="evenodd" clip-rule="evenodd" d="M75.5612 229.205L75.2002 226.52L71.9127 226.962L68.07 224.74L61.0689 222.461L62.9616 236.535L56.5543 240.135L56.1926 237.445L59.3124 234.287L58.5686 228.756L51.7996 229.667L49.2559 235.64L46.3295 238.772L49.6175 238.329L49.9793 241.019L53.6285 243.267L50.7237 246.555L43.9547 247.465L43.5719 244.619L40.2844 245.061L37.3791 248.35L27.7094 249.65L21.3195 256.305L15.105 259.874L12.9657 268.854L6.9411 275.3L8.81275 289.218L12.4613 291.461L12.8441 294.307L9.55653 294.749L9.91823 297.439L13.2057 296.997L13.9712 302.689L11.0665 305.978L11.4282 308.667L8.14062 309.109L7.7789 306.42L4.49087 306.862L5.95803 317.772L2.47709 318.24L1.00992 307.33L-2.27763 307.772L-3.42586 299.234L-6.7139 299.676L-3.73678 321.814L-9.7398 328.417L-13.3896 326.169L-14.5378 317.631L-18.1864 315.388L-19.6542 304.473L-23.539 301.938L-26.8019 299.639L-30.4722 297.234L-33.2087 303.239L-32.8049 306.241L-35.7312 309.373L-39.3805 307.125L-40.146 301.433L-44.1773 296.344L-51.6948 294.617L-52.0776 291.771L-49.1517 288.639L-52.8003 286.396L-56.0878 286.838L-59.7803 284.273L-60.5248 278.737L-64.3668 276.52L-65.154 270.666L-68.8025 268.424L-69.9508 259.885L-67.0249 256.753L-63.9057 253.596L-70.6742 254.506L-67.7483 251.374L-68.4921 245.843L-71.7797 246.285L-73.6513 232.367L-70.7465 229.079L-71.1075 226.394L-74.0341 229.521L-76.9393 232.809L-77.6831 227.278L-80.9707 227.721L-84.8133 225.499L-88.6197 197.193L-92.6312 192.256L-97.0242 184.478L-101.15 153.8L-98.6064 147.822L-96.4449 139.003L-93.7511 132.681L-94.8566 124.461L-92.2925 118.639L-88.6428 120.887L-86.7711 134.805L-83.1008 137.209L-83.4836 134.363L-79.6199 136.741L-72.6405 138.859L-73.427 133.01L-80.7681 128.202L-84.9935 123.134L-85.3552 120.445L-81.8742 119.976L-78.9479 116.845L-74.9369 121.782L-67.3984 123.666L-63.7491 125.913L-67.7811 120.82L-75.6603 116.403L-79.3089 114.16L-81.5633 97.3957L-84.8514 97.8379L-86.3613 86.6096L-89.8422 87.0777L-90.586 81.5468L-87.4668 78.3889L-80.8912 77.5047L-76.4981 85.2832L-72.2254 87.7707L-68.1934 92.8645L-68.5768 90.0133L-64.9059 92.4224L-64.5448 95.1071L-61.2568 94.665L-57.4141 96.8866L-56.6697 102.423L-50.4809 101.59L-46.639 103.807L-42.9469 106.372L-42.5642 109.219L-35.9886 108.334L-37.1368 99.7958L-33.6559 99.3277L-31.1123 93.3497L-27.8247 92.9076L-23.961 95.2856L-22.4511 106.514L-19.1631 106.072L-19.9503 100.218L-13.7362 96.649L-6.96719 95.7387L-6.20171 101.431L-2.91419 100.989L-0.0306032 97.5391L-0.391618 94.8545L3.83719 97.019L4.24166 100.027L7.5292 99.5846L11.2 101.989L14.4617 104.283L14.8234 106.973L12.2844 110.053L12.6672 112.899L15.1851 109.663L14.8234 106.973L21.2307 103.373L24.5182 102.931L25.2417 108.31L22.3369 111.599L15.9296 115.199L16.2906 117.883L19.7715 117.415L25.2417 108.31L31.2873 102.021L37.5013 98.4517L40.9828 97.9835L41.3438 100.668L38.5857 106.516L35.6809 109.804L36.4037 115.179L40.0957 117.744L46.4602 113.826L44.993 102.916L48.6423 105.164L52.6748 110.257L56.9212 115.482L61.357 123.578L61.718 126.263L65.7505 131.356L67.2605 142.585L74.029 141.675L74.3907 144.364L78.0614 146.768L81.71 149.011L85.5778 148.491L85.9395 151.181L89.6268 156.639L90.3502 162.019L87.4494 162.409L87.8105 165.093L93.9992 164.261L97.6695 166.665L98.7967 175.047L112.141 173.253L112.886 178.789L119.654 177.879L120.058 180.881L123.346 180.439L129.711 176.526L130.115 179.529L136.69 178.645L140.554 181.023L140.916 183.712L137.435 184.181L137.796 186.87L141.277 186.402L138.157 189.555L131.965 193.285L133.836 207.203L127.067 208.114L124.141 211.246L118.159 218.005L115.233 221.136L111.945 221.579L111.584 218.889L108.296 219.331L109.018 224.705L105.537 225.174L105.92 228.02L99.7063 231.594L86.3622 233.388L78.8493 228.762L75.5612 229.205ZM-81.2299 151.122L-79.3582 165.04L-76.239 161.882L-81.2299 151.122Z" fill="url(#paint1_linear_2693_10202)"/>
<path d="M69.593 226.982L58.9721 224.149L59.5078 220.192C58.085 220.327 55.6201 220.262 56.067 219.078M56.067 219.078C56.1132 218.955 56.1907 218.821 56.3037 218.673M56.067 219.078L56.3037 218.673M56.067 219.078L54.2871 222.12L51.3003 223.576L44.101 225.236C43.8584 224.738 43.3708 223.99 43.3606 224.98C43.3503 225.971 41.3566 227.189 40.361 227.674L34.6298 231.083L32.4086 230.317L29.9448 229.054C27.8769 229.446 23.6439 230.03 23.2558 229.233C22.8676 228.437 21.1282 227.395 20.3069 226.974C19.3964 227.212 17.5268 227.59 17.3327 227.191C17.1386 226.793 15.6261 224.532 14.894 223.452C14.1495 223.609 12.5633 223.725 12.1752 222.928L10.9622 220.439C10.38 219.245 8.762 217.61 8.02577 216.942L5.53684 218.155L7.47753 222.137L7.95006 224.371L3.21449 227.295L0.967842 229.006L-2.26149 229.963C-2.50829 229.878 -2.99936 229.46 -2.98925 228.47C-2.97913 227.479 -3.46178 226.236 -3.70436 225.738C-4.19796 225.568 -5.43282 225.225 -6.42339 225.215C-7.6616 225.202 -10.6232 224.182 -10.3553 222.203C-10.0875 220.224 -10.0875 220.224 -10.8279 219.969C-11.4202 219.765 -17.0232 220.319 -19.7506 220.621L-24.1804 217.851L-25.406 216.601L-27.8698 215.337C-28.691 214.916 -30.4356 214.37 -30.844 215.554C-31.3545 217.035 -35.0818 218.235 -36.5499 216.487C-37.7245 215.088 -39.0053 214.398 -39.4989 214.228L-41.2223 213.219C-41.8776 212.717 -43.2878 211.762 -43.6861 211.956C-44.0843 212.15 -45.5283 214.496 -46.2004 215.645L-48.4596 218.594C-48.1319 218.845 -47.6757 219.444 -48.4722 219.832C-49.2687 220.221 -51.1104 219.475 -51.9316 219.054L-52.6594 217.561L-54.3828 216.552C-55.2083 216.544 -56.9077 216.427 -57.1018 216.029L-59.5277 211.051C-59.7703 210.553 -60.5107 210.298 -61.4936 209.545C-62.28 208.943 -65.6924 204.693 -66.101 204.276M56.3037 218.673C57.5085 217.1 57.5116 213.567 57.3625 211.997L52.4223 210.708C52.7542 210.546 52.8792 209.623 50.7242 207.224C48.5692 204.824 44.4051 203.527 42.5924 203.178L40.4091 198.697L42.8982 197.485L41.6852 194.995L44.9527 190.323L44.2249 188.83L40.7781 186.813L39.8078 184.822C39.4197 184.025 36.8546 182.975 35.6206 182.55L32.2244 175.581L28.2419 177.521L26.0586 173.041C25.6704 172.244 20.9608 171.008 18.6546 170.489L16.6633 171.459M16.6633 171.459C18.2563 170.683 19.667 168.353 20.1733 167.284L22.4577 161.859L21.2448 159.37C19.9939 160.596 17.5968 162.503 18.0153 160.328C18.4338 158.152 18.7254 155.464 18.8189 154.392L18.6396 147.703C19.1458 146.635 19.5634 144.542 17.184 144.716C14.8046 144.89 11.4352 141.768 10.0479 140.185C7.80983 141.07 3.48685 142.397 4.09939 140.62C4.86506 138.399 3.89472 136.407 4.64777 135.424C7.8338 133.872 10.2813 133.5 11.1067 133.509L13.6085 131.058C12.8681 130.802 12.0357 129.853 14.6294 128.096C17.2231 126.339 19.0626 122.445 19.6581 120.717L17.96 117.233C19.0533 115.262 21.5387 111.177 22.7335 110.594C23.9283 110.012 23.265 107.05 22.7841 105.641L21.5711 103.152C20.669 102.565 18.418 101.486 16.6309 101.864C11.6907 100.575 7.77138 96.3244 9.26482 95.5966L16.2342 92.2004L12.3529 84.2354C13.255 84.8225 14.9162 85.4504 14.3441 83.265C13.772 81.0797 12.1651 78.372 11.4331 77.2913L8.76465 71.8153L11.2537 70.6024L7.37235 62.6373L9.41434 56.714L7.95882 53.7271L8.25198 49.2721L-1.45146 29.3594C-1.53233 29.1935 -2.43193 28.3587 -5.38342 26.3472C-8.33491 24.3358 -11.6942 21.8248 -13.0049 20.8208L-17.1289 12.3579L-15.6353 11.6301L-21.9806 2.40159M16.6633 171.459L13.9948 165.983L12.5014 166.711L7.56116 165.422L4.5869 165.639L3.61656 163.648L-0.403891 169.303L-2.88033 169.278L-7.06751 167.006L-6.51912 161.811C-6.75749 160.9 -7.48441 159.324 -8.4851 160.305C-9.73596 161.53 -12.9528 161.25 -12.225 162.743C-11.6428 163.938 -12.8248 164.884 -13.4885 165.207L-16.4754 166.663L-20.1522 162.91L-19.9601 168.361L-25.2315 175.242C-26.4781 176.054 -28.8718 177.632 -28.4736 177.438C-28.0753 177.243 -28.4946 179.501 -28.754 180.654L-31.243 181.867L-31.5236 185.084L-33.5148 186.054L-36.9869 186.514L-40.2164 187.472L-43.4585 189.668L-45.6797 188.902L-46.1649 187.907" stroke="#D2D2D2" stroke-width="0.5"/>
</g>
<mask id="mask2_2693_10202" style="mask-type:alpha" maskUnits="userSpaceOnUse" x="230" y="0" width="297" height="413">
<path fill-rule="evenodd" clip-rule="evenodd" d="M312.378 210.433L314.004 208.806L311.798 207.504L317.081 205.728L317.087 205.722L316.031 202.582L317.484 198.388L320.865 197.251L325.824 192.29L325.482 187.664L325.331 183.675L325.015 179.299L318.582 180.766L316.44 182.909L312.175 182.483L311.748 178.218L315.808 174.156L317.408 167.864L314.22 160.84L316.25 158.809L320.515 159.235L320.084 154.974L317.738 152.629L317.537 148.137L321.486 144.187L320.917 139.788L325.093 135.61L324.662 131.349L330.753 125.256L335.018 125.682L339.421 126.246L334.591 121.418L338.855 121.843L342.801 117.896L340.455 115.551L350.383 105.619L354.759 105.934L356.675 104.018L352.413 103.588L348.037 103.274L351.982 99.3272L349.636 96.982L349.071 92.5795L369.262 72.3807L370.753 66.1965L374.272 57.9851L396.155 36.0939L402.45 34.4886L410.772 30.8562L417.432 29.1621L423.296 23.2958L429.479 21.8022L429.907 26.0671L419.979 35.999L420.294 40.3751L422.325 38.3441L422.778 42.8583L425.329 49.6917L429.501 45.5179L428.869 36.7652L430.334 30.3317L432.253 28.4122L434.737 30.8954L439.002 31.3215L437.511 37.5054L440.587 44.641L441.014 48.9056L442.617 42.61L441.348 33.6667L440.917 29.4057L452.876 17.4428L450.53 15.0973L458.539 7.08478L456.055 4.60166L460.001 0.654848L464.403 1.21855L469.096 5.90921L465.578 14.1206L466.192 19.0263L464.589 25.3218L466.623 23.2872L466.935 27.667L465.02 29.5828L467.367 31.9283L467.932 36.3309L463.983 40.2813L468.399 44.696L468.968 49.0949L469.169 53.5863L467.138 55.6173L471.831 60.308L477.921 54.2149L480.405 56.6981L486.701 55.0931L489.047 57.4383L489.501 61.9524L481.491 69.9649L483.837 72.3104L488.013 68.1331L494.62 70.9076L499.451 75.7363L495.39 79.7984L497.736 82.1435L502.228 82.3427L504.143 80.4269L504.988 85.1017L502.842 87.2481L505.188 89.5932L505.504 93.9697L505.659 97.9547L503.74 99.8741L499.752 99.7243L497.722 101.755L501.822 101.793L503.74 99.8741L510.489 102.783L512.835 105.129L508.998 108.967L504.622 108.653L497.873 105.744L495.958 107.66L498.442 110.143L508.998 108.967L517.666 109.957L524.273 112.732L526.757 115.215L524.842 117.131L518.52 118.486L514.144 118.172L510.31 122.007L510.511 126.499L517.487 129.181L525.269 121.395L525.697 125.66L524.094 131.956L522.517 138.501L518.773 146.939L516.857 148.855L515.255 155.151L507.245 163.164L512.075 167.992L510.156 169.911L510.472 174.288L510.903 178.549L513.663 181.308L511.745 183.227L509.642 189.47L505.805 193.309L503.735 191.24L501.82 193.155L506.236 197.57L506.552 201.946L500.573 207.928L510.095 217.447L506.146 221.398L510.976 226.226L508.834 228.369L511.18 230.714L518.153 233.4L516.011 235.542L520.703 240.233L521.157 244.747L519.238 246.666L516.754 244.183L514.835 246.103L517.319 248.586L512.92 248.019L506.197 245.359L496.269 255.291L491.439 250.462L487.174 250.036L478.172 249.382L473.907 248.956L471.561 246.611L473.48 244.691L471.133 242.346L467.299 246.181L464.815 243.698L462.785 245.729L457.117 243.353L457.468 243.76L459.645 250.234L454.201 252.064L455.258 255.208L459.192 257.386L461.759 256.523L460.435 261.085L457.559 262.052L458.616 265.196L456.951 269.256L455.316 272.894L452.744 273.759L449.238 271.849L446.516 272.764L450.171 274.623L452.744 273.759L457.493 279.368L458.55 282.512L453.405 284.241L449.626 282.012L444.877 276.403L442.309 277.267L443.428 280.596L453.405 284.241L460.726 288.986L465.408 294.411L466.527 297.74L463.96 298.604L457.695 297.004L453.916 294.775L448.776 296.503L446.957 300.614L452.01 306.121L462.444 302.613L460.929 306.622L456.692 311.546L452.367 316.706L445.258 322.596L442.69 323.459L438.453 328.384L427.714 331.994L429.89 338.467L427.318 339.332L425.653 343.392L424.142 347.399L425.386 351.099L422.814 351.963L418.152 356.618L413.007 358.348L412.075 355.574L409.507 356.437L411.497 362.356L409.832 366.415L401.816 369.11L406.106 381.873L400.812 383.653L402.988 390.127L400.116 391.092L401.173 394.236L406.222 399.745L403.35 400.71L405.464 406.999L403.862 411.243L401.289 412.108L400.17 408.779L397.597 409.644L398.716 412.973L395.03 410.507L390.193 405.133L376.882 409.609L374.706 403.135L371.076 400.855L363.306 396.263L359.676 393.983L358.619 390.839L361.192 389.974L360.134 386.829L354.994 388.557L353.875 385.228L351.153 386.143L346.466 380.719L342.176 367.957L345.294 359.703L344.237 356.559L346.804 355.695L345.747 352.551L347.2 348.357L348.112 341.051L334.651 345.576L329.902 339.967L332.475 339.103L336.167 341.567L341.456 339.789L339.28 333.315L332.933 331.949L329.303 329.67L330.361 332.814L327.788 333.679L326.273 337.688L322.494 335.459L320.317 328.985L323.039 328.07L321.982 324.926L318.203 322.696L315.094 313.448L307.349 308.435L302.667 303.01L293.444 302.611L285.972 297.917L272.661 302.392L271.151 306.4L268.429 307.315L267.372 304.171L264.799 305.036L265.856 308.18L260.412 310.01L256.633 307.781L254.06 308.646L253.003 305.502L255.576 304.637L254.519 301.492L244.084 305L242.965 301.671L253.399 298.163L252.342 295.019L260.508 292.273L259.451 289.129L238.278 296.247L230.657 291.604L232.173 287.594L240.339 284.849L241.849 280.842L252.289 277.332L254.041 273.037L255.681 269.398L257.346 265.338L250.932 263.789L248.06 264.755L244.431 262.475L245.946 258.466L251.39 256.635L255.623 251.713L255.895 244.004L258.617 243.089L262.246 245.368L263.757 241.361L262.7 238.217L264.519 234.105L269.813 232.325L271.262 228.132L276.86 226.25L278.371 222.243L286.537 219.497L290.167 221.777L293.859 224.241L291.682 217.768L295.312 220.047L300.601 218.268L299.544 215.124L312.414 210.797L312.378 210.433ZM443.424 222.314L445.34 220.399L442.994 218.053L442.744 216.111L442.386 216.921L439.664 217.836L441.778 224.125L444.366 223.255L443.424 222.314ZM382.366 192.863L380.191 193.829L381.573 194.751L383.52 193.347L382.366 192.863ZM449.241 236.027L451.861 238.646L447.188 240.217L446.131 237.072L449.241 236.027ZM404.844 60.7991L410.37 50.3035L400.441 60.2354L404.844 60.7991Z" fill="black"/>
</mask>
<g mask="url(#mask2_2693_10202)">
<path fill-rule="evenodd" clip-rule="evenodd" d="M312.378 210.433L314.004 208.806L311.798 207.504L317.081 205.728L317.087 205.722L316.031 202.582L317.484 198.388L320.865 197.251L325.824 192.29L325.482 187.664L325.331 183.675L325.015 179.299L318.582 180.766L316.44 182.909L312.175 182.483L311.748 178.218L315.808 174.156L317.408 167.864L314.22 160.84L316.25 158.809L320.515 159.235L320.084 154.974L317.738 152.629L317.537 148.137L321.486 144.187L320.917 139.788L325.093 135.61L324.662 131.349L330.753 125.256L335.018 125.682L339.421 126.246L334.591 121.418L338.855 121.843L342.801 117.896L340.455 115.551L350.383 105.619L354.759 105.934L356.675 104.018L352.413 103.588L348.037 103.274L351.982 99.3272L349.636 96.982L349.071 92.5795L369.262 72.3807L370.753 66.1965L374.272 57.9851L396.155 36.0939L402.45 34.4886L410.772 30.8562L417.432 29.1621L423.296 23.2958L429.479 21.8022L429.907 26.0671L419.979 35.999L420.294 40.3751L422.325 38.3441L422.778 42.8583L425.329 49.6917L429.501 45.5179L428.869 36.7652L430.334 30.3317L432.253 28.4122L434.737 30.8954L439.002 31.3215L437.511 37.5054L440.587 44.641L441.014 48.9056L442.617 42.61L441.348 33.6667L440.917 29.4057L452.876 17.4428L450.53 15.0973L458.539 7.08478L456.055 4.60166L460.001 0.654848L464.403 1.21855L469.096 5.90921L465.578 14.1206L466.192 19.0263L464.589 25.3218L466.623 23.2872L466.935 27.667L465.02 29.5828L467.367 31.9283L467.932 36.3309L463.983 40.2813L468.399 44.696L468.968 49.0949L469.169 53.5863L467.138 55.6173L471.831 60.308L477.921 54.2149L480.405 56.6981L486.701 55.0931L489.047 57.4383L489.501 61.9524L481.491 69.9649L483.837 72.3104L488.013 68.1331L494.62 70.9076L499.451 75.7363L495.39 79.7984L497.736 82.1435L502.228 82.3427L504.143 80.4269L504.988 85.1017L502.842 87.2481L505.188 89.5932L505.504 93.9697L505.659 97.9547L503.74 99.8741L499.752 99.7243L497.722 101.755L501.822 101.793L503.74 99.8741L510.489 102.783L512.835 105.129L508.998 108.967L504.622 108.653L497.873 105.744L495.958 107.66L498.442 110.143L508.998 108.967L517.666 109.957L524.273 112.732L526.757 115.215L524.842 117.131L518.52 118.486L514.144 118.172L510.31 122.007L510.511 126.499L517.487 129.181L525.269 121.395L525.697 125.66L524.094 131.956L522.517 138.501L518.773 146.939L516.857 148.855L515.255 155.151L507.245 163.164L512.075 167.992L510.156 169.911L510.472 174.288L510.903 178.549L513.663 181.308L511.745 183.227L509.642 189.47L505.805 193.309L503.735 191.24L501.82 193.155L506.236 197.57L506.552 201.946L500.573 207.928L510.095 217.447L506.146 221.398L510.976 226.226L508.834 228.369L511.18 230.714L518.153 233.4L516.011 235.542L520.703 240.233L521.157 244.747L519.238 246.666L516.754 244.183L514.835 246.103L517.319 248.586L512.92 248.019L506.197 245.359L496.269 255.291L491.439 250.462L487.174 250.036L478.172 249.382L473.907 248.956L471.561 246.611L473.48 244.691L471.133 242.346L467.299 246.181L464.815 243.698L462.785 245.729L457.117 243.353L457.468 243.76L459.645 250.234L454.201 252.064L455.258 255.208L459.192 257.386L461.759 256.523L460.435 261.085L457.559 262.052L458.616 265.196L456.951 269.256L455.316 272.894L452.744 273.759L449.238 271.849L446.516 272.764L450.171 274.623L452.744 273.759L457.493 279.368L458.55 282.512L453.405 284.241L449.626 282.012L444.877 276.403L442.309 277.267L443.428 280.596L453.405 284.241L460.726 288.986L465.408 294.411L466.527 297.74L463.96 298.604L457.695 297.004L453.916 294.775L448.776 296.503L446.957 300.614L452.01 306.121L462.444 302.613L460.929 306.622L456.692 311.546L452.367 316.706L445.258 322.596L442.69 323.459L438.453 328.384L427.714 331.994L429.89 338.467L427.318 339.332L425.653 343.392L424.142 347.399L425.386 351.099L422.814 351.963L418.152 356.618L413.007 358.348L412.075 355.574L409.507 356.437L411.497 362.356L409.832 366.415L401.816 369.11L406.106 381.873L400.812 383.653L402.988 390.127L400.116 391.092L401.173 394.236L406.222 399.745L403.35 400.71L405.464 406.999L403.862 411.243L401.289 412.108L400.17 408.779L397.597 409.644L398.716 412.973L395.03 410.507L390.193 405.133L376.882 409.609L374.706 403.135L371.076 400.855L363.306 396.263L359.676 393.983L358.619 390.839L361.192 389.974L360.134 386.829L354.994 388.557L353.875 385.228L351.153 386.143L346.466 380.719L342.176 367.957L345.294 359.703L344.237 356.559L346.804 355.695L345.747 352.551L347.2 348.357L348.112 341.051L334.651 345.576L329.902 339.967L332.475 339.103L336.167 341.567L341.456 339.789L339.28 333.315L332.933 331.949L329.303 329.67L330.361 332.814L327.788 333.679L326.273 337.688L322.494 335.459L320.317 328.985L323.039 328.07L321.982 324.926L318.203 322.696L315.094 313.448L307.349 308.435L302.667 303.01L293.444 302.611L285.972 297.917L272.661 302.392L271.151 306.4L268.429 307.315L267.372 304.171L264.799 305.036L265.856 308.18L260.412 310.01L256.633 307.781L254.06 308.646L253.003 305.502L255.576 304.637L254.519 301.492L244.084 305L242.965 301.671L253.399 298.163L252.342 295.019L260.508 292.273L259.451 289.129L238.278 296.247L230.657 291.604L232.173 287.594L240.339 284.849L241.849 280.842L252.289 277.332L254.041 273.037L255.681 269.398L257.346 265.338L250.932 263.789L248.06 264.755L244.431 262.475L245.946 258.466L251.39 256.635L255.623 251.713L255.895 244.004L258.617 243.089L262.246 245.368L263.757 241.361L262.7 238.217L264.519 234.105L269.813 232.325L271.262 228.132L276.86 226.25L278.371 222.243L286.537 219.497L290.167 221.777L293.859 224.241L291.682 217.768L295.312 220.047L300.601 218.268L299.544 215.124L312.414 210.797L312.378 210.433ZM443.424 222.314L445.34 220.399L442.994 218.053L442.744 216.111L442.386 216.921L439.664 217.836L441.778 224.125L444.366 223.255L443.424 222.314ZM382.366 192.863L380.191 193.829L381.573 194.751L383.52 193.347L382.366 192.863ZM449.241 236.027L451.861 238.646L447.188 240.217L446.131 237.072L449.241 236.027ZM404.844 60.7991L410.37 50.3035L400.441 60.2354L404.844 60.7991Z" fill="url(#paint2_linear_2693_10202)"/>
<path d="M255.868 176.948L260.895 169.579L263.78 171.054C264.059 169.928 264.773 168.059 265.559 168.72M265.559 168.72C265.64 168.788 265.722 168.883 265.805 169.01M265.559 168.72L265.805 169.01M265.559 168.72L263.709 166.538L263.398 163.86L264.064 157.902C264.511 157.85 265.214 157.678 264.459 157.404C263.703 157.13 263.307 155.276 263.204 154.383L262.136 149.078L263.32 147.584L264.95 146.037C265.207 144.349 265.898 140.951 266.612 140.868C267.327 140.785 268.592 139.734 269.135 139.219C269.198 138.457 269.412 136.925 269.769 136.883C270.126 136.842 272.264 136.292 273.288 136.023C273.368 135.41 273.706 134.165 274.42 134.082L276.652 133.823C277.724 133.699 279.41 132.9 280.12 132.516L279.861 130.284L276.29 130.698L274.453 130.459L273.489 126.047L272.783 123.867L272.919 121.137C273.051 120.971 273.503 120.707 274.258 120.982C275.014 121.256 276.095 121.221 276.542 121.169C276.805 120.837 277.4 119.984 277.674 119.228C278.017 118.284 279.595 116.291 281.038 117.029C282.481 117.766 282.481 117.766 282.875 117.268C283.191 116.869 284.274 112.431 284.777 110.262L288.089 107.616L289.376 107.014L291.006 105.468C291.55 104.952 292.437 103.764 291.64 103.132C290.644 102.343 290.728 99.1667 292.462 98.5133C293.849 97.9905 294.722 97.1956 294.985 96.8635L296.22 95.8154C296.781 95.4488 297.892 94.6263 297.851 94.2692C297.809 93.9121 296.401 92.1754 295.703 91.3517L294.053 88.8287C293.773 89.012 293.191 89.2001 293.108 88.4859C293.025 87.7717 294.092 86.5623 294.635 86.0469L295.974 85.8916L297.21 84.8436C297.438 84.2139 297.985 82.9442 298.342 82.9027L302.805 82.385C303.252 82.3332 303.646 81.8351 304.487 81.2852C305.16 80.8452 306.187 80.3341 306.616 80.1336M265.805 169.01C266.685 170.355 269.389 171.308 270.631 171.616L272.947 168.181C272.981 168.479 273.655 168.823 276.071 167.819C278.488 166.815 280.602 163.976 281.357 162.682L285.374 162.216L285.633 164.448L287.865 164.189L290.563 167.948L291.902 167.792L294.373 165.696L296.158 165.489C296.873 165.406 298.366 163.725 299.024 162.895L305.273 162.17L304.859 158.599L308.877 158.133C309.591 158.05 311.805 154.778 312.823 153.152L312.616 151.366M312.616 151.366C312.781 152.794 314.186 154.501 314.867 155.176L318.406 158.385L320.638 158.126C320.036 156.839 319.221 154.49 320.773 155.396C322.326 156.302 324.306 157.248 325.101 157.608L330.27 159.271C330.952 159.946 332.442 160.829 332.949 158.96C333.456 157.092 336.752 155.352 338.337 154.716C338.262 152.765 338.41 149.098 339.605 150.045C341.1 151.229 342.885 151.022 343.435 151.863C343.766 154.72 343.392 156.693 343.164 157.323L344.367 159.898C344.762 159.4 345.713 159.018 346.36 161.476C347.007 163.934 349.493 166.391 350.655 167.311L353.78 166.949C354.994 168.316 357.453 171.318 357.578 172.389C357.702 173.461 360.148 173.75 361.356 173.761L363.588 173.502C364.28 172.969 365.712 171.536 365.904 170.067C368.219 166.631 372.528 164.774 372.683 166.114L373.408 172.363L380.55 171.534C379.858 172.067 378.93 173.17 380.757 173.32C382.584 173.47 385.089 172.968 386.114 172.699L391.024 172.129L391.283 174.361L398.425 173.533L402.41 176.69L405.088 176.379L408.42 177.802L426.275 175.731C426.424 175.714 427.305 175.25 429.639 173.532C431.973 171.813 434.799 169.917 435.92 169.184L443.509 168.304L443.664 169.643L452.436 167.268M312.616 151.366L317.526 150.797L317.37 149.457L319.686 146.022L320.32 143.687L322.106 143.48L318.858 138.88L319.544 136.991L322.409 134.397L326.239 136.215C327 136.277 328.403 136.145 327.921 135.115C327.319 133.827 328.4 131.44 327.061 131.595C325.989 131.72 325.583 130.56 325.514 129.965L325.204 127.287L329.066 125.482L324.841 124.162L320.992 118.276C320.705 117.102 320.142 114.846 320.183 115.203C320.225 115.56 318.609 114.631 317.796 114.123L317.537 111.891L315.15 110.81L314.943 109.025L315.525 106.243L315.661 103.513L314.852 100.44L316.036 98.9458L316.928 98.8422M363.964 355.981L356.361 351.317L357.695 348.364C356.557 348.139 354.655 347.517 355.277 346.7M355.277 346.7C355.341 346.615 355.433 346.529 355.555 346.44M355.277 346.7L355.555 346.44M355.277 346.7L353.188 348.653L350.528 349.093L344.544 348.716C344.471 348.272 344.265 347.578 344.028 348.346C343.79 349.114 341.957 349.599 341.071 349.746L335.824 351.069L334.274 349.958L332.651 348.405C330.952 348.23 327.525 347.704 327.407 346.994C327.29 346.285 326.179 345.072 325.638 344.554C324.874 344.529 323.333 344.389 323.274 344.034C323.216 343.679 322.563 341.571 322.244 340.56C321.629 340.51 320.368 340.233 320.251 339.524L319.885 337.307C319.709 336.243 318.829 334.597 318.411 333.907L316.195 334.273L316.781 337.82L316.631 339.667L312.271 340.843L310.127 341.653L307.394 341.649C307.222 341.526 306.937 341.087 307.174 340.319C307.412 339.551 307.324 338.473 307.251 338.029C306.907 337.783 306.026 337.23 305.258 336.992C304.298 336.696 302.231 335.215 302.898 333.739C303.565 332.262 303.565 332.262 303.048 331.892C302.635 331.596 298.149 330.728 295.958 330.331L293.155 327.151L292.492 325.894L290.868 324.341C290.327 323.823 289.097 322.994 288.505 323.821C287.765 324.854 284.588 324.924 283.852 323.224C283.262 321.864 282.426 321.03 282.082 320.783L280.975 319.6C280.582 319.058 279.707 317.988 279.352 318.046C278.997 318.105 277.331 319.595 276.542 320.333L274.101 322.103C274.298 322.374 274.514 322.946 273.805 323.063C273.095 323.18 271.836 322.174 271.295 321.656L271.075 320.326L269.968 319.142C269.328 318.945 268.034 318.46 267.975 318.106L267.242 313.672C267.169 313.229 266.652 312.859 266.062 312.045C265.59 311.395 265.03 310.394 264.809 309.975M355.555 346.44C356.856 345.496 357.677 342.749 357.925 341.493L354.382 339.346C354.677 339.298 354.989 338.608 353.869 336.243C352.749 333.877 349.811 331.904 348.482 331.212L347.823 327.222L350.039 326.856L349.673 324.639L353.297 321.763L353.077 320.432L350.864 318.066L350.57 316.292C350.453 315.583 348.702 314.172 347.84 313.555L346.814 307.348L343.267 307.935L342.608 303.945C342.491 303.235 339.115 301.182 337.441 300.244L335.668 300.537M335.668 300.537C337.087 300.303 338.724 298.817 339.365 298.104L342.399 294.414L342.032 292.198C340.775 292.861 338.469 293.789 339.299 292.194C340.128 290.599 340.978 288.576 341.299 287.764L342.71 282.521C343.351 281.807 344.16 280.277 342.27 279.861C340.379 279.444 338.482 276.236 337.77 274.684C335.824 274.853 332.155 274.883 333.043 273.643C334.154 272.093 333.86 270.32 334.674 269.73C337.511 269.261 339.5 269.539 340.14 269.737L342.654 268.41C342.137 268.04 341.71 267.109 344.134 266.344C346.558 265.579 348.891 262.976 349.755 261.771L349.242 258.667C350.548 257.389 353.428 254.787 354.492 254.611C355.556 254.435 355.727 251.978 355.679 250.771L355.313 248.554C354.747 247.889 353.247 246.527 351.769 246.407C348.226 244.26 346.163 240.047 347.493 239.827L353.7 238.801L352.527 231.707C353.093 232.373 354.239 233.246 354.301 231.414C354.362 229.582 353.74 227.104 353.421 226.094L352.615 221.217L354.831 220.85L353.659 213.757L356.619 209.623L356.179 206.963L357.44 203.567L354.508 185.833C354.483 185.685 353.977 184.827 352.148 182.579C350.319 180.331 348.288 177.6 347.502 176.515L346.255 168.978L347.586 168.758L344.79 160.111M335.668 300.537L334.862 295.66L333.532 295.88L329.988 293.733L327.625 293.213L327.332 291.44L322.895 294.906L320.975 294.313L318.245 291.576L319.875 287.662C319.901 286.899 319.701 285.505 318.695 286.036C317.439 286.699 315.002 285.735 315.222 287.065C315.398 288.129 314.259 288.591 313.668 288.689L311.008 289.128L309.018 285.358L307.905 289.641L302.211 293.771C301.053 294.114 298.826 294.786 299.181 294.728C299.536 294.669 298.686 296.328 298.217 297.164L296.001 297.531L295.037 299.967L293.264 300.261L290.457 299.814L287.724 299.81L284.693 300.766L283.144 299.656L282.997 298.77" stroke="#D2D2D2" stroke-width="0.5"/>
</g>
<path d="M40 180.895C96.5 161.895 258.5 161.895 324 222.395" stroke="#626D8A" stroke-dasharray="2 2"/>
<path d="M40 180.895C104 170.395 288.5 206.895 328.5 280.895" stroke="#626D8A" stroke-dasharray="2 2"/>
<g filter="url(#filter0_b_2693_10202)">
<circle cx="43" cy="413.395" r="23" fill="#3A64FA" fill-opacity="0.05"/>
</g>
<path d="M42.5 413.395C70.5 340.895 174 204.395 324 222.395" stroke="#626D8A" stroke-dasharray="2 2"/>
<g filter="url(#filter1_b_2693_10202)">
<circle cx="39" cy="181.395" r="23" fill="#3A64FA" fill-opacity="0.05"/>
</g>
<g filter="url(#filter2_b_2693_10202)">
<circle cx="43" cy="413.395" r="16" fill="#3A64FA" fill-opacity="0.1"/>
</g>
<path d="M450.5 101.395C408.5 101.395 321.5 158.395 324 222.395" stroke="#626D8A" stroke-dasharray="2 2"/>
<g filter="url(#filter3_b_2693_10202)">
<circle cx="39" cy="181.395" r="16" fill="#3A64FA" fill-opacity="0.1"/>
</g>
<path d="M481 280.395C485.5 203.395 353 181.895 324 222.395" stroke="#626D8A" stroke-dasharray="2 2"/>
<circle cx="39" cy="181.395" r="3.5" fill="#573CFF" stroke="#6D8DFF"/>
<g filter="url(#filter4_b_2693_10202)">
<circle cx="328" cy="282.395" r="23" fill="#3A64FA" fill-opacity="0.05"/>
</g>
<g filter="url(#filter5_b_2693_10202)">
<circle cx="328" cy="282.395" r="16" fill="#3A64FA" fill-opacity="0.1"/>
</g>
<circle cx="43" cy="413.395" r="3.5" fill="#573CFF" stroke="#6D8DFF"/>
<circle cx="328" cy="282.395" r="3.5" fill="#573CFF" stroke="#6D8DFF"/>
<path d="M320.674 208.134V208.4L320.927 208.484L322.891 209.139V210.721H318.087C316.658 210.721 315.5 211.879 315.5 213.308V216.75C315.5 217.937 316.308 218.972 317.46 219.26L319.935 219.879V223.655C319.935 224.268 320.431 224.764 321.043 224.764H326.957C327.569 224.764 328.065 224.268 328.065 223.655V219.879L330.54 219.26C331.692 218.972 332.5 217.937 332.5 216.75V213.308C332.5 211.879 331.342 210.721 329.913 210.721H325.109V209.139L327.073 208.484L327.326 208.4V208.134V207.395V207.025H326.957H321.043H320.674V207.395V208.134ZM320.674 215.155H318.457V214.416H320.674V215.155ZM329.543 215.155H327.326V214.416H329.543V215.155ZM325.848 215.155H322.152V214.416H325.848V215.155Z" fill="#573CFF" stroke="white" stroke-width="0.73913"/>
<rect x="310" y="231.395" width="28" height="9" rx="1" fill="#573CFF"/>
<path d="M319.524 232.576H320.399V236.701C320.399 237.074 320.325 237.394 320.177 237.659C320.031 237.924 319.826 238.127 319.56 238.267C319.295 238.405 318.985 238.474 318.629 238.474C318.301 238.474 318.006 238.414 317.745 238.295C317.486 238.176 317.28 238.002 317.129 237.775C316.979 237.546 316.904 237.268 316.904 236.94H317.776C317.776 237.101 317.813 237.24 317.887 237.358C317.963 237.475 318.066 237.567 318.197 237.633C318.329 237.698 318.481 237.73 318.651 237.73C318.837 237.73 318.994 237.691 319.123 237.613C319.254 237.534 319.353 237.417 319.421 237.264C319.489 237.11 319.524 236.923 319.524 236.701V232.576ZM321.846 238.395V232.576H325.454V233.332H322.724V235.105H325.196V235.858H322.724V238.395H321.846ZM326.704 238.395V232.576H327.582V235.355H327.653L330.093 232.576H331.198L328.851 235.196L331.207 238.395H330.15L328.269 235.795L327.582 236.585V238.395H326.704Z" fill="white"/>
<path d="M75.5 416.441V416.801L75.8419 416.915L78.5 417.801V419.941H72C70.067 419.941 68.5 421.508 68.5 423.441V428.099C68.5 429.705 69.593 431.105 71.1511 431.494L74.5 432.331V437.441C74.5 438.269 75.1716 438.941 76 438.941H84C84.8284 438.941 85.5 438.269 85.5 437.441V432.331L88.8489 431.494C90.407 431.105 91.5 429.705 91.5 428.099V423.441C91.5 421.508 89.933 419.941 88 419.941H81.5V417.801L84.1581 416.915L84.5 416.801V416.441V415.441V414.941H84H76H75.5V415.441V416.441ZM75.5 425.941H72.5V424.941H75.5V425.941ZM87.5 425.941H84.5V424.941H87.5V425.941ZM82.5 425.941H77.5V424.941H82.5V425.941Z" fill="#898989" stroke="white"/>
<path d="M24.5 126.441V126.801L24.8419 126.915L27.5 127.801V129.941H21C19.067 129.941 17.5 131.508 17.5 133.441V138.099C17.5 139.705 18.593 141.105 20.1511 141.494L23.5 142.331V147.441C23.5 148.269 24.1716 148.941 25 148.941H33C33.8284 148.941 34.5 148.269 34.5 147.441V142.331L37.8489 141.494C39.407 141.105 40.5 139.705 40.5 138.099V133.441C40.5 131.508 38.933 129.941 37 129.941H30.5V127.801L33.1581 126.915L33.5 126.801V126.441V125.441V124.941H33H25H24.5V125.441V126.441ZM24.5 135.941H21.5V134.941H24.5V135.941ZM36.5 135.941H33.5V134.941H36.5V135.941ZM31.5 135.941H26.5V134.941H31.5V135.941Z" fill="#898989" stroke="white"/>
<defs>
<filter id="filter0_b_2693_10202" x="18" y="388.395" width="50" height="50" filterUnits="userSpaceOnUse" color-interpolation-filters="sRGB">
<feFlood flood-opacity="0" result="BackgroundImageFix"/>
<feGaussianBlur in="BackgroundImageFix" stdDeviation="1"/>
<feComposite in2="SourceAlpha" operator="in" result="effect1_backgroundBlur_2693_10202"/>
<feBlend mode="normal" in="SourceGraphic" in2="effect1_backgroundBlur_2693_10202" result="shape"/>
</filter>
<filter id="filter1_b_2693_10202" x="14" y="156.395" width="50" height="50" filterUnits="userSpaceOnUse" color-interpolation-filters="sRGB">
<feFlood flood-opacity="0" result="BackgroundImageFix"/>
<feGaussianBlur in="BackgroundImageFix" stdDeviation="1"/>
<feComposite in2="SourceAlpha" operator="in" result="effect1_backgroundBlur_2693_10202"/>
<feBlend mode="normal" in="SourceGraphic" in2="effect1_backgroundBlur_2693_10202" result="shape"/>
</filter>
<filter id="filter2_b_2693_10202" x="24" y="394.395" width="38" height="38" filterUnits="userSpaceOnUse" color-interpolation-filters="sRGB">
<feFlood flood-opacity="0" result="BackgroundImageFix"/>
<feGaussianBlur in="BackgroundImageFix" stdDeviation="1.5"/>
<feComposite in2="SourceAlpha" operator="in" result="effect1_backgroundBlur_2693_10202"/>
<feBlend mode="normal" in="SourceGraphic" in2="effect1_backgroundBlur_2693_10202" result="shape"/>
</filter>
<filter id="filter3_b_2693_10202" x="20" y="162.395" width="38" height="38" filterUnits="userSpaceOnUse" color-interpolation-filters="sRGB">
<feFlood flood-opacity="0" result="BackgroundImageFix"/>
<feGaussianBlur in="BackgroundImageFix" stdDeviation="1.5"/>
<feComposite in2="SourceAlpha" operator="in" result="effect1_backgroundBlur_2693_10202"/>
<feBlend mode="normal" in="SourceGraphic" in2="effect1_backgroundBlur_2693_10202" result="shape"/>
</filter>
<filter id="filter4_b_2693_10202" x="303" y="257.395" width="50" height="50" filterUnits="userSpaceOnUse" color-interpolation-filters="sRGB">
<feFlood flood-opacity="0" result="BackgroundImageFix"/>
<feGaussianBlur in="BackgroundImageFix" stdDeviation="1"/>
<feComposite in2="SourceAlpha" operator="in" result="effect1_backgroundBlur_2693_10202"/>
<feBlend mode="normal" in="SourceGraphic" in2="effect1_backgroundBlur_2693_10202" result="shape"/>
</filter>
<filter id="filter5_b_2693_10202" x="309" y="263.395" width="38" height="38" filterUnits="userSpaceOnUse" color-interpolation-filters="sRGB">
<feFlood flood-opacity="0" result="BackgroundImageFix"/>
<feGaussianBlur in="BackgroundImageFix" stdDeviation="1.5"/>
<feComposite in2="SourceAlpha" operator="in" result="effect1_backgroundBlur_2693_10202"/>
<feBlend mode="normal" in="SourceGraphic" in2="effect1_backgroundBlur_2693_10202" result="shape"/>
</filter>
<linearGradient id="paint0_linear_2693_10202" x1="-7.06243" y1="513.178" x2="79.2932" y2="398.119" gradientUnits="userSpaceOnUse">
<stop stop-color="#F5F5F5" stop-opacity="0"/>
<stop offset="1" stop-color="#EAEAEA"/>
</linearGradient>
<linearGradient id="paint1_linear_2693_10202" x1="-7" y1="318.895" x2="23.792" y2="145.009" gradientUnits="userSpaceOnUse">
<stop stop-color="#F5F5F5" stop-opacity="0"/>
<stop offset="1" stop-color="#EAEAEA"/>
</linearGradient>
<linearGradient id="paint2_linear_2693_10202" x1="418.5" y1="364.395" x2="269.887" y2="153.175" gradientUnits="userSpaceOnUse">
<stop stop-color="#F5F5F5" stop-opacity="0"/>
<stop offset="1" stop-color="#EAEAEA"/>
</linearGradient>
</defs>
</svg>
