<svg width="40" height="40" viewBox="0 0 40 40" fill="none" xmlns="http://www.w3.org/2000/svg">
    <g clip-path="url(#clip0_1128_27496)">
        <mask id="path-1-outside-1_1128_27496" maskUnits="userSpaceOnUse" x="-0.572749" y="-0.572791" width="40.7286" height="40.7286" fill="black">
            <rect fill="white" x="-0.572749" y="-0.572791" width="40.7286" height="40.7286"/>
            <path d="M15.3256 25.8139C14.0164 26.8768 12.5268 27.6955 10.9277 28.2309L10.2358 28.4625C9.85661 28.5895 9.4385 28.4647 9.19087 28.1507C8.94324 27.8366 8.9194 27.401 9.1313 27.0618L9.51789 26.443C10.4114 25.0129 11.5549 23.7552 12.8937 22.73L15.2952 20.891L14.2825 16.4315L13.8777 16.8138L13.328 17.2473C13.1112 17.4183 12.7968 17.3811 12.6258 17.1643L11.697 15.9864C11.526 15.7696 11.5632 15.4552 11.78 15.2842L12.3297 14.8508L13.9118 13.8172L13.2872 9.16083L13.2785 7.85792C13.278 7.78077 13.3132 7.70771 13.3737 7.65994L13.773 7.34509C13.9119 7.23558 14.1175 7.30096 14.1676 7.47058L14.4443 8.40759L16.5042 12.8522L17.1768 12.3572C17.2666 12.2911 17.3927 12.3082 17.4617 12.3957C17.5308 12.4833 17.518 12.6099 17.4327 12.6818L16.7085 13.2931L16.7136 13.3041L19.2451 17.8665L23.2517 14.7985C24.0988 14.1499 25.0334 13.6266 26.0266 13.2437L24.9585 9.42793C24.9476 9.38905 24.9611 9.34745 24.9928 9.32245L25.4024 8.99952C25.4607 8.95349 25.5472 8.98498 25.5622 9.05778L25.6427 9.44675L28.1046 12.5688L28.2972 12.5085C28.4207 12.4699 28.5513 12.483 28.6618 12.5394L30.252 11.4095C30.2954 11.3786 30.3554 11.3872 30.3884 11.4291L30.3944 11.4367C30.4274 11.4786 30.4218 11.5389 30.3817 11.574L28.9122 12.8568C28.9412 12.9775 28.9235 13.1075 28.8571 13.2186L28.7536 13.3918L31.2155 16.5139L31.575 16.6828C31.6423 16.7145 31.6527 16.8058 31.5944 16.8519L31.1848 17.1748C31.1531 17.1998 31.1095 17.2033 31.0742 17.1836L27.6127 15.2552C27.0088 16.1317 26.282 16.9185 25.4537 17.591L21.536 20.7718L25.3824 24.2974L25.3919 24.3049L26.1552 23.7431C26.245 23.677 26.3711 23.6941 26.4401 23.7816C26.5092 23.8692 26.4963 23.9958 26.4111 24.0677L25.7729 24.6064L29.6147 27.6458L30.4613 28.1335C30.6146 28.2218 30.6303 28.4369 30.4914 28.5464L30.0921 28.8613C30.0315 28.909 29.9523 28.9262 29.8774 28.9077L28.6124 28.5954L24.23 26.9023L22.8561 28.1997L22.3064 28.6332C22.0896 28.8042 21.7752 28.767 21.6042 28.5502L20.6754 27.3723C20.5044 27.1555 20.5416 26.8411 20.7584 26.6701L21.3081 26.2367L21.7742 25.9321L17.6738 23.9074L15.3256 25.8139Z"/>
        </mask>
        <path d="M15.3256 25.8139C14.0164 26.8768 12.5268 27.6955 10.9277 28.2309L10.2358 28.4625C9.85661 28.5895 9.4385 28.4647 9.19087 28.1507C8.94324 27.8366 8.9194 27.401 9.1313 27.0618L9.51789 26.443C10.4114 25.0129 11.5549 23.7552 12.8937 22.73L15.2952 20.891L14.2825 16.4315L13.8777 16.8138L13.328 17.2473C13.1112 17.4183 12.7968 17.3811 12.6258 17.1643L11.697 15.9864C11.526 15.7696 11.5632 15.4552 11.78 15.2842L12.3297 14.8508L13.9118 13.8172L13.2872 9.16083L13.2785 7.85792C13.278 7.78077 13.3132 7.70771 13.3737 7.65994L13.773 7.34509C13.9119 7.23558 14.1175 7.30096 14.1676 7.47058L14.4443 8.40759L16.5042 12.8522L17.1768 12.3572C17.2666 12.2911 17.3927 12.3082 17.4617 12.3957C17.5308 12.4833 17.518 12.6099 17.4327 12.6818L16.7085 13.2931L16.7136 13.3041L19.2451 17.8665L23.2517 14.7985C24.0988 14.1499 25.0334 13.6266 26.0266 13.2437L24.9585 9.42793C24.9476 9.38905 24.9611 9.34745 24.9928 9.32245L25.4024 8.99952C25.4607 8.95349 25.5472 8.98498 25.5622 9.05778L25.6427 9.44675L28.1046 12.5688L28.2972 12.5085C28.4207 12.4699 28.5513 12.483 28.6618 12.5394L30.252 11.4095C30.2954 11.3786 30.3554 11.3872 30.3884 11.4291L30.3944 11.4367C30.4274 11.4786 30.4218 11.5389 30.3817 11.574L28.9122 12.8568C28.9412 12.9775 28.9235 13.1075 28.8571 13.2186L28.7536 13.3918L31.2155 16.5139L31.575 16.6828C31.6423 16.7145 31.6527 16.8058 31.5944 16.8519L31.1848 17.1748C31.1531 17.1998 31.1095 17.2033 31.0742 17.1836L27.6127 15.2552C27.0088 16.1317 26.282 16.9185 25.4537 17.591L21.536 20.7718L25.3824 24.2974L25.3919 24.3049L26.1552 23.7431C26.245 23.677 26.3711 23.6941 26.4401 23.7816C26.5092 23.8692 26.4963 23.9958 26.4111 24.0677L25.7729 24.6064L29.6147 27.6458L30.4613 28.1335C30.6146 28.2218 30.6303 28.4369 30.4914 28.5464L30.0921 28.8613C30.0315 28.909 29.9523 28.9262 29.8774 28.9077L28.6124 28.5954L24.23 26.9023L22.8561 28.1997L22.3064 28.6332C22.0896 28.8042 21.7752 28.767 21.6042 28.5502L20.6754 27.3723C20.5044 27.1555 20.5416 26.8411 20.7584 26.6701L21.3081 26.2367L21.7742 25.9321L17.6738 23.9074L15.3256 25.8139Z" fill="#4A5CFF"/>
        <path d="M10.9277 28.2309L10.769 27.7567L10.769 27.7567L10.9277 28.2309ZM15.3256 25.8139L15.0104 25.4258L15.3256 25.8139ZM10.2358 28.4625L10.0771 27.9884L10.0771 27.9884L10.2358 28.4625ZM9.1313 27.0618L9.55535 27.3267L9.55535 27.3267L9.1313 27.0618ZM9.51789 26.443L9.09385 26.1781L9.51789 26.443ZM12.8937 22.73L13.1977 23.1269L12.8937 22.73ZM15.2952 20.891L15.5992 21.288L15.8538 21.093L15.7828 20.7803L15.2952 20.891ZM14.2825 16.4315L14.7701 16.3208L14.5761 15.4666L13.9392 16.068L14.2825 16.4315ZM13.8777 16.8138L14.1873 17.2065L14.2048 17.1927L14.221 17.1774L13.8777 16.8138ZM12.3297 14.8508L12.0562 14.4322L12.0376 14.4443L12.0201 14.4581L12.3297 14.8508ZM13.9118 13.8172L14.1852 14.2358L14.4493 14.0633L14.4073 13.7508L13.9118 13.8172ZM13.2872 9.16083L12.7873 9.16417L12.7875 9.19588L12.7917 9.2273L13.2872 9.16083ZM13.2785 7.85792L13.7785 7.85458L13.7785 7.85457L13.2785 7.85792ZM14.1676 7.47058L14.6471 7.32894L14.6471 7.32894L14.1676 7.47058ZM14.4443 8.40759L13.9648 8.54923L13.9752 8.58448L13.9907 8.61783L14.4443 8.40759ZM16.5042 12.8522L16.0505 13.0625L16.3078 13.6175L16.8005 13.2549L16.5042 12.8522ZM17.1768 12.3572L16.8805 11.9545L16.8805 11.9545L17.1768 12.3572ZM17.4327 12.6818L17.7552 13.0639L17.7552 13.0639L17.4327 12.6818ZM16.7085 13.2931L16.386 12.911L16.0944 13.1571L16.2549 13.5033L16.7085 13.2931ZM16.7136 13.3041L16.2599 13.5143L16.2676 13.5308L16.2764 13.5467L16.7136 13.3041ZM19.2451 17.8665L18.8079 18.1091L19.089 18.6158L19.5491 18.2635L19.2451 17.8665ZM23.2517 14.7985L23.5557 15.1955L23.2517 14.7985ZM26.0266 13.2437L26.2064 13.7102L26.6306 13.5467L26.5081 13.1089L26.0266 13.2437ZM24.9585 9.42793L25.44 9.29315L25.44 9.29313L24.9585 9.42793ZM25.6427 9.44675L25.1531 9.54808L25.177 9.66366L25.2501 9.75635L25.6427 9.44675ZM28.1046 12.5688L27.712 12.8784L27.9253 13.1489L28.254 13.046L28.1046 12.5688ZM28.2972 12.5085L28.4466 12.9857L28.4466 12.9857L28.2972 12.5085ZM28.6618 12.5394L28.4346 12.9847L28.7044 13.1224L28.9514 12.9469L28.6618 12.5394ZM30.252 11.4095L29.9624 11.0019L29.9624 11.0019L30.252 11.4095ZM30.3817 11.574L30.7105 11.9507L30.7105 11.9507L30.3817 11.574ZM28.9122 12.8568L28.5833 12.4802L28.3551 12.6794L28.4261 12.974L28.9122 12.8568ZM28.8571 13.2186L28.4279 12.9621L28.4279 12.9621L28.8571 13.2186ZM28.7536 13.3918L28.3244 13.1353L28.1477 13.4309L28.361 13.7014L28.7536 13.3918ZM31.2155 16.5139L30.8229 16.8235L30.896 16.9161L31.0028 16.9664L31.2155 16.5139ZM31.575 16.6828L31.3623 17.1353L31.3623 17.1353L31.575 16.6828ZM31.0742 17.1836L31.3176 16.7468L31.3176 16.7468L31.0742 17.1836ZM27.6127 15.2552L27.8561 14.8184L27.4589 14.5972L27.201 14.9715L27.6127 15.2552ZM25.4537 17.591L25.1386 17.2028L25.4537 17.591ZM21.536 20.7718L21.2209 20.3836L20.771 20.7488L21.1982 21.1403L21.536 20.7718ZM25.3824 24.2974L25.0445 24.6659L25.0579 24.6782L25.0721 24.6895L25.3824 24.2974ZM25.3919 24.3049L25.0816 24.697L25.3809 24.9337L25.6882 24.7076L25.3919 24.3049ZM26.1552 23.7431L25.8588 23.3404L25.8588 23.3404L26.1552 23.7431ZM26.4111 24.0677L26.7336 24.4498L26.7336 24.4498L26.4111 24.0677ZM25.7729 24.6064L25.4504 24.2243L24.9829 24.6189L25.4627 24.9985L25.7729 24.6064ZM29.6147 27.6458L29.3045 28.038L29.3333 28.0608L29.3652 28.0791L29.6147 27.6458ZM30.4613 28.1335L30.7109 27.7002L30.7109 27.7002L30.4613 28.1335ZM29.8774 28.9077L29.7575 29.3931L29.7575 29.3931L29.8774 28.9077ZM28.6124 28.5954L28.4322 29.0618L28.4618 29.0732L28.4926 29.0808L28.6124 28.5954ZM24.23 26.9023L24.4102 26.4359L24.116 26.3222L23.8867 26.5387L24.23 26.9023ZM22.8561 28.1997L23.1657 28.5924L23.1832 28.5786L23.1994 28.5633L22.8561 28.1997ZM21.3081 26.2367L21.0346 25.8181L21.016 25.8302L20.9985 25.844L21.3081 26.2367ZM21.7742 25.9321L22.0477 26.3507L22.7811 25.8716L21.9956 25.4838L21.7742 25.9321ZM17.6738 23.9074L17.8952 23.4591L17.6076 23.3171L17.3587 23.5193L17.6738 23.9074ZM11.0865 28.705C12.7424 28.1506 14.285 27.3028 15.6407 26.2021L15.0104 25.4258C13.7479 26.4508 12.3111 27.2404 10.769 27.7567L11.0865 28.705ZM10.3946 28.9366L11.0865 28.705L10.769 27.7567L10.0771 27.9884L10.3946 28.9366ZM8.79825 28.4603C9.17654 28.94 9.81526 29.1306 10.3946 28.9366L10.0771 27.9884C9.89796 28.0483 9.70046 27.9894 9.58348 27.8411L8.79825 28.4603ZM8.70726 26.7969C8.38356 27.315 8.41996 27.9805 8.79825 28.4603L9.58348 27.8411C9.46651 27.6927 9.45525 27.4869 9.55535 27.3267L8.70726 26.7969ZM9.09385 26.1781L8.70726 26.7969L9.55535 27.3267L9.94194 26.7079L9.09385 26.1781ZM12.5897 22.333C11.2033 23.3947 10.0191 24.6971 9.09385 26.1781L9.94194 26.7079C10.8036 25.3287 11.9065 24.1157 13.1977 23.1269L12.5897 22.333ZM14.9913 20.4941L12.5897 22.333L13.1977 23.1269L15.5992 21.288L14.9913 20.4941ZM13.7949 16.5423L14.8077 21.0018L15.7828 20.7803L14.7701 16.3208L13.7949 16.5423ZM14.221 17.1774L14.6258 16.7951L13.9392 16.068L13.5344 16.4503L14.221 17.1774ZM13.6376 17.6399L14.1873 17.2065L13.5681 16.4212L13.0184 16.8547L13.6376 17.6399ZM12.2332 17.4739C12.5752 17.9075 13.2039 17.9819 13.6376 17.6399L13.0184 16.8547L12.2332 17.4739ZM11.3044 16.296L12.2332 17.4739L13.0184 16.8547L12.0896 15.6768L11.3044 16.296ZM11.4704 14.8916C11.0367 15.2335 10.9624 15.8623 11.3044 16.296L12.0896 15.6768L11.4704 14.8916ZM12.0201 14.4581L11.4704 14.8916L12.0896 15.6768L12.6393 15.2434L12.0201 14.4581ZM13.6383 13.3986L12.0562 14.4322L12.6031 15.2693L14.1852 14.2358L13.6383 13.3986ZM12.7917 9.2273L13.4162 13.8837L14.4073 13.7508L13.7828 9.09437L12.7917 9.2273ZM12.7786 7.86126L12.7873 9.16417L13.7872 9.1575L13.7785 7.85458L12.7786 7.86126ZM13.0641 7.26732C12.8824 7.41063 12.777 7.62982 12.7786 7.86126L13.7785 7.85457C13.779 7.93172 13.7439 8.00479 13.6833 8.05255L13.0641 7.26732ZM13.4634 6.95248L13.0641 7.26732L13.6833 8.05255L14.0826 7.73771L13.4634 6.95248ZM14.6471 7.32894C14.4968 6.82008 13.8801 6.62393 13.4634 6.95248L14.0826 7.73771C13.9437 7.84723 13.7382 7.78184 13.688 7.61222L14.6471 7.32894ZM14.9239 8.26595L14.6471 7.32894L13.688 7.61222L13.9648 8.54923L14.9239 8.26595ZM16.9578 12.642L14.898 8.19735L13.9907 8.61783L16.0505 13.0625L16.9578 12.642ZM16.8805 11.9545L16.2078 12.4495L16.8005 13.2549L17.4732 12.7599L16.8805 11.9545ZM17.8544 12.0861C17.6183 11.7868 17.1875 11.7286 16.8805 11.9545L17.4732 12.7599C17.3458 12.8537 17.167 12.8295 17.0691 12.7053L17.8544 12.0861ZM17.7552 13.0639C18.0465 12.818 18.0904 12.3855 17.8544 12.0861L17.0691 12.7053C16.9712 12.5812 16.9894 12.4017 17.1102 12.2997L17.7552 13.0639ZM17.031 13.6752L17.7552 13.0639L17.1102 12.2997L16.386 12.911L17.031 13.6752ZM17.1672 13.0938L17.1622 13.0829L16.2549 13.5033L16.2599 13.5143L17.1672 13.0938ZM19.6823 17.6239L17.1508 13.0615L16.2764 13.5467L18.8079 18.1091L19.6823 17.6239ZM22.9477 14.4015L18.9411 17.4695L19.5491 18.2635L23.5557 15.1955L22.9477 14.4015ZM25.8467 12.7772C24.8091 13.1772 23.8327 13.7239 22.9477 14.4015L23.5557 15.1955C24.3649 14.5759 25.2577 14.076 26.2064 13.7102L25.8467 12.7772ZM24.477 9.56271L25.5451 13.3785L26.5081 13.1089L25.44 9.29315L24.477 9.56271ZM24.6832 8.92983C24.4931 9.07981 24.4117 9.32945 24.477 9.56272L25.44 9.29313C25.4835 9.44866 25.4292 9.61509 25.3024 9.71507L24.6832 8.92983ZM25.0928 8.6069L24.6832 8.92983L25.3024 9.71507L25.712 9.39214L25.0928 8.6069ZM26.0518 8.95645C25.9614 8.51968 25.443 8.33072 25.0928 8.6069L25.712 9.39214C25.4785 9.57626 25.1329 9.45029 25.0726 9.15911L26.0518 8.95645ZM26.1323 9.34542L26.0518 8.95645L25.0726 9.15911L25.1531 9.54808L26.1323 9.34542ZM28.4972 12.2592L26.0353 9.13715L25.2501 9.75635L27.712 12.8784L28.4972 12.2592ZM28.1479 12.0314L27.9553 12.0916L28.254 13.046L28.4466 12.9857L28.1479 12.0314ZM28.8891 12.094C28.6647 11.9795 28.3991 11.9527 28.1479 12.0314L28.4466 12.9857C28.4423 12.987 28.4379 12.9864 28.4346 12.9847L28.8891 12.094ZM28.9514 12.9469L30.5416 11.8171L29.9624 11.0019L28.3722 12.1318L28.9514 12.9469ZM30.5416 11.8171C30.3678 11.9405 30.1278 11.9061 29.9958 11.7387L30.781 11.1195C30.583 10.8684 30.223 10.8167 29.9624 11.0019L30.5416 11.8171ZM29.9958 11.7387L30.0018 11.7463L30.7871 11.1271L30.781 11.1195L29.9958 11.7387ZM30.0018 11.7463C29.8698 11.579 29.8923 11.3375 30.0529 11.1973L30.7105 11.9507C30.9514 11.7404 30.985 11.3782 30.7871 11.1271L30.0018 11.7463ZM30.0529 11.1973L28.5833 12.4802L29.241 13.2335L30.7105 11.9507L30.0529 11.1973ZM29.2863 13.4751C29.4213 13.2491 29.4573 12.9846 29.3983 12.7397L28.4261 12.974C28.4252 12.9704 28.4257 12.9659 28.4279 12.9621L29.2863 13.4751ZM29.1828 13.6483L29.2863 13.4751L28.4279 12.9621L28.3244 13.1353L29.1828 13.6483ZM31.6081 16.2043L29.1462 13.0822L28.361 13.7014L30.8229 16.8235L31.6081 16.2043ZM31.7877 16.2303L31.4282 16.0614L31.0028 16.9664L31.3623 17.1353L31.7877 16.2303ZM31.904 17.2445C32.2542 16.9683 32.1913 16.4201 31.7877 16.2303L31.3623 17.1353C31.0932 17.0088 31.0513 16.6434 31.2848 16.4592L31.904 17.2445ZM31.4944 17.5674L31.904 17.2445L31.2848 16.4592L30.8752 16.7822L31.4944 17.5674ZM30.8309 17.6204C31.0425 17.7383 31.3042 17.7174 31.4944 17.5674L30.8752 16.7822C31.002 16.6822 31.1765 16.6682 31.3176 16.7468L30.8309 17.6204ZM27.3694 15.692L30.8309 17.6204L31.3176 16.7468L27.8561 14.8184L27.3694 15.692ZM25.7689 17.9792C26.6342 17.2766 27.3935 16.4546 28.0245 15.5389L27.201 14.9715C26.6241 15.8088 25.9298 16.5604 25.1386 17.2028L25.7689 17.9792ZM21.8512 21.1599L25.7689 17.9792L25.1386 17.2028L21.2209 20.3836L21.8512 21.1599ZM25.7202 23.9288L21.8739 20.4032L21.1982 21.1403L25.0445 24.6659L25.7202 23.9288ZM25.7021 23.9127L25.6926 23.9052L25.0721 24.6895L25.0816 24.697L25.7021 23.9127ZM25.8588 23.3404L25.0955 23.9021L25.6882 24.7076L26.4515 24.1458L25.8588 23.3404ZM26.8327 23.472C26.5967 23.1727 26.1659 23.1145 25.8588 23.3404L26.4515 24.1458C26.3242 24.2396 26.1454 24.2154 26.0475 24.0912L26.8327 23.472ZM26.7336 24.4498C27.0249 24.2039 27.0688 23.7714 26.8327 23.472L26.0475 24.0912C25.9496 23.9671 25.9678 23.7876 26.0886 23.6856L26.7336 24.4498ZM26.0955 24.9884L26.7336 24.4498L26.0886 23.6856L25.4504 24.2243L26.0955 24.9884ZM29.9249 27.2537L26.0832 24.2142L25.4627 24.9985L29.3045 28.038L29.9249 27.2537ZM30.7109 27.7002L29.8643 27.2126L29.3652 28.0791L30.2118 28.5667L30.7109 27.7002ZM30.801 28.939C31.2176 28.6105 31.1707 27.965 30.7109 27.7002L30.2118 28.5667C30.0585 28.4785 30.0429 28.2633 30.1818 28.1538L30.801 28.939ZM30.4017 29.2539L30.801 28.939L30.1818 28.1538L29.7825 28.4686L30.4017 29.2539ZM29.7575 29.3931C29.9822 29.4486 30.22 29.3972 30.4017 29.2539L29.7825 28.4686C29.8431 28.4209 29.9223 28.4038 29.9972 28.4222L29.7575 29.3931ZM28.4926 29.0808L29.7575 29.3931L29.9972 28.4222L28.7322 28.11L28.4926 29.0808ZM24.0498 27.3687L28.4322 29.0618L28.7926 28.129L24.4102 26.4359L24.0498 27.3687ZM23.1994 28.5633L24.5733 27.2658L23.8867 26.5387L22.5128 27.8362L23.1994 28.5633ZM22.616 29.0258L23.1657 28.5924L22.5465 27.8071L21.9968 28.2406L22.616 29.0258ZM21.2116 28.8598C21.5535 29.2934 22.1823 29.3678 22.616 29.0258L21.9968 28.2406L21.2116 28.8598ZM20.2828 27.6819L21.2116 28.8598L21.9968 28.2406L21.068 27.0627L20.2828 27.6819ZM20.4488 26.2775C20.0151 26.6194 19.9408 27.2482 20.2828 27.6819L21.068 27.0627L20.4488 26.2775ZM20.9985 25.844L20.4488 26.2775L21.068 27.0627L21.6177 26.6293L20.9985 25.844ZM21.5008 25.5135L21.0346 25.8181L21.5815 26.6552L22.0477 26.3507L21.5008 25.5135ZM17.4525 24.3557L21.5529 26.3804L21.9956 25.4838L17.8952 23.4591L17.4525 24.3557ZM15.6407 26.2021L17.989 24.2956L17.3587 23.5193L15.0104 25.4258L15.6407 26.2021Z" fill="white" mask="url(#path-1-outside-1_1128_27496)"/>
        <path d="M22.3064 28.6332C22.0896 28.8042 21.7752 28.767 21.6042 28.5502L20.6754 27.3723C20.5044 27.1555 20.5416 26.8411 20.7584 26.6701L21.3081 26.2367L23.6616 24.6992L24.9 26.2697L22.8561 28.1997L22.3064 28.6332Z" fill="#4A5CFF"/>
        <path opacity="0.3" d="M21.308 26.2367L23.6614 24.6992L24.8998 26.2697L23.8779 27.2347L21.308 26.2367Z" fill="black"/>
        <path d="M25.5522 24.7926C25.4783 24.855 25.3674 24.8438 25.3075 24.7678L25.2169 24.653C25.157 24.5771 25.172 24.4666 25.2499 24.4093L26.1551 23.7431C26.2449 23.677 26.371 23.6941 26.44 23.7816C26.5091 23.8692 26.4963 23.9958 26.411 24.0677L25.5522 24.7926Z" fill="#4A5CFF"/>
        <path opacity="0.3" d="M25.417 24.9067L25.1074 24.5141L25.7934 24.0114L26.1837 24.264L25.417 24.9067Z" fill="black"/>
        <path d="M30.0922 28.8613C30.0316 28.909 29.9523 28.9262 29.8774 28.9077L28.6125 28.5954L21.9734 26.0304L16.7595 23.4559L20.782 20.0806L25.3824 24.2974L29.6148 27.6458L30.4614 28.1335C30.6147 28.2218 30.6303 28.4369 30.4914 28.5464L30.0922 28.8613Z" fill="#4A5CFF"/>
        <path opacity="0.3" d="M18.0631 24.0996L16.7596 23.456L20.7821 20.0806L21.9322 21.1348L18.0631 24.0996Z" fill="black"/>
        <path d="M11.7798 15.2842C11.563 15.4552 11.5258 15.7696 11.6968 15.9864L12.6256 17.1643C12.7966 17.3811 13.111 17.4183 13.3278 17.2473L13.8775 16.8138L15.9213 14.8838L14.6829 13.3133L12.3295 14.8508L11.7798 15.2842Z" fill="#4A5CFF"/>
        <path opacity="0.3" d="M13.8773 16.8139L15.9212 14.8838L14.6828 13.3133L13.5061 14.0821L13.8773 16.8139Z" fill="black"/>
        <path d="M16.2714 13.0234C16.1935 13.0807 16.1785 13.1912 16.2384 13.2671L16.329 13.3819C16.3889 13.4579 16.4998 13.4691 16.5737 13.4067L17.4326 12.6818C17.5178 12.6099 17.5306 12.4833 17.4616 12.3957C17.3925 12.3082 17.2665 12.2911 17.1766 12.3572L16.2714 13.0234Z" fill="#4A5CFF"/>
        <path opacity="0.3" d="M16.1289 13.1282L16.4385 13.5209L17.0874 12.971L16.9327 12.5326L16.1289 13.1282Z" fill="black"/>
        <path d="M13.3737 7.65994C13.3131 7.70771 13.2779 7.78077 13.2785 7.85792L13.2872 9.16084L14.2333 16.215L15.521 21.8855L19.7413 18.7609L16.7135 13.3041L14.4443 8.40759L14.1675 7.47058C14.1174 7.30096 13.9118 7.23558 13.7729 7.34509L13.3737 7.65994Z" fill="#4A5CFF"/>
        <path opacity="0.3" d="M15.199 20.4678L15.5209 21.8854L19.7412 18.7609L18.9842 17.3967L15.199 20.4678Z" fill="black"/>
        <path d="M31.1848 17.1748C31.1531 17.1998 31.1095 17.2033 31.0742 17.1836L26.8738 14.8435L28.4291 12.9803L31.2155 16.5139L31.575 16.6828C31.6422 16.7145 31.6527 16.8058 31.5943 16.8519L31.1848 17.1748Z" fill="#4A5CFF"/>
        <path opacity="0.2" d="M27.7758 15.3352L26.8739 14.8435L28.4292 12.9803L29.2458 14.0158L27.7758 15.3352Z" fill="black"/>
        <path d="M24.9929 9.32245C24.9612 9.34745 24.9477 9.38905 24.9585 9.42793L26.2547 14.0583L28.4292 12.9803L25.6428 9.44675L25.5623 9.05778C25.5472 8.98498 25.4608 8.95349 25.4024 8.99952L24.9929 9.32245Z" fill="#4A5CFF"/>
        <path opacity="0.1" d="M25.9867 13.0666L26.2545 14.0583L28.429 12.9803L27.6124 11.9448L25.9867 13.0666Z" fill="black"/>
        <path d="M15.3255 25.8139C14.0164 26.8768 12.5267 27.6955 10.9276 28.2309L10.2358 28.4625C9.85655 28.5895 9.43843 28.4647 9.1908 28.1507C8.94317 27.8366 8.91934 27.401 9.13124 27.0618L9.51783 26.443C10.4113 25.0129 11.5548 23.7552 12.8937 22.73L23.2516 14.7985C24.2901 14.0033 25.4601 13.3965 26.7084 13.0058L28.2971 12.5085C28.4887 12.4486 28.6974 12.5131 28.8217 12.6707C28.9459 12.8283 28.96 13.0463 28.8571 13.2186L28.003 14.6476C27.332 15.7703 26.4691 16.7666 25.4537 17.591L15.3255 25.8139Z" fill="#4A5CFF"/>
        <path opacity="0.3" d="M9.86015 26.5278C9.92546 26.8016 10.0541 27.0733 10.247 27.3179C10.4399 27.5625 10.6741 27.7509 10.9251 27.8783C10.4207 28.0856 9.93111 28.0529 9.69482 27.7533C9.45853 27.4536 9.54089 26.9699 9.86015 26.5278Z" fill="black"/>
        <rect opacity="0.3" x="15.2412" y="25.6083" width="0.5" height="0.5" transform="rotate(-128.258 15.2412 25.6083)" fill="black"/>
        <rect opacity="0.3" x="16.1638" y="24.8808" width="0.5" height="0.5" transform="rotate(-128.258 16.1638 24.8808)" fill="black"/>
        <rect opacity="0.3" x="17.0862" y="24.1534" width="0.5" height="0.5" transform="rotate(-128.258 17.0862 24.1534)" fill="black"/>
        <rect opacity="0.3" x="18.0088" y="23.426" width="0.5" height="0.5" transform="rotate(-128.258 18.0088 23.426)" fill="black"/>
        <rect opacity="0.3" x="18.9312" y="22.6985" width="0.5" height="0.5" transform="rotate(-128.258 18.9312 22.6985)" fill="black"/>
        <rect opacity="0.3" x="19.8538" y="21.9711" width="0.5" height="0.5" transform="rotate(-128.258 19.8538 21.9711)" fill="black"/>
        <rect opacity="0.3" x="20.7761" y="21.2437" width="0.5" height="0.5" transform="rotate(-128.258 20.7761 21.2437)" fill="black"/>
        <rect opacity="0.3" x="21.6987" y="20.5162" width="0.5" height="0.5" transform="rotate(-128.258 21.6987 20.5162)" fill="black"/>
        <rect opacity="0.3" x="22.6211" y="19.7888" width="0.5" height="0.5" transform="rotate(-128.258 22.6211 19.7888)" fill="black"/>
        <rect opacity="0.3" x="23.5437" y="19.0613" width="0.5" height="0.5" transform="rotate(-128.258 23.5437 19.0613)" fill="black"/>
        <rect opacity="0.3" x="13.3835" y="23.2526" width="0.5" height="0.5" transform="rotate(-128.258 13.3835 23.2526)" fill="black"/>
        <rect opacity="0.3" x="14.3062" y="22.5251" width="0.5" height="0.5" transform="rotate(-128.258 14.3062 22.5251)" fill="black"/>
        <rect opacity="0.3" x="15.2285" y="21.7977" width="0.5" height="0.5" transform="rotate(-128.258 15.2285 21.7977)" fill="black"/>
        <rect opacity="0.3" x="16.1511" y="21.0703" width="0.5" height="0.5" transform="rotate(-128.258 16.1511 21.0703)" fill="black"/>
        <rect opacity="0.3" x="17.0737" y="20.3428" width="0.5" height="0.5" transform="rotate(-128.258 17.0737 20.3428)" fill="black"/>
        <rect opacity="0.3" x="17.9961" y="19.6154" width="0.5" height="0.5" transform="rotate(-128.258 17.9961 19.6154)" fill="black"/>
        <rect opacity="0.3" x="18.9187" y="18.888" width="0.5" height="0.5" transform="rotate(-128.258 18.9187 18.888)" fill="black"/>
        <rect opacity="0.3" x="19.8411" y="18.1605" width="0.5" height="0.5" transform="rotate(-128.258 19.8411 18.1605)" fill="black"/>
        <rect opacity="0.3" x="20.7637" y="17.4331" width="0.5" height="0.5" transform="rotate(-128.258 20.7637 17.4331)" fill="black"/>
        <rect opacity="0.3" x="21.686" y="16.7056" width="0.5" height="0.5" transform="rotate(-128.258 21.686 16.7056)" fill="black"/>
        <path opacity="0.3" d="M24.8478 15.916L28.09 13.3594C28.2049 13.5051 28.1707 13.7179 28.0159 13.8203L24.8478 15.916Z" fill="black"/>
        <path d="M25.6897 15.0071L27.8808 13.0943L30.2519 11.4096C30.2953 11.3787 30.3553 11.3873 30.3883 11.4292L30.3943 11.4368C30.4273 11.4787 30.4217 11.539 30.3816 11.5741L28.1904 13.4869L25.8194 15.1716C25.7759 15.2025 25.7159 15.1938 25.6829 15.152L25.6769 15.1443C25.6439 15.1025 25.6495 15.0421 25.6897 15.0071Z" fill="#4A5CFF"/>
    </g>
    <defs>
        <clipPath id="clip0_1128_27496">
            <rect width="28" height="28" fill="white" transform="translate(17.467 39.4536) rotate(-128.258)"/>
        </clipPath>
    </defs>
</svg>
