<svg width="37" height="37" viewBox="0 0 37 37" fill="none" xmlns="http://www.w3.org/2000/svg">
    <g clip-path="url(#clip0_3363_3997)">
        <mask id="path-1-outside-1_3363_3997" maskUnits="userSpaceOnUse" x="-0.656275" y="-0.609693" width="38.0659" height="38.0659" fill="black">
            <rect fill="white" x="-0.656275" y="-0.609693" width="38.0659" height="38.0659"/>
            <path d="M12.4954 23.0735C10.9545 23.7585 9.30289 24.1606 7.61958 24.2607L6.89125 24.304C6.49204 24.3277 6.12089 24.0983 5.96367 23.7306C5.80645 23.3628 5.89699 22.936 6.18997 22.6638L6.72447 22.1672C7.95982 21.0193 9.39159 20.1031 10.9514 19.4623L13.7492 18.3129L13.9338 13.7436L13.4433 14.0071L12.7997 14.2823C12.5458 14.3909 12.2519 14.2731 12.1434 14.0192L11.5537 12.6399C11.4451 12.386 11.5629 12.0922 11.8168 11.9836L12.4605 11.7084L14.2572 11.123L14.8679 6.46475L15.1991 5.2046C15.2187 5.12998 15.2717 5.0686 15.3426 5.03828L15.8102 4.83838C15.9728 4.76884 16.1542 4.88555 16.1584 5.06236L16.1814 6.03913L17.0116 10.867L17.79 10.5644C17.8939 10.524 18.0112 10.5733 18.055 10.6759C18.0988 10.7784 18.0535 10.8973 17.9525 10.9445L17.0939 11.3459L17.096 11.3578L18.3508 16.4224L23.0186 14.5047C24.0055 14.0992 25.0441 13.8376 26.1028 13.7268L26.0661 9.76458C26.0658 9.72421 26.0897 9.68758 26.1268 9.6717L26.6064 9.46667C26.6747 9.43745 26.7499 9.49037 26.7455 9.56458L26.7218 9.96109L28.2849 13.6169L28.4866 13.6089C28.6159 13.6038 28.7385 13.6504 28.8305 13.7337L30.6602 13.0573C30.7102 13.0389 30.7659 13.0628 30.7868 13.1118L30.7907 13.1208C30.8116 13.1698 30.7905 13.2266 30.7426 13.25L28.9895 14.1055C28.9861 14.2295 28.9351 14.3504 28.8421 14.4403L28.697 14.5806L30.2601 18.2364L30.5631 18.4932C30.6198 18.5413 30.6061 18.6323 30.5377 18.6615L30.0582 18.8665C30.0211 18.8824 29.978 18.8744 29.9491 18.8462L27.1099 16.0822C26.2983 16.7711 25.3916 17.3412 24.4167 17.7746L19.8054 19.8243L22.5999 24.2305L22.6071 24.2403L23.4904 23.8969C23.5944 23.8565 23.7116 23.9058 23.7555 24.0084C23.7993 24.1109 23.7539 24.2297 23.6529 24.277L22.8964 24.6307L25.8132 28.5664L26.5035 29.2579C26.6284 29.383 26.5874 29.5948 26.4248 29.6644L25.9573 29.8643C25.8863 29.8946 25.8054 29.8905 25.7379 29.8531L24.598 29.2219L20.8084 26.4451L19.1438 27.3396L18.5001 27.6148C18.2462 27.7234 17.9524 27.6055 17.8438 27.3516L17.2541 25.9724C17.1456 25.7185 17.2634 25.4247 17.5173 25.3161L18.1609 25.0409L18.6904 24.8684L15.2594 21.845L12.4954 23.0735Z"/>
        </mask>
        <path d="M12.4954 23.0735C10.9545 23.7585 9.30289 24.1606 7.61958 24.2607L6.89125 24.304C6.49204 24.3277 6.12089 24.0983 5.96367 23.7306C5.80645 23.3628 5.89699 22.936 6.18997 22.6638L6.72447 22.1672C7.95982 21.0193 9.39159 20.1031 10.9514 19.4623L13.7492 18.3129L13.9338 13.7436L13.4433 14.0071L12.7997 14.2823C12.5458 14.3909 12.2519 14.2731 12.1434 14.0192L11.5537 12.6399C11.4451 12.386 11.5629 12.0922 11.8168 11.9836L12.4605 11.7084L14.2572 11.123L14.8679 6.46475L15.1991 5.2046C15.2187 5.12998 15.2717 5.0686 15.3426 5.03828L15.8102 4.83838C15.9728 4.76884 16.1542 4.88555 16.1584 5.06236L16.1814 6.03913L17.0116 10.867L17.79 10.5644C17.8939 10.524 18.0112 10.5733 18.055 10.6759C18.0988 10.7784 18.0535 10.8973 17.9525 10.9445L17.0939 11.3459L17.096 11.3578L18.3508 16.4224L23.0186 14.5047C24.0055 14.0992 25.0441 13.8376 26.1028 13.7268L26.0661 9.76458C26.0658 9.72421 26.0897 9.68758 26.1268 9.6717L26.6064 9.46667C26.6747 9.43745 26.7499 9.49037 26.7455 9.56458L26.7218 9.96109L28.2849 13.6169L28.4866 13.6089C28.6159 13.6038 28.7385 13.6504 28.8305 13.7337L30.6602 13.0573C30.7102 13.0389 30.7659 13.0628 30.7868 13.1118L30.7907 13.1208C30.8116 13.1698 30.7905 13.2266 30.7426 13.25L28.9895 14.1055C28.9861 14.2295 28.9351 14.3504 28.8421 14.4403L28.697 14.5806L30.2601 18.2364L30.5631 18.4932C30.6198 18.5413 30.6061 18.6323 30.5377 18.6615L30.0582 18.8665C30.0211 18.8824 29.978 18.8744 29.9491 18.8462L27.1099 16.0822C26.2983 16.7711 25.3916 17.3412 24.4167 17.7746L19.8054 19.8243L22.5999 24.2305L22.6071 24.2403L23.4904 23.8969C23.5944 23.8565 23.7116 23.9058 23.7555 24.0084C23.7993 24.1109 23.7539 24.2297 23.6529 24.277L22.8964 24.6307L25.8132 28.5664L26.5035 29.2579C26.6284 29.383 26.5874 29.5948 26.4248 29.6644L25.9573 29.8643C25.8863 29.8946 25.8054 29.8905 25.7379 29.8531L24.598 29.2219L20.8084 26.4451L19.1438 27.3396L18.5001 27.6148C18.2462 27.7234 17.9524 27.6055 17.8438 27.3516L17.2541 25.9724C17.1456 25.7185 17.2634 25.4247 17.5173 25.3161L18.1609 25.0409L18.6904 24.8684L15.2594 21.845L12.4954 23.0735Z" fill="#573CFF"/>
        <path d="M7.61958 24.2607L7.5899 23.7616L7.5899 23.7616L7.61958 24.2607ZM12.4954 23.0735L12.2923 22.6166L12.4954 23.0735ZM6.89125 24.304L6.86157 23.8049L6.86157 23.8049L6.89125 24.304ZM6.18997 22.6638L6.53031 23.0301L6.53031 23.0301L6.18997 22.6638ZM6.72447 22.1672L6.38413 21.8009L6.72447 22.1672ZM10.9514 19.4623L11.1414 19.9248L10.9514 19.4623ZM13.7492 18.3129L13.9392 18.7754L14.2358 18.6535L14.2488 18.3331L13.7492 18.3129ZM13.9338 13.7436L14.4334 13.7637L14.4688 12.8885L13.6971 13.3031L13.9338 13.7436ZM13.4433 14.0071L13.6399 14.4669L13.6603 14.4581L13.68 14.4476L13.4433 14.0071ZM12.4605 11.7084L12.3056 11.233L12.2844 11.2399L12.2639 11.2487L12.4605 11.7084ZM14.2572 11.123L14.4121 11.5984L14.712 11.5007L14.753 11.188L14.2572 11.123ZM14.8679 6.46475L14.3844 6.33766L14.3763 6.36832L14.3722 6.39976L14.8679 6.46475ZM15.1991 5.2046L15.6827 5.33169L15.6827 5.33169L15.1991 5.2046ZM16.1584 5.06236L16.6582 5.0506L16.6582 5.0506L16.1584 5.06236ZM16.1814 6.03913L15.6815 6.05089L15.6824 6.08764L15.6886 6.12386L16.1814 6.03913ZM17.0116 10.867L16.5188 10.9517L16.6225 11.5547L17.1927 11.333L17.0116 10.867ZM17.79 10.5644L17.6088 10.0984L17.6088 10.0984L17.79 10.5644ZM17.9525 10.9445L18.1642 11.3974L18.1642 11.3974L17.9525 10.9445ZM17.0939 11.3459L16.8821 10.893L16.5365 11.0546L16.6012 11.4306L17.0939 11.3459ZM17.096 11.3578L16.6032 11.4426L16.6063 11.4605L16.6106 11.4781L17.096 11.3578ZM18.3508 16.4224L17.8655 16.5426L18.0048 17.1051L18.5408 16.8849L18.3508 16.4224ZM23.0186 14.5047L23.2086 14.9672L23.0186 14.5047ZM26.1028 13.7268L26.1548 14.2241L26.607 14.1768L26.6028 13.7222L26.1028 13.7268ZM26.0661 9.76458L26.5661 9.75995L26.5661 9.75994L26.0661 9.76458ZM26.7218 9.96109L26.2227 9.9313L26.2157 10.0491L26.2621 10.1577L26.7218 9.96109ZM28.2849 13.6169L27.8252 13.8135L27.9606 14.1302L28.3048 14.1165L28.2849 13.6169ZM28.4866 13.6089L28.5064 14.1085L28.5064 14.1085L28.4866 13.6089ZM28.8305 13.7337L28.495 14.1044L28.7197 14.3077L29.0039 14.2027L28.8305 13.7337ZM30.6602 13.0573L30.4869 12.5883L30.4868 12.5883L30.6602 13.0573ZM30.7426 13.25L30.9619 13.6993L30.9619 13.6993L30.7426 13.25ZM28.9895 14.1055L28.7702 13.6561L28.4979 13.789L28.4897 14.0919L28.9895 14.1055ZM28.8421 14.4403L28.4946 14.0808L28.4946 14.0808L28.8421 14.4403ZM28.697 14.5806L28.3495 14.2211L28.1018 14.4605L28.2372 14.7772L28.697 14.5806ZM30.2601 18.2364L29.8003 18.433L29.8467 18.5415L29.9368 18.6178L30.2601 18.2364ZM30.5631 18.4932L30.2398 18.8747L30.2398 18.8747L30.5631 18.4932ZM29.9491 18.8462L30.2979 18.488L30.2979 18.4879L29.9491 18.8462ZM27.1099 16.0822L27.4586 15.724L27.1329 15.4069L26.7863 15.701L27.1099 16.0822ZM24.4167 17.7746L24.2136 17.3177L24.4167 17.7746ZM19.8054 19.8243L19.6023 19.3674L19.0728 19.6028L19.3831 20.0921L19.8054 19.8243ZM22.5999 24.2305L22.1776 24.4983L22.1873 24.5137L22.1982 24.5283L22.5999 24.2305ZM22.6071 24.2403L22.2054 24.538L22.4326 24.8445L22.7882 24.7063L22.6071 24.2403ZM23.4904 23.8969L23.3093 23.4309L23.3093 23.4309L23.4904 23.8969ZM23.6529 24.277L23.8647 24.7299L23.8647 24.7299L23.6529 24.277ZM22.8964 24.6307L22.6846 24.1777L22.1304 24.4369L22.4947 24.9284L22.8964 24.6307ZM25.8132 28.5664L25.4115 28.8641L25.4334 28.8936L25.4593 28.9197L25.8132 28.5664ZM26.5035 29.2579L26.8573 28.9046L26.8573 28.9046L26.5035 29.2579ZM25.7379 29.8531L25.4957 30.2905L25.4957 30.2905L25.7379 29.8531ZM24.598 29.2219L24.3025 29.6252L24.3281 29.644L24.3558 29.6593L24.598 29.2219ZM20.8084 26.4451L21.1039 26.0418L20.8495 25.8554L20.5717 26.0047L20.8084 26.4451ZM19.1438 27.3396L19.3403 27.7993L19.3608 27.7906L19.3804 27.78L19.1438 27.3396ZM18.1609 25.0409L18.006 24.5655L17.9848 24.5724L17.9644 24.5812L18.1609 25.0409ZM18.6904 24.8684L18.8453 25.3438L19.6781 25.0724L19.0209 24.4933L18.6904 24.8684ZM15.2594 21.845L15.5899 21.4698L15.3493 21.2578L15.0563 21.3881L15.2594 21.845ZM7.64926 24.7598C9.39244 24.6561 11.1028 24.2397 12.6985 23.5304L12.2923 22.6166C10.8062 23.2772 9.21335 23.665 7.5899 23.7616L7.64926 24.7598ZM6.92093 24.8031L7.64926 24.7598L7.5899 23.7616L6.86157 23.8049L6.92093 24.8031ZM5.50393 23.9271C5.74411 24.4889 6.31108 24.8394 6.92093 24.8031L6.86157 23.8049C6.67299 23.8161 6.49768 23.7077 6.42341 23.534L5.50393 23.9271ZM5.84963 22.2975C5.40207 22.7133 5.26375 23.3654 5.50393 23.9271L6.42341 23.534C6.34914 23.3603 6.39191 23.1587 6.53031 23.0301L5.84963 22.2975ZM6.38413 21.8009L5.84963 22.2975L6.53031 23.0301L7.06481 22.5335L6.38413 21.8009ZM10.7614 18.9998C9.14611 19.6634 7.66342 20.6122 6.38413 21.8009L7.06481 22.5335C8.25622 21.4265 9.63707 20.5428 11.1414 19.9248L10.7614 18.9998ZM13.5592 17.8504L10.7614 18.9998L11.1414 19.9248L13.9392 18.7754L13.5592 17.8504ZM13.4342 13.7234L13.2496 18.2927L14.2488 18.3331L14.4334 13.7637L13.4342 13.7234ZM13.68 14.4476L14.1705 14.184L13.6971 13.3031L13.2066 13.5667L13.68 14.4476ZM12.9962 14.7421L13.6399 14.4669L13.2467 13.5474L12.6031 13.8226L12.9962 14.7421ZM11.6836 14.2157C11.9007 14.7235 12.4884 14.9592 12.9962 14.7421L12.6031 13.8226L11.6836 14.2157ZM11.0939 12.8365L11.6836 14.2157L12.6031 13.8226L12.0134 12.4434L11.0939 12.8365ZM11.6203 11.5239C11.1124 11.741 10.8768 12.3287 11.0939 12.8365L12.0134 12.4434L11.6203 11.5239ZM12.2639 11.2487L11.6203 11.5239L12.0134 12.4434L12.657 12.1682L12.2639 11.2487ZM14.1023 10.6476L12.3056 11.233L12.6154 12.1838L14.4121 11.5984L14.1023 10.6476ZM14.3722 6.39976L13.7615 11.058L14.753 11.188L15.3637 6.52975L14.3722 6.39976ZM14.7155 5.07751L14.3844 6.33766L15.3515 6.59185L15.6827 5.33169L14.7155 5.07751ZM15.1461 4.57853C14.9332 4.66952 14.7744 4.85367 14.7155 5.07751L15.6827 5.33169C15.6631 5.40631 15.6101 5.46769 15.5392 5.49802L15.1461 4.57853ZM15.6136 4.37864L15.1461 4.57853L15.5392 5.49802L16.0067 5.29812L15.6136 4.37864ZM16.6582 5.0506C16.6457 4.52015 16.1015 4.17004 15.6136 4.37864L16.0067 5.29812C15.8441 5.36765 15.6627 5.25095 15.6585 5.07413L16.6582 5.0506ZM16.6812 6.02736L16.6582 5.0506L15.6585 5.07413L15.6815 6.05089L16.6812 6.02736ZM17.5043 10.7823L16.6741 5.95439L15.6886 6.12386L16.5188 10.9517L17.5043 10.7823ZM17.6088 10.0984L16.8304 10.401L17.1927 11.333L17.9711 11.0305L17.6088 10.0984ZM18.5147 10.4793C18.3649 10.1288 17.9641 9.96032 17.6088 10.0984L17.9711 11.0305C17.8237 11.0878 17.6574 11.0179 17.5953 10.8724L18.5147 10.4793ZM18.1642 11.3974C18.5095 11.236 18.6646 10.8298 18.5147 10.4793L17.5953 10.8724C17.5331 10.727 17.5974 10.5585 17.7407 10.4916L18.1642 11.3974ZM17.3057 11.7988L18.1642 11.3974L17.7407 10.4916L16.8821 10.893L17.3057 11.7988ZM17.5887 11.2731L17.5867 11.2612L16.6012 11.4306L16.6032 11.4426L17.5887 11.2731ZM18.8361 16.3021L17.5813 11.2376L16.6106 11.4781L17.8655 16.5426L18.8361 16.3021ZM22.8286 14.0422L18.1608 15.9599L18.5408 16.8849L23.2086 14.9672L22.8286 14.0422ZM26.0507 13.2296C24.9447 13.3453 23.8596 13.6186 22.8286 14.0422L23.2086 14.9672C24.1513 14.5799 25.1435 14.33 26.1548 14.2241L26.0507 13.2296ZM25.5662 9.7692L25.6028 13.7315L26.6028 13.7222L26.5661 9.75995L25.5662 9.7692ZM25.9303 9.21196C25.7076 9.30719 25.5639 9.52698 25.5662 9.76922L26.5661 9.75994C26.5676 9.92143 26.4719 10.068 26.3234 10.1314L25.9303 9.21196ZM26.4098 9.00693L25.9303 9.21196L26.3234 10.1314L26.8029 9.92641L26.4098 9.00693ZM27.2446 9.59437C27.2712 9.14913 26.8199 8.83158 26.4098 9.00693L26.8029 9.92641C26.5295 10.0433 26.2287 9.83162 26.2464 9.53479L27.2446 9.59437ZM27.2209 9.99087L27.2446 9.59437L26.2464 9.53479L26.2227 9.9313L27.2209 9.99087ZM28.7447 13.4203L27.1816 9.76452L26.2621 10.1577L27.8252 13.8135L28.7447 13.4203ZM28.4667 13.1093L28.2651 13.1173L28.3048 14.1165L28.5064 14.1085L28.4667 13.1093ZM29.166 13.3629C28.9792 13.1939 28.7298 13.0989 28.4667 13.1093L28.5064 14.1085C28.502 14.1087 28.4978 14.1069 28.495 14.1044L29.166 13.3629ZM29.0039 14.2027L30.8336 13.5263L30.4868 12.5883L28.6572 13.2647L29.0039 14.2027ZM30.8336 13.5263C30.6337 13.6002 30.4109 13.5044 30.3271 13.3084L31.2466 12.9152C31.1209 12.6213 30.7867 12.4775 30.4869 12.5883L30.8336 13.5263ZM30.3271 13.3084L30.3309 13.3173L31.2504 12.9242L31.2466 12.9152L30.3271 13.3084ZM30.3309 13.3173C30.2471 13.1213 30.3317 12.8941 30.5233 12.8006L30.9619 13.6993C31.2492 13.5591 31.3761 13.2182 31.2504 12.9242L30.3309 13.3173ZM30.5233 12.8006L28.7702 13.6561L29.2088 14.5548L30.9619 13.6993L30.5233 12.8006ZM29.1896 14.7998C29.3788 14.6169 29.4824 14.3709 29.4893 14.1191L28.4897 14.0919C28.4898 14.0881 28.4914 14.0839 28.4946 14.0808L29.1896 14.7998ZM29.0445 14.9401L29.1896 14.7998L28.4946 14.0808L28.3495 14.2211L29.0445 14.9401ZM30.7198 18.0398L29.1567 14.384L28.2372 14.7772L29.8003 18.433L30.7198 18.0398ZM30.8864 18.1118L30.5834 17.855L29.9368 18.6178L30.2398 18.8747L30.8864 18.1118ZM30.7343 19.1212C31.1444 18.9459 31.2266 18.4002 30.8864 18.1118L30.2398 18.8747C30.0129 18.6824 30.0677 18.3186 30.3411 18.2017L30.7343 19.1212ZM30.2547 19.3263L30.7343 19.1212L30.3411 18.2017L29.8616 18.4068L30.2547 19.3263ZM29.6003 19.2045C29.7739 19.3735 30.032 19.4215 30.2547 19.3263L29.8616 18.4068C30.0101 18.3433 30.1822 18.3753 30.2979 18.488L29.6003 19.2045ZM26.7611 16.4405L29.6003 19.2045L30.2979 18.4879L27.4586 15.724L26.7611 16.4405ZM24.6198 18.2315C25.6383 17.7787 26.5856 17.1831 27.4334 16.4634L26.7863 15.701C26.0111 16.359 25.1449 16.9037 24.2136 17.3177L24.6198 18.2315ZM20.0084 20.2812L24.6198 18.2315L24.2136 17.3177L19.6023 19.3674L20.0084 20.2812ZM23.0221 23.9628L20.2276 19.5565L19.3831 20.0921L22.1776 24.4983L23.0221 23.9628ZM23.0088 23.9425L23.0016 23.9328L22.1982 24.5283L22.2054 24.538L23.0088 23.9425ZM23.3093 23.4309L22.4259 23.7742L22.7882 24.7063L23.6716 24.3629L23.3093 23.4309ZM24.2152 23.8118C24.0653 23.4613 23.6646 23.2928 23.3093 23.4309L23.6716 24.3629C23.5242 24.4202 23.3579 24.3503 23.2957 24.2049L24.2152 23.8118ZM23.8647 24.7299C24.21 24.5684 24.3651 24.1623 24.2152 23.8118L23.2957 24.2049C23.2335 24.0595 23.2979 23.891 23.4411 23.824L23.8647 24.7299ZM23.1082 25.0836L23.8647 24.7299L23.4411 23.824L22.6846 24.1777L23.1082 25.0836ZM26.2149 28.2687L23.2981 24.333L22.4947 24.9284L25.4115 28.8641L26.2149 28.2687ZM26.8573 28.9046L26.167 28.2131L25.4593 28.9197L26.1496 29.6111L26.8573 28.9046ZM26.6214 30.1241C27.1093 29.9155 27.2322 29.2801 26.8573 28.9046L26.1496 29.6111C26.0246 29.4859 26.0656 29.2741 26.2282 29.2046L26.6214 30.1241ZM26.1538 30.324L26.6214 30.1241L26.2282 29.2046L25.7607 29.4045L26.1538 30.324ZM25.4957 30.2905C25.6981 30.4026 25.941 30.415 26.1538 30.324L25.7607 29.4045C25.8316 29.3742 25.9126 29.3783 25.9801 29.4157L25.4957 30.2905ZM24.3558 29.6593L25.4957 30.2905L25.9801 29.4157L24.8402 28.7845L24.3558 29.6593ZM20.5129 26.8484L24.3025 29.6252L24.8936 28.8186L21.1039 26.0418L20.5129 26.8484ZM19.3804 27.78L21.0451 26.8855L20.5717 26.0047L18.9071 26.8992L19.3804 27.78ZM18.6967 28.0745L19.3403 27.7993L18.9472 26.8799L18.3036 27.1551L18.6967 28.0745ZM17.3841 27.5482C17.6012 28.056 18.1889 28.2917 18.6967 28.0745L18.3036 27.1551L17.3841 27.5482ZM16.7944 26.169L17.3841 27.5482L18.3036 27.1551L17.7139 25.7758L16.7944 26.169ZM17.3207 24.8564C16.8129 25.0735 16.5773 25.6612 16.7944 26.169L17.7139 25.7758L17.3207 24.8564ZM17.9644 24.5812L17.3207 24.8564L17.7139 25.7758L18.3575 25.5006L17.9644 24.5812ZM18.5355 24.393L18.006 24.5655L18.3158 25.5163L18.8453 25.3438L18.5355 24.393ZM14.9288 22.2201L18.3598 25.2435L19.0209 24.4933L15.5899 21.4698L14.9288 22.2201ZM12.6985 23.5304L15.4625 22.3019L15.0563 21.3881L12.2923 22.6166L12.6985 23.5304Z" fill="white" mask="url(#path-1-outside-1_3363_3997)"/>
        <path d="M18.5 27.6145C18.2461 27.723 17.9523 27.6052 17.8437 27.3513L17.254 25.9721C17.1455 25.7182 17.2633 25.4243 17.5172 25.3158L18.1608 25.0406L20.8337 24.1697L21.6199 26.0086L19.1437 27.3393L18.5 27.6145Z" fill="#573CFF"/>
        <path opacity="0.3" d="M18.1608 25.0404L20.8336 24.1694L21.6199 26.0084L20.3818 26.6737L18.1608 25.0404Z" fill="#292838"/>
        <path d="M22.6346 24.7527C22.547 24.7937 22.4428 24.7539 22.4048 24.665L22.3473 24.5306C22.3093 24.4416 22.3525 24.3389 22.4427 24.3038L23.4903 23.8966C23.5942 23.8562 23.7115 23.9055 23.7553 24.0081C23.7991 24.1106 23.7538 24.2294 23.6528 24.2767L22.6346 24.7527Z" fill="#573CFF"/>
        <path opacity="0.3" d="M22.4744 24.8276L22.2778 24.3679L23.0712 24.0613L23.3821 24.4069L22.4744 24.8276Z" fill="#292838"/>
        <path d="M25.9572 29.864C25.8863 29.8944 25.8053 29.8903 25.7378 29.8529L24.598 29.2217L18.8569 25.015L14.4943 21.1706L19.2575 18.9603L22.5998 24.2303L25.8131 28.5662L26.5034 29.2577C26.6284 29.3828 26.5874 29.5946 26.4248 29.6641L25.9572 29.864Z" fill="#573CFF"/>
        <path opacity="0.3" d="M15.5849 22.1315L14.4943 21.1704L19.2575 18.9601L20.0931 20.2776L15.5849 22.1315Z" fill="#292838"/>
        <path d="M11.8169 11.9836C11.563 12.0922 11.4452 12.386 11.5537 12.6399L12.1434 14.0191C12.252 14.273 12.5458 14.3909 12.7998 14.2823L13.4434 14.0071L15.9197 12.6765L15.1334 10.8375L12.4606 11.7084L11.8169 11.9836Z" fill="#573CFF"/>
        <path opacity="0.3" d="M13.4435 14.007L15.9197 12.6764L15.1335 10.8374L13.797 11.2729L13.4435 14.007Z" fill="#292838"/>
        <path d="M16.7425 10.9716C16.6524 11.0066 16.6092 11.1094 16.6472 11.1983L16.7047 11.3327C16.7427 11.4217 16.8468 11.4614 16.9345 11.4205L17.9526 10.9444C18.0536 10.8972 18.099 10.7784 18.0551 10.6758C18.0113 10.5733 17.894 10.524 17.7901 10.5644L16.7425 10.9716Z" fill="#573CFF"/>
        <path opacity="0.3" d="M16.5776 11.0356L16.7742 11.4954L17.544 11.1336L17.5089 10.6701L16.5776 11.0356Z" fill="#292838"/>
        <path d="M15.3427 5.03836C15.2718 5.06869 15.2188 5.13007 15.1992 5.20469L14.868 6.46484L13.9429 13.5218L13.7081 19.3319L18.5969 17.4153L17.0961 11.3579L16.1815 6.03921L16.1585 5.06245C16.1543 4.88563 15.9729 4.76893 15.8103 4.83846L15.3427 5.03836Z" fill="#573CFF"/>
        <path opacity="0.3" d="M13.7668 17.8795L13.7081 19.3321L18.5969 17.4155L18.2217 15.9012L13.7668 17.8795Z" fill="#292838"/>
        <path d="M30.0583 18.8665C30.0212 18.8824 29.9781 18.8744 29.9492 18.8463L26.5038 15.4922L28.491 14.0988L30.2601 18.2364L30.5632 18.4933C30.6199 18.5413 30.6062 18.6323 30.5378 18.6615L30.0583 18.8665Z" fill="#573CFF"/>
        <path opacity="0.2" d="M27.2462 16.2016L26.5037 15.4919L28.4908 14.0985L29.0093 15.3111L27.2462 16.2016Z" fill="#292838"/>
        <path d="M26.1269 9.67172C26.0898 9.68759 26.0658 9.72423 26.0662 9.76459L26.1107 14.5727L28.491 14.0988L26.7219 9.9611L26.7456 9.56459C26.75 9.49039 26.6748 9.43746 26.6064 9.46669L26.1269 9.67172Z" fill="#573CFF"/>
        <path opacity="0.1" d="M26.1105 13.5454L26.1106 14.5726L28.4909 14.0986L27.9724 12.8861L26.1105 13.5454Z" fill="#292838"/>
        <path d="M12.4955 23.0733C10.9545 23.7583 9.30296 24.1604 7.61964 24.2605L6.89131 24.3038C6.4921 24.3275 6.12095 24.0981 5.96373 23.7304C5.80651 23.3627 5.89705 22.9358 6.19003 22.6636L6.72453 22.167C7.95988 21.0192 9.39165 20.1029 10.9514 19.4621L23.0187 14.5045C24.2285 14.0074 25.5162 13.7266 26.8232 13.6747L28.4866 13.6087C28.6872 13.6008 28.8718 13.7174 28.9507 13.902C29.0297 14.0865 28.9864 14.3007 28.8421 14.4402L27.6452 15.5971C26.7047 16.5062 25.612 17.2431 24.4168 17.7744L12.4955 23.0733Z" fill="#573CFF"/>
        <path opacity="0.3" d="M7.03305 22.3378C7.02474 22.6192 7.07813 22.915 7.2006 23.2014C7.32306 23.4879 7.50003 23.7308 7.70916 23.9192C7.16817 23.9879 6.70404 23.8287 6.55402 23.4779C6.40399 23.127 6.60959 22.6814 7.03305 22.3378Z" fill="#292838"/>
        <rect opacity="0.3" x="12.4675" y="22.853" width="0.5" height="0.5" transform="rotate(-113.15 12.4675 22.853)" fill="#292838"/>
        <rect opacity="0.3" x="13.5479" y="22.3911" width="0.5" height="0.5" transform="rotate(-113.15 13.5479 22.3911)" fill="#292838"/>
        <rect opacity="0.3" x="14.6279" y="21.9292" width="0.5" height="0.5" transform="rotate(-113.15 14.6279 21.9292)" fill="#292838"/>
        <rect opacity="0.3" x="15.7083" y="21.4673" width="0.5" height="0.5" transform="rotate(-113.15 15.7083 21.4673)" fill="#292838"/>
        <rect opacity="0.3" x="16.7883" y="21.0054" width="0.5" height="0.5" transform="rotate(-113.15 16.7883 21.0054)" fill="#292838"/>
        <rect opacity="0.3" x="17.8687" y="20.5435" width="0.5" height="0.5" transform="rotate(-113.15 17.8687 20.5435)" fill="#292838"/>
        <rect opacity="0.3" x="18.9487" y="20.082" width="0.5" height="0.5" transform="rotate(-113.15 18.9487 20.082)" fill="#292838"/>
        <rect opacity="0.3" x="20.0291" y="19.6201" width="0.5" height="0.5" transform="rotate(-113.15 20.0291 19.6201)" fill="#292838"/>
        <rect opacity="0.3" x="21.1091" y="19.1582" width="0.5" height="0.5" transform="rotate(-113.15 21.1091 19.1582)" fill="#292838"/>
        <rect opacity="0.3" x="22.1895" y="18.6963" width="0.5" height="0.5" transform="rotate(-113.15 22.1895 18.6963)" fill="#292838"/>
        <rect opacity="0.3" x="11.2881" y="20.0947" width="0.5" height="0.5" transform="rotate(-113.15 11.2881 20.0947)" fill="#292838"/>
        <rect opacity="0.3" x="12.3684" y="19.6328" width="0.5" height="0.5" transform="rotate(-113.15 12.3684 19.6328)" fill="#292838"/>
        <rect opacity="0.3" x="13.4485" y="19.1709" width="0.5" height="0.5" transform="rotate(-113.15 13.4485 19.1709)" fill="#292838"/>
        <rect opacity="0.3" x="14.5288" y="18.709" width="0.5" height="0.5" transform="rotate(-113.15 14.5288 18.709)" fill="#292838"/>
        <rect opacity="0.3" x="15.6089" y="18.2471" width="0.5" height="0.5" transform="rotate(-113.15 15.6089 18.2471)" fill="#292838"/>
        <rect opacity="0.3" x="16.6892" y="17.7852" width="0.5" height="0.5" transform="rotate(-113.15 16.6892 17.7852)" fill="#292838"/>
        <rect opacity="0.3" x="17.7693" y="17.3232" width="0.5" height="0.5" transform="rotate(-113.15 17.7693 17.3232)" fill="#292838"/>
        <rect opacity="0.3" x="18.8496" y="16.8613" width="0.5" height="0.5" transform="rotate(-113.15 18.8496 16.8613)" fill="#292838"/>
        <rect opacity="0.3" x="19.9299" y="16.3994" width="0.5" height="0.5" transform="rotate(-113.15 19.9299 16.3994)" fill="#292838"/>
        <rect opacity="0.3" x="21.01" y="15.938" width="0.5" height="0.5" transform="rotate(-113.15 21.01 15.938)" fill="#292838"/>
        <path opacity="0.3" d="M24.2683 15.9995L28.0647 14.3762C28.1377 14.5468 28.0492 14.7434 27.8731 14.8019L24.2683 15.9995Z" fill="#292838"/>
        <path d="M25.318 15.3415L27.932 14.0659L30.6602 13.0574C30.7102 13.039 30.7659 13.0629 30.7868 13.1119L30.7906 13.1209C30.8116 13.1699 30.7904 13.2267 30.7425 13.2501L28.1286 14.5257L25.4004 15.5342C25.3504 15.5526 25.2947 15.5287 25.2737 15.4797L25.2699 15.4707C25.249 15.4217 25.2701 15.3649 25.318 15.3415Z" fill="#573CFF"/>
    </g>
    <defs>
        <clipPath id="clip0_3363_3997">
            <rect width="28" height="28" fill="white" transform="translate(11.0078 36.7998) rotate(-113.15)"/>
        </clipPath>
    </defs>
</svg>
