<svg width="29" height="29" viewBox="0 0 29 29" fill="none" xmlns="http://www.w3.org/2000/svg">
    <g clip-path="url(#clip0_3469_50261)">
        <mask id="path-1-outside-1_3469_50261" maskUnits="userSpaceOnUse" x="-0.123353" y="-0.0769055" width="29" height="29" fill="black">
            <rect fill="white" x="-0.123353" y="-0.0769055" width="29" height="29"/>
            <path d="M7.14075 16.3868C5.45463 16.4108 3.77795 16.1313 2.19082 15.5615L1.50411 15.315C1.12771 15.1799 0.876647 14.823 0.876647 14.4231C0.876647 14.0232 1.12771 13.6663 1.50411 13.5312L2.19082 13.2847C3.77795 12.7149 5.45463 12.4354 7.14074 12.4594L10.1652 12.5024L12.1313 8.37357L11.5766 8.4231L10.8766 8.4231C10.6005 8.4231 10.3766 8.19924 10.3766 7.9231L10.3766 6.4231C10.3766 6.14695 10.6005 5.9231 10.8766 5.9231L11.5766 5.9231L13.4589 6.09116L15.8517 2.0481L16.6517 1.01961C16.699 0.958713 16.7719 0.923095 16.849 0.923095L17.3575 0.923095C17.5344 0.923095 17.6553 1.10173 17.5896 1.26594L17.2267 2.17309L16.0921 6.93861L16.9268 6.96643C17.0382 6.97015 17.1266 7.06158 17.1266 7.17309C17.1266 7.28461 17.0382 7.37604 16.9268 7.37976L15.9795 7.41133L15.9767 7.4231L15.1395 12.5732L20.1854 12.645C21.2522 12.6601 22.31 12.828 23.327 13.1423L24.851 9.48463C24.8665 9.44737 24.9029 9.42309 24.9433 9.42309L25.4648 9.42309C25.5392 9.42309 25.5875 9.50133 25.5543 9.56782L25.3766 9.92309L25.3766 13.8991L25.5652 13.971C25.6861 14.0171 25.7805 14.1082 25.8324 14.2209L27.7807 14.3183C27.8339 14.321 27.8757 14.3649 27.8757 14.4182L27.8757 14.428C27.8757 14.4813 27.8339 14.5252 27.7807 14.5278L25.8324 14.6253C25.7805 14.738 25.6861 14.8291 25.5652 14.8752L25.3766 14.9471L25.3766 18.9231L25.5543 19.2784C25.5875 19.3449 25.5392 19.4231 25.4648 19.4231L24.9433 19.4231C24.9029 19.4231 24.8665 19.3988 24.851 19.3616L23.327 15.7039C22.31 16.0182 21.2522 16.186 20.1854 16.2012L15.1395 16.273L15.9767 21.4231L15.9795 21.4349L16.9268 21.4664C17.0382 21.4701 17.1266 21.5616 17.1266 21.6731C17.1266 21.7846 17.0382 21.876 16.9268 21.8798L16.0921 21.9076L17.2267 26.6731L17.5896 27.5802C17.6553 27.7445 17.5344 27.9231 17.3575 27.9231L16.849 27.9231C16.7719 27.9231 16.699 27.8875 16.6517 27.8266L15.8517 26.7981L13.4589 22.755L11.5766 22.9231L10.8766 22.9231C10.6005 22.9231 10.3766 22.6992 10.3766 22.4231L10.3766 20.9231C10.3766 20.647 10.6005 20.4231 10.8766 20.4231L11.5766 20.4231L12.1313 20.4726L10.1652 16.3438L7.14075 16.3868Z"/>
        </mask>
        <path d="M7.14075 16.3868C5.45463 16.4108 3.77795 16.1313 2.19082 15.5615L1.50411 15.315C1.12771 15.1799 0.876647 14.823 0.876647 14.4231C0.876647 14.0232 1.12771 13.6663 1.50411 13.5312L2.19082 13.2847C3.77795 12.7149 5.45463 12.4354 7.14074 12.4594L10.1652 12.5024L12.1313 8.37357L11.5766 8.4231L10.8766 8.4231C10.6005 8.4231 10.3766 8.19924 10.3766 7.9231L10.3766 6.4231C10.3766 6.14695 10.6005 5.9231 10.8766 5.9231L11.5766 5.9231L13.4589 6.09116L15.8517 2.0481L16.6517 1.01961C16.699 0.958713 16.7719 0.923095 16.849 0.923095L17.3575 0.923095C17.5344 0.923095 17.6553 1.10173 17.5896 1.26594L17.2267 2.17309L16.0921 6.93861L16.9268 6.96643C17.0382 6.97015 17.1266 7.06158 17.1266 7.17309C17.1266 7.28461 17.0382 7.37604 16.9268 7.37976L15.9795 7.41133L15.9767 7.4231L15.1395 12.5732L20.1854 12.645C21.2522 12.6601 22.31 12.828 23.327 13.1423L24.851 9.48463C24.8665 9.44737 24.9029 9.42309 24.9433 9.42309L25.4648 9.42309C25.5392 9.42309 25.5875 9.50133 25.5543 9.56782L25.3766 9.92309L25.3766 13.8991L25.5652 13.971C25.6861 14.0171 25.7805 14.1082 25.8324 14.2209L27.7807 14.3183C27.8339 14.321 27.8757 14.3649 27.8757 14.4182L27.8757 14.428C27.8757 14.4813 27.8339 14.5252 27.7807 14.5278L25.8324 14.6253C25.7805 14.738 25.6861 14.8291 25.5652 14.8752L25.3766 14.9471L25.3766 18.9231L25.5543 19.2784C25.5875 19.3449 25.5392 19.4231 25.4648 19.4231L24.9433 19.4231C24.9029 19.4231 24.8665 19.3988 24.851 19.3616L23.327 15.7039C22.31 16.0182 21.2522 16.186 20.1854 16.2012L15.1395 16.273L15.9767 21.4231L15.9795 21.4349L16.9268 21.4664C17.0382 21.4701 17.1266 21.5616 17.1266 21.6731C17.1266 21.7846 17.0382 21.876 16.9268 21.8798L16.0921 21.9076L17.2267 26.6731L17.5896 27.5802C17.6553 27.7445 17.5344 27.9231 17.3575 27.9231L16.849 27.9231C16.7719 27.9231 16.699 27.8875 16.6517 27.8266L15.8517 26.7981L13.4589 22.755L11.5766 22.9231L10.8766 22.9231C10.6005 22.9231 10.3766 22.6992 10.3766 22.4231L10.3766 20.9231C10.3766 20.647 10.6005 20.4231 10.8766 20.4231L11.5766 20.4231L12.1313 20.4726L10.1652 16.3438L7.14075 16.3868Z" fill="#573CFF"/>
        <path d="M2.19082 15.5615L2.35975 15.0909L2.35975 15.0909L2.19082 15.5615ZM7.14075 16.3868L7.13363 15.8869L7.14075 16.3868ZM1.50411 15.315L1.67304 14.8444L1.67304 14.8444L1.50411 15.315ZM1.50411 13.5312L1.67304 14.0018L1.67304 14.0018L1.50411 13.5312ZM2.19082 13.2847L2.02189 12.8141L2.19082 13.2847ZM7.14074 12.4594L7.13363 12.9593L7.14074 12.4594ZM10.1652 12.5024L10.1581 13.0024L10.4787 13.0069L10.6166 12.7174L10.1652 12.5024ZM12.1313 8.37357L12.5827 8.58854L12.9593 7.79765L12.0868 7.87556L12.1313 8.37357ZM11.5766 8.4231L11.5766 8.9231L11.5989 8.9231L11.6211 8.92111L11.5766 8.4231ZM11.5766 5.9231L11.6211 5.42508L11.5989 5.4231L11.5766 5.4231L11.5766 5.9231ZM13.4589 6.09116L13.4144 6.58917L13.7286 6.61722L13.8892 6.34582L13.4589 6.09116ZM15.8517 2.0481L15.4571 1.74112L15.4376 1.76615L15.4215 1.79344L15.8517 2.0481ZM16.6517 1.01961L17.0464 1.32658L17.0464 1.32658L16.6517 1.01961ZM17.5896 1.26594L18.0538 1.45164L18.0538 1.45163L17.5896 1.26594ZM17.2267 2.17309L16.7625 1.9874L16.7489 2.02153L16.7403 2.05728L17.2267 2.17309ZM16.0921 6.93861L15.6057 6.8228L15.464 7.41795L16.0754 7.43833L16.0921 6.93861ZM16.9268 6.96643L16.9434 6.46671L16.9434 6.46671L16.9268 6.96643ZM16.9268 7.37976L16.9434 7.87948L16.9434 7.87948L16.9268 7.37976ZM15.9795 7.41133L15.9629 6.91161L15.5815 6.92432L15.4931 7.29553L15.9795 7.41133ZM15.9767 7.4231L15.4903 7.30729L15.4861 7.32495L15.4832 7.34286L15.9767 7.4231ZM15.1395 12.5732L14.646 12.4929L14.553 13.0649L15.1324 13.0731L15.1395 12.5732ZM20.1854 12.645L20.1782 13.1449L20.1854 12.645ZM23.327 13.1423L23.1793 13.62L23.6137 13.7542L23.7885 13.3346L23.327 13.1423ZM24.851 9.48463L25.3125 9.67694L25.3126 9.67692L24.851 9.48463ZM25.3766 9.92309L24.9294 9.69949L24.8766 9.80506L24.8766 9.92309L25.3766 9.92309ZM25.3766 13.8991L24.8766 13.8991L24.8766 14.2435L25.1985 14.3662L25.3766 13.8991ZM25.5652 13.971L25.387 14.4381L25.387 14.4381L25.5652 13.971ZM25.8324 14.2209L25.3782 14.4299L25.5048 14.7052L25.8074 14.7203L25.8324 14.2209ZM27.7807 14.3183L27.8056 13.819L27.8056 13.819L27.7807 14.3183ZM27.7807 14.5278L27.8056 15.0272L27.8056 15.0272L27.7807 14.5278ZM25.8324 14.6253L25.8074 14.1259L25.5048 14.141L25.3782 14.4163L25.8324 14.6253ZM25.5652 14.8752L25.387 14.408L25.387 14.408L25.5652 14.8752ZM25.3766 14.9471L25.1985 14.48L24.8766 14.6027L24.8766 14.9471L25.3766 14.9471ZM25.3766 18.9231L24.8766 18.9231L24.8766 19.0411L24.9294 19.1467L25.3766 18.9231ZM25.5543 19.2784L25.1071 19.502L25.1071 19.502L25.5543 19.2784ZM24.851 19.3616L25.3126 19.1693L25.3125 19.1692L24.851 19.3616ZM23.327 15.7039L23.7885 15.5116L23.6137 15.092L23.1793 15.2262L23.327 15.7039ZM20.1854 16.2012L20.1782 15.7013L20.1854 16.2012ZM15.1395 16.273L15.1324 15.7731L14.553 15.7813L14.646 16.3532L15.1395 16.273ZM15.9767 21.4231L15.4832 21.5033L15.4861 21.5212L15.4903 21.5389L15.9767 21.4231ZM15.9795 21.4349L15.4931 21.5507L15.5815 21.9219L15.9629 21.9346L15.9795 21.4349ZM16.9268 21.4664L16.9434 20.9667L16.9434 20.9667L16.9268 21.4664ZM16.9268 21.8798L16.9434 22.3795L16.9434 22.3795L16.9268 21.8798ZM16.0921 21.9076L16.0754 21.4079L15.464 21.4282L15.6057 22.0234L16.0921 21.9076ZM17.2267 26.6731L16.7403 26.7889L16.7489 26.8247L16.7625 26.8588L17.2267 26.6731ZM17.5896 27.5802L18.0538 27.3946L18.0538 27.3946L17.5896 27.5802ZM16.6517 27.8266L16.257 28.1336L16.257 28.1336L16.6517 27.8266ZM15.8517 26.7981L15.4215 27.0528L15.4376 27.08L15.4571 27.1051L15.8517 26.7981ZM13.4589 22.755L13.8892 22.5004L13.7286 22.229L13.4144 22.257L13.4589 22.755ZM11.5766 22.9231L11.5766 23.4231L11.5989 23.4231L11.6211 23.4211L11.5766 22.9231ZM11.5766 20.4231L11.6211 19.9251L11.5989 19.9231L11.5766 19.9231L11.5766 20.4231ZM12.1313 20.4726L12.0868 20.9706L12.9593 21.0485L12.5827 20.2576L12.1313 20.4726ZM10.1652 16.3438L10.6166 16.1288L10.4787 15.8393L10.1581 15.8438L10.1652 16.3438ZM2.02189 16.0321C3.66546 16.6221 5.40177 16.9116 7.14786 16.8868L7.13363 15.8869C5.50748 15.91 3.89043 15.6404 2.35975 15.0909L2.02189 16.0321ZM1.33518 15.7856L2.02189 16.0321L2.35975 15.0909L1.67304 14.8444L1.33518 15.7856ZM0.376647 14.4231C0.376647 15.034 0.760176 15.5792 1.33518 15.7856L1.67304 14.8444C1.49524 14.7806 1.37665 14.612 1.37665 14.4231L0.376647 14.4231ZM1.33518 13.0606C0.760175 13.267 0.376647 13.8122 0.376647 14.4231L1.37665 14.4231C1.37665 14.2342 1.49524 14.0656 1.67304 14.0018L1.33518 13.0606ZM2.02189 12.8141L1.33518 13.0606L1.67304 14.0018L2.35975 13.7553L2.02189 12.8141ZM7.14786 11.9594C5.40177 11.9346 3.66546 12.2241 2.02189 12.8141L2.35975 13.7553C3.89043 13.2058 5.50748 12.9362 7.13363 12.9593L7.14786 11.9594ZM10.1723 12.0025L7.14786 11.9594L7.13363 12.9593L10.1581 13.0024L10.1723 12.0025ZM11.6798 8.15861L9.71374 12.2874L10.6166 12.7174L12.5827 8.58854L11.6798 8.15861ZM11.6211 8.92111L12.1757 8.87159L12.0868 7.87556L11.5322 7.92508L11.6211 8.92111ZM10.8766 8.9231L11.5766 8.9231L11.5766 7.9231L10.8766 7.9231L10.8766 8.9231ZM9.87665 7.9231C9.87665 8.47538 10.3244 8.9231 10.8766 8.9231L10.8766 7.9231L9.87665 7.9231ZM9.87665 6.4231L9.87665 7.9231L10.8766 7.9231L10.8766 6.4231L9.87665 6.4231ZM10.8766 5.4231C10.3244 5.4231 9.87665 5.87081 9.87665 6.4231L10.8766 6.4231L10.8766 5.4231ZM11.5766 5.4231L10.8766 5.4231L10.8766 6.4231L11.5766 6.4231L11.5766 5.4231ZM13.5034 5.59314L11.6211 5.42508L11.5322 6.42111L13.4144 6.58917L13.5034 5.59314ZM15.4215 1.79344L13.0286 5.8365L13.8892 6.34582L16.282 2.30275L15.4215 1.79344ZM16.257 0.71264L15.4571 1.74112L16.2464 2.35507L17.0464 1.32658L16.257 0.71264ZM16.849 0.423095C16.6176 0.423095 16.3991 0.529949 16.257 0.712644L17.0464 1.32658C16.999 1.38748 16.9262 1.4231 16.849 1.4231L16.849 0.423095ZM17.3575 0.423095L16.849 0.423095L16.849 1.4231L17.3575 1.42309L17.3575 0.423095ZM18.0538 1.45163C18.2509 0.958987 17.8881 0.423095 17.3575 0.423095L17.3575 1.42309C17.1806 1.42309 17.0597 1.24446 17.1254 1.08025L18.0538 1.45163ZM17.691 2.35879L18.0538 1.45164L17.1254 1.08025L16.7625 1.9874L17.691 2.35879ZM16.5785 7.05442L17.7131 2.28891L16.7403 2.05728L15.6057 6.8228L16.5785 7.05442ZM16.9434 6.46671L16.1088 6.43889L16.0754 7.43833L16.9101 7.46615L16.9434 6.46671ZM17.6266 7.17309C17.6266 6.79192 17.3244 6.47941 16.9434 6.46671L16.9101 7.46615C16.752 7.46089 16.6266 7.33124 16.6266 7.1731L17.6266 7.17309ZM16.9434 7.87948C17.3244 7.86678 17.6266 7.55427 17.6266 7.17309L16.6266 7.1731C16.6266 7.01495 16.752 6.8853 16.9101 6.88004L16.9434 7.87948ZM15.9962 7.91105L16.9434 7.87948L16.9101 6.88004L15.9629 6.91161L15.9962 7.91105ZM16.4631 7.5389L16.466 7.52714L15.4931 7.29553L15.4903 7.30729L16.4631 7.5389ZM15.633 12.6534L16.4703 7.50333L15.4832 7.34286L14.646 12.4929L15.633 12.6534ZM20.1925 12.145L15.1466 12.0732L15.1324 13.0731L20.1782 13.1449L20.1925 12.145ZM23.4746 12.6646C22.4122 12.3362 21.307 12.1609 20.1925 12.145L20.1782 13.1449C21.1973 13.1594 22.2079 13.3197 23.1793 13.62L23.4746 12.6646ZM24.3895 9.29232L22.8655 12.95L23.7885 13.3346L25.3125 9.67694L24.3895 9.29232ZM24.9433 8.92309C24.7011 8.92309 24.4826 9.06873 24.3895 9.29234L25.3126 9.67692C25.2504 9.82601 25.1048 9.92309 24.9433 9.92309L24.9433 8.92309ZM25.4648 8.92309L24.9433 8.92309L24.9433 9.92309L25.4648 9.92309L25.4648 8.92309ZM26.0015 9.79142C26.201 9.39248 25.9109 8.92309 25.4648 8.92309L25.4648 9.92309C25.1675 9.92309 24.9741 9.61017 25.1071 9.34421L26.0015 9.79142ZM25.8239 10.1467L26.0015 9.79142L25.1071 9.34421L24.9294 9.69949L25.8239 10.1467ZM25.8766 13.8991L25.8766 9.92309L24.8766 9.92309L24.8766 13.8991L25.8766 13.8991ZM25.7434 13.5038L25.5548 13.4319L25.1985 14.3662L25.387 14.4381L25.7434 13.5038ZM26.2866 14.0119C26.1813 13.7831 25.9893 13.5976 25.7434 13.5038L25.387 14.4381C25.3829 14.4366 25.3797 14.4333 25.3782 14.4299L26.2866 14.0119ZM25.8074 14.7203L27.7557 14.8177L27.8056 13.819L25.8574 13.7216L25.8074 14.7203ZM27.7557 14.8177C27.5428 14.8071 27.3757 14.6314 27.3757 14.4182L28.3757 14.4182C28.3757 14.0985 28.1249 13.8349 27.8056 13.819L27.7557 14.8177ZM27.3757 14.4182L27.3757 14.428L28.3757 14.428L28.3757 14.4182L27.3757 14.4182ZM27.3757 14.428C27.3757 14.2148 27.5428 14.0391 27.7557 14.0285L27.8056 15.0272C28.1249 15.0113 28.3757 14.7477 28.3757 14.428L27.3757 14.428ZM27.7557 14.0285L25.8074 14.1259L25.8574 15.1246L27.8056 15.0272L27.7557 14.0285ZM25.7434 15.3424C25.9893 15.2486 26.1813 15.0631 26.2866 14.8343L25.3782 14.4163C25.3797 14.4129 25.3829 14.4096 25.387 14.408L25.7434 15.3424ZM25.5548 15.4143L25.7434 15.3424L25.387 14.408L25.1985 14.48L25.5548 15.4143ZM25.8766 18.9231L25.8766 14.9471L24.8766 14.9471L24.8766 18.9231L25.8766 18.9231ZM26.0015 19.0548L25.8239 18.6995L24.9294 19.1467L25.1071 19.502L26.0015 19.0548ZM25.4648 19.9231C25.9109 19.9231 26.201 19.4537 26.0015 19.0548L25.1071 19.502C24.9741 19.236 25.1675 18.9231 25.4648 18.9231L25.4648 19.9231ZM24.9433 19.9231L25.4648 19.9231L25.4648 18.9231L24.9433 18.9231L24.9433 19.9231ZM24.3895 19.5539C24.4826 19.7775 24.7011 19.9231 24.9433 19.9231L24.9433 18.9231C25.1048 18.9231 25.2504 19.0202 25.3126 19.1693L24.3895 19.5539ZM22.8655 15.8962L24.3895 19.5539L25.3125 19.1692L23.7885 15.5116L22.8655 15.8962ZM20.1925 16.7012C21.307 16.6853 22.4122 16.51 23.4746 16.1816L23.1793 15.2262C22.2079 15.5265 21.1973 15.6868 20.1782 15.7013L20.1925 16.7012ZM15.1466 16.773L20.1925 16.7012L20.1782 15.7013L15.1324 15.7731L15.1466 16.773ZM16.4703 21.3429L15.633 16.1928L14.646 16.3532L15.4832 21.5033L16.4703 21.3429ZM16.4659 21.319L16.4631 21.3073L15.4903 21.5389L15.4931 21.5507L16.4659 21.319ZM16.9434 20.9667L15.9962 20.9351L15.9629 21.9346L16.9101 21.9662L16.9434 20.9667ZM17.6266 21.6731C17.6266 21.2919 17.3244 20.9794 16.9434 20.9667L16.9101 21.9662C16.752 21.9609 16.6266 21.8312 16.6266 21.6731L17.6266 21.6731ZM16.9434 22.3795C17.3244 22.3668 17.6266 22.0543 17.6266 21.6731L16.6266 21.6731C16.6266 21.515 16.752 21.3853 16.9101 21.38L16.9434 22.3795ZM16.1088 22.4073L16.9434 22.3795L16.9101 21.38L16.0754 21.4079L16.1088 22.4073ZM17.7131 26.5573L16.5785 21.7918L15.6057 22.0234L16.7403 26.7889L17.7131 26.5573ZM18.0538 27.3946L17.691 26.4874L16.7625 26.8588L17.1254 27.7659L18.0538 27.3946ZM17.3575 28.4231C17.8881 28.4231 18.2509 27.8872 18.0538 27.3946L17.1254 27.7659C17.0597 27.6017 17.1806 27.4231 17.3575 27.4231L17.3575 28.4231ZM16.849 28.4231L17.3575 28.4231L17.3575 27.4231L16.849 27.4231L16.849 28.4231ZM16.257 28.1336C16.3991 28.3162 16.6176 28.4231 16.849 28.4231L16.849 27.4231C16.9262 27.4231 16.999 27.4587 17.0464 27.5196L16.257 28.1336ZM15.4571 27.1051L16.257 28.1336L17.0464 27.5196L16.2464 26.4911L15.4571 27.1051ZM13.0286 23.0097L15.4215 27.0528L16.282 26.5434L13.8892 22.5004L13.0286 23.0097ZM11.6211 23.4211L13.5034 23.2531L13.4144 22.257L11.5322 22.4251L11.6211 23.4211ZM10.8766 23.4231L11.5766 23.4231L11.5766 22.4231L10.8766 22.4231L10.8766 23.4231ZM9.87665 22.4231C9.87665 22.9754 10.3244 23.4231 10.8766 23.4231L10.8766 22.4231L9.87665 22.4231ZM9.87665 20.9231L9.87665 22.4231L10.8766 22.4231L10.8766 20.9231L9.87665 20.9231ZM10.8766 19.9231C10.3244 19.9231 9.87665 20.3708 9.87665 20.9231L10.8766 20.9231L10.8766 19.9231ZM11.5766 19.9231L10.8766 19.9231L10.8766 20.9231L11.5766 20.9231L11.5766 19.9231ZM12.1757 19.9746L11.6211 19.9251L11.5322 20.9211L12.0868 20.9706L12.1757 19.9746ZM9.71374 16.5588L11.6798 20.6876L12.5827 20.2576L10.6166 16.1288L9.71374 16.5588ZM7.14786 16.8868L10.1723 16.8437L10.1581 15.8438L7.13363 15.8869L7.14786 16.8868Z" fill="white" mask="url(#path-1-outside-1_3469_50261)"/>
        <path d="M10.8766 22.9231C10.6005 22.9231 10.3766 22.6992 10.3766 22.4231L10.3766 20.9231C10.3766 20.647 10.6005 20.4231 10.8766 20.4231L11.5766 20.4231L14.3766 20.6731L14.3766 22.6731L11.5766 22.9231L10.8766 22.9231Z" fill="#573CFF"/>
        <path opacity="0.3" d="M11.5766 20.4231L14.3766 20.6731L14.3766 22.6731L12.9766 22.7981L11.5766 20.4231Z" fill="#292838"/>
        <path d="M15.8034 21.9172C15.7068 21.9204 15.6266 21.8429 15.6266 21.7462L15.6266 21.6C15.6266 21.5033 15.7068 21.4258 15.8034 21.429L16.9268 21.4664C17.0382 21.4701 17.1266 21.5616 17.1266 21.6731C17.1266 21.7846 17.0382 21.876 16.9268 21.8798L15.8034 21.9172Z" fill="#573CFF"/>
        <path opacity="0.3" d="M15.6266 21.9231L15.6266 21.4231L16.4766 21.4531L16.6266 21.8931L15.6266 21.9231Z" fill="#292838"/>
        <path d="M16.849 27.9231C16.7719 27.9231 16.699 27.8875 16.6517 27.8266L15.8517 26.7981L12.2267 20.6731L9.72675 15.4231L14.9754 15.2634L15.9767 21.4231L17.2267 26.6731L17.5896 27.5802C17.6553 27.7445 17.5344 27.9231 17.3575 27.9231L16.849 27.9231Z" fill="#573CFF"/>
        <path opacity="0.3" d="M10.3517 16.7355L9.72675 15.423L14.9754 15.2633L15.2257 16.8032L10.3517 16.7355Z" fill="#292838"/>
        <path d="M10.8766 5.9231C10.6005 5.9231 10.3766 6.14695 10.3766 6.4231L10.3766 7.9231C10.3766 8.19924 10.6005 8.4231 10.8766 8.4231L11.5766 8.4231L14.3766 8.1731L14.3766 6.1731L11.5766 5.9231L10.8766 5.9231Z" fill="#573CFF"/>
        <path opacity="0.3" d="M11.5766 8.4231L14.3766 8.1731L14.3766 6.1731L12.9766 6.0481L11.5766 8.4231Z" fill="#292838"/>
        <path d="M15.8034 6.92899C15.7068 6.92577 15.6266 7.00326 15.6266 7.09999L15.6266 7.2462C15.6266 7.34293 15.7068 7.42042 15.8034 7.4172L16.9268 7.37976C17.0382 7.37604 17.1266 7.28461 17.1266 7.1731C17.1266 7.06158 17.0382 6.97015 16.9268 6.96643L15.8034 6.92899Z" fill="#573CFF"/>
        <path opacity="0.3" d="M15.6266 6.9231L15.6266 7.4231L16.4766 7.3931L16.6266 6.9531L15.6266 6.9231Z" fill="#292838"/>
        <path d="M16.849 0.923095C16.7719 0.923095 16.699 0.958714 16.6517 1.01961L15.8517 2.0481L12.2267 8.1731L9.72675 13.4231L14.9754 13.5828L15.9767 7.4231L17.2267 2.1731L17.5896 1.26594C17.6553 1.10173 17.5344 0.923095 17.3575 0.923095L16.849 0.923095Z" fill="#573CFF"/>
        <path opacity="0.3" d="M10.3517 12.1107L9.72675 13.4232L14.9754 13.5829L15.2257 12.043L10.3517 12.1107Z" fill="#292838"/>
        <path d="M24.9433 19.4231C24.9029 19.4231 24.8665 19.3988 24.851 19.3616L23.0016 14.9231L25.3766 14.4231L25.3766 18.9231L25.5543 19.2784C25.5875 19.3449 25.5392 19.4231 25.4648 19.4231L24.9433 19.4231Z" fill="#573CFF"/>
        <path opacity="0.2" d="M23.4055 15.8677L23.0017 14.9231L25.3766 14.4232L25.3766 15.7419L23.4055 15.8677Z" fill="#292838"/>
        <path d="M24.9433 9.4231C24.9029 9.4231 24.8665 9.44737 24.851 9.48463L23.0016 13.9231L25.3766 14.4231L25.3766 9.9231L25.5543 9.56782C25.5875 9.50133 25.5392 9.4231 25.4648 9.4231L24.9433 9.4231Z" fill="#573CFF"/>
        <path opacity="0.1" d="M23.4055 12.9785L23.0017 13.9231L25.3766 14.423L25.3766 13.1043L23.4055 12.9785Z" fill="#292838"/>
        <path d="M7.14075 16.3868C5.45463 16.4108 3.77795 16.1313 2.19082 15.5615L1.50411 15.315C1.12771 15.1799 0.876648 14.823 0.876648 14.4231C0.876648 14.0232 1.12771 13.6663 1.50411 13.5312L2.19082 13.2847C3.77795 12.7149 5.45463 12.4354 7.14074 12.4594L20.1854 12.645C21.4932 12.6636 22.7876 12.9116 24.0098 13.3777L25.5652 13.971C25.7527 14.0425 25.8766 14.2224 25.8766 14.4231C25.8766 14.6238 25.7527 14.8037 25.5652 14.8752L24.0098 15.4685C22.7876 15.9346 21.4932 16.1826 20.1854 16.2012L7.14075 16.3868Z" fill="#573CFF"/>
        <path opacity="0.3" d="M2.40715 13.5631C2.28889 13.8185 2.22168 14.1115 2.22168 14.4231C2.22168 14.7346 2.28888 15.0275 2.40711 15.283C1.88267 15.1335 1.51849 14.8046 1.51849 14.423C1.51849 14.0414 1.88269 13.7126 2.40715 13.5631Z" fill="#292838"/>
        <rect opacity="0.3" x="7.20184" y="16.1731" width="0.5" height="0.5" transform="rotate(-90 7.20184 16.1731)" fill="#292838"/>
        <rect opacity="0.3" x="8.37665" y="16.1731" width="0.5" height="0.5" transform="rotate(-90 8.37665 16.1731)" fill="#292838"/>
        <rect opacity="0.3" x="9.55145" y="16.1731" width="0.5" height="0.5" transform="rotate(-90 9.55145 16.1731)" fill="#292838"/>
        <rect opacity="0.3" x="10.7263" y="16.1731" width="0.5" height="0.5" transform="rotate(-90 10.7263 16.1731)" fill="#292838"/>
        <rect opacity="0.3" x="11.9011" y="16.1731" width="0.5" height="0.5" transform="rotate(-90 11.9011 16.1731)" fill="#292838"/>
        <rect opacity="0.3" x="13.0759" y="16.1731" width="0.5" height="0.5" transform="rotate(-90 13.0759 16.1731)" fill="#292838"/>
        <rect opacity="0.3" x="14.2507" y="16.1731" width="0.5" height="0.5" transform="rotate(-90 14.2507 16.1731)" fill="#292838"/>
        <rect opacity="0.3" x="15.4255" y="16.1731" width="0.5" height="0.5" transform="rotate(-90 15.4255 16.1731)" fill="#292838"/>
        <rect opacity="0.3" x="16.6003" y="16.1731" width="0.5" height="0.5" transform="rotate(-90 16.6003 16.1731)" fill="#292838"/>
        <rect opacity="0.3" x="17.7751" y="16.1731" width="0.5" height="0.5" transform="rotate(-90 17.7751 16.1731)" fill="#292838"/>
        <rect opacity="0.3" x="7.20184" y="13.1731" width="0.5" height="0.5" transform="rotate(-90 7.20184 13.1731)" fill="#292838"/>
        <rect opacity="0.3" x="8.37665" y="13.1731" width="0.5" height="0.5" transform="rotate(-90 8.37665 13.1731)" fill="#292838"/>
        <rect opacity="0.3" x="9.55145" y="13.1731" width="0.5" height="0.5" transform="rotate(-90 9.55145 13.1731)" fill="#292838"/>
        <rect opacity="0.3" x="10.7263" y="13.1731" width="0.5" height="0.5" transform="rotate(-90 10.7263 13.1731)" fill="#292838"/>
        <rect opacity="0.3" x="11.9011" y="13.1731" width="0.5" height="0.5" transform="rotate(-90 11.9011 13.1731)" fill="#292838"/>
        <rect opacity="0.3" x="13.0759" y="13.1731" width="0.5" height="0.5" transform="rotate(-90 13.0759 13.1731)" fill="#292838"/>
        <rect opacity="0.3" x="14.2507" y="13.1731" width="0.5" height="0.5" transform="rotate(-90 14.2507 13.1731)" fill="#292838"/>
        <rect opacity="0.3" x="15.4255" y="13.1731" width="0.5" height="0.5" transform="rotate(-90 15.4255 13.1731)" fill="#292838"/>
        <rect opacity="0.3" x="16.6003" y="13.1731" width="0.5" height="0.5" transform="rotate(-90 16.6003 13.1731)" fill="#292838"/>
        <rect opacity="0.3" x="17.7751" y="13.1731" width="0.5" height="0.5" transform="rotate(-90 17.7751 13.1731)" fill="#292838"/>
        <path opacity="0.3" d="M20.7467 14.5108L24.8756 14.5108C24.8756 14.6963 24.717 14.8422 24.532 14.8268L20.7467 14.5108Z" fill="#292838"/>
        <path d="M21.9706 14.3183L24.8756 14.1731L27.7806 14.3183C27.8338 14.321 27.8756 14.3649 27.8756 14.4182L27.8756 14.428C27.8756 14.4813 27.8338 14.5252 27.7806 14.5278L24.8756 14.6731L21.9706 14.5278C21.9173 14.5252 21.8756 14.4813 21.8756 14.428L21.8756 14.4182C21.8756 14.3649 21.9173 14.321 21.9706 14.3183Z" fill="#573CFF"/>
    </g>
    <defs>
        <clipPath id="clip0_3469_50261">
            <rect width="28" height="28" fill="white" transform="translate(0.376648 28.4231) rotate(-90)"/>
        </clipPath>
    </defs>
</svg>
