<svg width="29" height="29" viewBox="0 0 29 29" fill="none" xmlns="http://www.w3.org/2000/svg">
    <g clipPath="url(#clip0_2645_1737)">
        <path d="M22.228 20.736C23.2255 20.736 23.8259 20.1937 23.8259 19.3899C23.8259 18.373 22.8962 17.4918 22.0247 16.6493C21.3468 15.9907 21.1821 14.6059 21.0659 13.3372C20.9303 9.77344 19.8941 7.26522 17.3762 6.3549C16.9792 5.07658 15.9333 4.09847 14.5 4.09847C13.0667 4.09847 12.0208 5.07658 11.6238 6.3549C9.10587 7.26522 8.06966 9.77344 7.93408 13.3372C7.80818 14.6059 7.65324 15.9907 6.97534 16.6492C6.10376 17.4918 5.16438 18.373 5.16438 19.3899C5.16438 20.1937 5.77449 20.736 6.76228 20.736L22.228 20.736ZM14.5 24.7162C16.2044 24.7162 17.4537 23.496 17.5796 22.0821L11.4107 22.0821C11.5463 23.496 12.7859 24.7162 14.5 24.7162Z" fill="#573CFF" />
        <circle cx="20.3333" cy="9.43604" r="3.5" fill="#F33E3E" />
    </g>
    <defs>
        <clipPath id="clip0_2645_1737">
            <rect width="28" height="28" fill="white" transform="translate(0.5 0.394531)" />
        </clipPath>
    </defs>
</svg>