<svg width="10" height="10" viewBox="0 0 10 10" fill="none" xmlns="http://www.w3.org/2000/svg">
<path
d="M2.9421 7.12105C1.51367 5.69263 0.429037 3.97852 0.429037 2.56462C0.429037 1.93514 0.64209 1.37345 1.12146 0.918295C1.41199 0.642294 1.74125 0.49703 2.06567 0.49703C2.34167 0.49703 2.59347 0.603557 2.77262 0.850505L3.81852 2.32251C3.98315 2.55977 4.06547 2.75346 4.06547 2.92778C4.06547 3.15536 3.93473 3.35388 3.712 3.58146L3.3682 3.93494C3.3101 3.9882 3.29073 4.05599 3.29073 4.11894C3.29073 4.19157 3.31978 4.2642 3.34884 4.31746C3.50863 4.62252 3.95894 5.14063 4.43831 5.62484C4.92253 6.10421 5.44548 6.55452 5.74569 6.71916C5.79895 6.74337 5.87158 6.77242 5.94906 6.77242C6.012 6.77242 6.07979 6.75305 6.13306 6.69979L6.48653 6.35116C6.70927 6.12842 6.9078 6.00252 7.13538 6.00252C7.30969 6.00252 7.50822 6.08 7.74064 6.24463L9.22717 7.30021C9.47412 7.47453 9.57096 7.72148 9.57096 7.97811C9.57096 8.31222 9.41117 8.64632 9.15454 8.93685C8.70907 9.43075 8.15222 9.64864 7.5179 9.64864C6.104 9.64864 4.37052 8.54948 2.9421 7.12105Z"
fill="#573CFF"
/>
        </svg>