<svg width="100" height="60" viewBox="0 0 100 60" fill="none" xmlns="http://www.w3.org/2000/svg">
    <g clip-path="url(#clip0_3717_10920)">
        <g filter="url(#filter0_d_3717_10920)">
            <g clip-path="url(#clip1_3717_10920)">
                <rect width="97.5" height="60" fill="url(#paint0_linear_3717_10920)"/>
                <circle opacity="0.05" cx="48.75" cy="30" r="19.8963" fill="#292838"/>
                <circle opacity="0.02" cx="48.75" cy="30" r="24.3629" stroke="#292838" stroke-width="0.812095"/>
                <g filter="url(#filter1_d_3717_10920)">
                    <g filter="url(#filter2_i_3717_10920)">
                        <path d="M21.5659 20.7148L23.6656 29.9885L29.0991 29.264L22.985 20.5802C22.8965 20.4546 22.7808 20.3506 22.6465 20.2759L22.3621 20.118C22.1653 20.0086 21.9215 20.0316 21.7485 20.1757C21.5912 20.3068 21.5206 20.515 21.5659 20.7148Z" fill="url(#paint1_linear_3717_10920)"/>
                    </g>
                    <g filter="url(#filter3_i_3717_10920)">
                        <path d="M21.5659 39.8045L23.6656 30.5308L29.0991 31.2553L22.985 39.9391C22.8965 40.0647 22.7808 40.1687 22.6465 40.2434L22.3621 40.4013C22.1653 40.5107 21.9215 40.4877 21.7485 40.3436C21.5912 40.2125 21.5206 40.0043 21.5659 39.8045Z" fill="url(#paint2_linear_3717_10920)"/>
                    </g>
                    <path d="M22.9409 29.987C22.9409 29.6726 23.1662 29.4033 23.4758 29.3479L32.0187 27.8178C34.0527 27.4535 36.115 27.2703 38.1813 27.2703H67.1798C68.7177 27.2703 70.2565 27.3224 71.7783 27.544C74.2996 27.911 78.0002 28.6734 78.0002 29.987C78.0002 31.3006 74.2996 32.063 71.7783 32.43C70.2565 32.6516 68.7177 32.7037 67.1798 32.7037H38.1813C36.115 32.7037 34.0527 32.5205 32.0187 32.1562L23.4758 30.6261C23.1662 30.5707 22.9409 30.3014 22.9409 29.987Z" fill="url(#paint3_linear_3717_10920)"/>
                    <path d="M38.3553 32.4679C38.3453 32.4679 38.3372 32.4598 38.3372 32.4498V32.2144C38.3372 32.2044 38.3453 32.1963 38.3553 32.1963H38.6813C38.6913 32.1963 38.6994 32.2044 38.6994 32.2144V32.4498C38.6994 32.4598 38.6913 32.4679 38.6813 32.4679H38.3553Z" fill="#79808F"/>
                    <path d="M36.0007 32.3775C35.9907 32.3775 35.9826 32.3694 35.9826 32.3594V32.124C35.9826 32.114 35.9907 32.1059 36.0007 32.1059H36.3267C36.3367 32.1059 36.3448 32.114 36.3448 32.124V32.3594C36.3448 32.3694 36.3367 32.3775 36.3267 32.3775H36.0007Z" fill="#79808F"/>
                    <path d="M36.7252 32.3775C36.7152 32.3775 36.707 32.3694 36.707 32.3594V32.124C36.707 32.114 36.7152 32.1059 36.7252 32.1059H37.0512C37.0612 32.1059 37.0693 32.114 37.0693 32.124V32.3594C37.0693 32.3694 37.0612 32.3775 37.0512 32.3775H36.7252Z" fill="#79808F"/>
                    <path d="M37.4315 32.3594C37.4315 32.3694 37.4396 32.3775 37.4496 32.3775H37.7756C37.7856 32.3775 37.7937 32.3694 37.7937 32.3594V32.124C37.7937 32.114 37.7856 32.1059 37.7756 32.1059H37.4496C37.4396 32.1059 37.4315 32.114 37.4315 32.124V32.3594Z" fill="#79808F"/>
                    <path d="M39.0616 32.4498C39.0616 32.4598 39.0698 32.4679 39.0798 32.4679H39.4058C39.4158 32.4679 39.4239 32.4598 39.4239 32.4498V32.2144C39.4239 32.2044 39.4158 32.1963 39.4058 32.1963H39.0798C39.0698 32.1963 39.0616 32.2044 39.0616 32.2144V32.4498Z" fill="#79808F"/>
                    <path d="M39.8042 32.4679C39.7942 32.4679 39.7861 32.4598 39.7861 32.4498V32.2144C39.7861 32.2044 39.7942 32.1963 39.8042 32.1963H40.1302C40.1402 32.1963 40.1483 32.2044 40.1483 32.2144V32.4498C40.1483 32.4598 40.1402 32.4679 40.1302 32.4679H39.8042Z" fill="#79808F"/>
                    <path d="M40.5106 32.4498C40.5106 32.4598 40.5187 32.4679 40.5287 32.4679H40.8547C40.8647 32.4679 40.8728 32.4598 40.8728 32.4498V32.2144C40.8728 32.2044 40.8647 32.1963 40.8547 32.1963H40.5287C40.5187 32.1963 40.5106 32.2044 40.5106 32.2144V32.4498Z" fill="#79808F"/>
                    <path d="M41.2531 32.4679C41.2431 32.4679 41.235 32.4598 41.235 32.4498V32.2144C41.235 32.2044 41.2431 32.1963 41.2531 32.1963H41.5791C41.5892 32.1963 41.5973 32.2044 41.5973 32.2144V32.4498C41.5973 32.4598 41.5892 32.4679 41.5791 32.4679H41.2531Z" fill="#79808F"/>
                    <path d="M41.9595 32.4498C41.9595 32.4598 41.9676 32.4679 41.9776 32.4679H42.3036C42.3136 32.4679 42.3217 32.4598 42.3217 32.4498V32.2144C42.3217 32.2044 42.3136 32.1963 42.3036 32.1963H41.9776C41.9676 32.1963 41.9595 32.2044 41.9595 32.2144V32.4498Z" fill="#79808F"/>
                    <path d="M42.7021 32.4679C42.6921 32.4679 42.684 32.4598 42.684 32.4498V32.2144C42.684 32.2044 42.6921 32.1963 42.7021 32.1963H43.0281C43.0381 32.1963 43.0462 32.2044 43.0462 32.2144V32.4498C43.0462 32.4598 43.0381 32.4679 43.0281 32.4679H42.7021Z" fill="#79808F"/>
                    <path d="M43.4084 32.4498C43.4084 32.4598 43.4165 32.4679 43.4265 32.4679H43.7525C43.7625 32.4679 43.7706 32.4598 43.7706 32.4498V32.2144C43.7706 32.2044 43.7625 32.1963 43.7525 32.1963H43.4265C43.4165 32.1963 43.4084 32.2044 43.4084 32.2144V32.4498Z" fill="#79808F"/>
                    <path d="M44.151 32.4679C44.141 32.4679 44.1329 32.4598 44.1329 32.4498V32.2144C44.1329 32.2044 44.141 32.1963 44.151 32.1963H44.477C44.487 32.1963 44.4951 32.2044 44.4951 32.2144V32.4498C44.4951 32.4598 44.487 32.4679 44.477 32.4679H44.151Z" fill="#79808F"/>
                    <path d="M44.8573 32.4498C44.8573 32.4598 44.8654 32.4679 44.8755 32.4679H45.2015C45.2115 32.4679 45.2196 32.4598 45.2196 32.4498V32.2144C45.2196 32.2044 45.2115 32.1963 45.2015 32.1963H44.8755C44.8654 32.1963 44.8573 32.2044 44.8573 32.2144V32.4498Z" fill="#79808F"/>
                    <path d="M45.5999 32.4679C45.5899 32.4679 45.5818 32.4598 45.5818 32.4498V32.2144C45.5818 32.2044 45.5899 32.1963 45.5999 32.1963H45.9259C45.9359 32.1963 45.944 32.2044 45.944 32.2144V32.4498C45.944 32.4598 45.9359 32.4679 45.9259 32.4679H45.5999Z" fill="#79808F"/>
                    <path d="M46.3063 32.4498C46.3063 32.4598 46.3144 32.4679 46.3244 32.4679H46.6504C46.6604 32.4679 46.6685 32.4598 46.6685 32.4498V32.2144C46.6685 32.2044 46.6604 32.1963 46.6504 32.1963H46.3244C46.3144 32.1963 46.3063 32.2044 46.3063 32.2144V32.4498Z" fill="#79808F"/>
                    <path d="M47.0488 32.4679C47.0388 32.4679 47.0307 32.4598 47.0307 32.4498V32.2144C47.0307 32.2044 47.0388 32.1963 47.0488 32.1963H47.3748C47.3848 32.1963 47.393 32.2044 47.393 32.2144V32.4498C47.393 32.4598 47.3848 32.4679 47.3748 32.4679H47.0488Z" fill="#79808F"/>
                    <path d="M47.7552 32.4498C47.7552 32.4598 47.7633 32.4679 47.7733 32.4679H48.0993C48.1093 32.4679 48.1174 32.4598 48.1174 32.4498V32.2144C48.1174 32.2044 48.1093 32.1963 48.0993 32.1963H47.7733C47.7633 32.1963 47.7552 32.2044 47.7552 32.2144V32.4498Z" fill="#79808F"/>
                    <path d="M48.4978 32.4679C48.4878 32.4679 48.4796 32.4598 48.4796 32.4498V32.2144C48.4796 32.2044 48.4878 32.1963 48.4978 32.1963H48.8238C48.8338 32.1963 48.8419 32.2044 48.8419 32.2144V32.4498C48.8419 32.4598 48.8338 32.4679 48.8238 32.4679H48.4978Z" fill="#79808F"/>
                    <path d="M49.2041 32.4498C49.2041 32.4598 49.2122 32.4679 49.2222 32.4679H49.5482C49.5582 32.4679 49.5663 32.4598 49.5663 32.4498V32.2144C49.5663 32.2044 49.5582 32.1963 49.5482 32.1963H49.2222C49.2122 32.1963 49.2041 32.2044 49.2041 32.2144V32.4498Z" fill="#79808F"/>
                    <path d="M49.9467 32.4679C49.9367 32.4679 49.9286 32.4598 49.9286 32.4498V32.2144C49.9286 32.2044 49.9367 32.1963 49.9467 32.1963H50.2727C50.2827 32.1963 50.2908 32.2044 50.2908 32.2144V32.4498C50.2908 32.4598 50.2827 32.4679 50.2727 32.4679H49.9467Z" fill="#79808F"/>
                    <path d="M50.653 32.4498C50.653 32.4598 50.6611 32.4679 50.6711 32.4679H50.9972C51.0072 32.4679 51.0153 32.4598 51.0153 32.4498V32.2144C51.0153 32.2044 51.0072 32.1963 50.9972 32.1963H50.6711C50.6611 32.1963 50.653 32.2044 50.653 32.2144V32.4498Z" fill="#79808F"/>
                    <path d="M51.3956 32.4679C51.3856 32.4679 51.3775 32.4598 51.3775 32.4498V32.2144C51.3775 32.2044 51.3856 32.1963 51.3956 32.1963H51.7216C51.7316 32.1963 51.7397 32.2044 51.7397 32.2144V32.4498C51.7397 32.4598 51.7316 32.4679 51.7216 32.4679H51.3956Z" fill="#79808F"/>
                    <path d="M52.102 32.4498C52.102 32.4598 52.1101 32.4679 52.1201 32.4679H52.4461C52.4561 32.4679 52.4642 32.4598 52.4642 32.4498V32.2144C52.4642 32.2044 52.4561 32.1963 52.4461 32.1963H52.1201C52.1101 32.1963 52.102 32.2044 52.102 32.2144V32.4498Z" fill="#79808F"/>
                    <path d="M52.8445 32.4679C52.8345 32.4679 52.8264 32.4598 52.8264 32.4498V32.2144C52.8264 32.2044 52.8345 32.1963 52.8445 32.1963H53.1705C53.1805 32.1963 53.1886 32.2044 53.1886 32.2144V32.4498C53.1886 32.4598 53.1805 32.4679 53.1705 32.4679H52.8445Z" fill="#79808F"/>
                    <path d="M56.2675 32.4498C56.2675 32.4598 56.2756 32.4679 56.2856 32.4679H56.6116C56.6216 32.4679 56.6297 32.4598 56.6297 32.4498V32.2144C56.6297 32.2044 56.6216 32.1963 56.6116 32.1963H56.2856C56.2756 32.1963 56.2675 32.2044 56.2675 32.2144V32.4498Z" fill="#79808F"/>
                    <path d="M57.0101 32.4679C57.0001 32.4679 56.992 32.4598 56.992 32.4498V32.2144C56.992 32.2044 57.0001 32.1963 57.0101 32.1963H57.3361C57.3461 32.1963 57.3542 32.2044 57.3542 32.2144V32.4498C57.3542 32.4598 57.3461 32.4679 57.3361 32.4679H57.0101Z" fill="#79808F"/>
                    <path d="M57.7164 32.4498C57.7164 32.4598 57.7245 32.4679 57.7345 32.4679H58.0606C58.0706 32.4679 58.0787 32.4598 58.0787 32.4498V32.2144C58.0787 32.2044 58.0706 32.1963 58.0606 32.1963H57.7345C57.7245 32.1963 57.7164 32.2044 57.7164 32.2144V32.4498Z" fill="#79808F"/>
                    <path d="M58.459 32.4679C58.449 32.4679 58.4409 32.4598 58.4409 32.4498V32.2144C58.4409 32.2044 58.449 32.1963 58.459 32.1963H58.785C58.795 32.1963 58.8031 32.2044 58.8031 32.2144V32.4498C58.8031 32.4598 58.795 32.4679 58.785 32.4679H58.459Z" fill="#79808F"/>
                    <path d="M59.1654 32.4498C59.1654 32.4598 59.1735 32.4679 59.1835 32.4679H59.5095C59.5195 32.4679 59.5276 32.4598 59.5276 32.4498V32.2144C59.5276 32.2044 59.5195 32.1963 59.5095 32.1963H59.1835C59.1735 32.1963 59.1654 32.2044 59.1654 32.2144V32.4498Z" fill="#79808F"/>
                    <path d="M59.9079 32.4679C59.8979 32.4679 59.8898 32.4598 59.8898 32.4498V32.2144C59.8898 32.2044 59.8979 32.1963 59.9079 32.1963H60.2339C60.2439 32.1963 60.252 32.2044 60.252 32.2144V32.4498C60.252 32.4598 60.2439 32.4679 60.2339 32.4679H59.9079Z" fill="#79808F"/>
                    <path d="M60.6143 32.4498C60.6143 32.4598 60.6224 32.4679 60.6324 32.4679H60.9584C60.9684 32.4679 60.9765 32.4598 60.9765 32.4498V32.2144C60.9765 32.2044 60.9684 32.1963 60.9584 32.1963H60.6324C60.6224 32.1963 60.6143 32.2044 60.6143 32.2144V32.4498Z" fill="#79808F"/>
                    <path d="M61.3569 32.4679C61.3468 32.4679 61.3387 32.4598 61.3387 32.4498V32.2144C61.3387 32.2044 61.3468 32.1963 61.3569 32.1963H61.6829C61.6929 32.1963 61.701 32.2044 61.701 32.2144V32.4498C61.701 32.4598 61.6929 32.4679 61.6829 32.4679H61.3569Z" fill="#79808F"/>
                    <path d="M62.0632 32.4498C62.0632 32.4598 62.0713 32.4679 62.0813 32.4679H62.4073C62.4173 32.4679 62.4254 32.4598 62.4254 32.4498V32.2144C62.4254 32.2044 62.4173 32.1963 62.4073 32.1963H62.0813C62.0713 32.1963 62.0632 32.2044 62.0632 32.2144V32.4498Z" fill="#79808F"/>
                    <path d="M62.8058 32.4679C62.7958 32.4679 62.7877 32.4598 62.7877 32.4498V32.2144C62.7877 32.2044 62.7958 32.1963 62.8058 32.1963H63.1318C63.1418 32.1963 63.1499 32.2044 63.1499 32.2144V32.4498C63.1499 32.4598 63.1418 32.4679 63.1318 32.4679H62.8058Z" fill="#79808F"/>
                    <path d="M63.5121 32.4498C63.5121 32.4598 63.5202 32.4679 63.5302 32.4679H63.8562C63.8662 32.4679 63.8744 32.4598 63.8744 32.4498V32.2144C63.8744 32.2044 63.8662 32.1963 63.8562 32.1963H63.5302C63.5202 32.1963 63.5121 32.2044 63.5121 32.2144V32.4498Z" fill="#79808F"/>
                    <path d="M64.2547 32.4679C64.2447 32.4679 64.2366 32.4598 64.2366 32.4498V32.2144C64.2366 32.2044 64.2447 32.1963 64.2547 32.1963H64.5807C64.5907 32.1963 64.5988 32.2044 64.5988 32.2144V32.4498C64.5988 32.4598 64.5907 32.4679 64.5807 32.4679H64.2547Z" fill="#79808F"/>
                    <path d="M64.961 32.4498C64.961 32.4598 64.9692 32.4679 64.9792 32.4679H65.3052C65.3152 32.4679 65.3233 32.4598 65.3233 32.4498V32.2144C65.3233 32.2044 65.3152 32.1963 65.3052 32.1963H64.9792C64.9692 32.1963 64.961 32.2044 64.961 32.2144V32.4498Z" fill="#79808F"/>
                    <path d="M65.7036 32.4679C65.6936 32.4679 65.6855 32.4598 65.6855 32.4498V32.2144C65.6855 32.2044 65.6936 32.1963 65.7036 32.1963H66.0296C66.0396 32.1963 66.0477 32.2044 66.0477 32.2144V32.4498C66.0477 32.4598 66.0396 32.4679 66.0296 32.4679H65.7036Z" fill="#79808F"/>
                    <path d="M66.41 32.4498C66.41 32.4598 66.4181 32.4679 66.4281 32.4679H66.7541C66.7641 32.4679 66.7722 32.4598 66.7722 32.4498V32.2144C66.7722 32.2044 66.7641 32.1963 66.7541 32.1963H66.4281C66.4181 32.1963 66.41 32.2044 66.41 32.2144V32.4498Z" fill="#79808F"/>
                    <path d="M67.1525 32.4679C67.1425 32.4679 67.1344 32.4598 67.1344 32.4498V32.2144C67.1344 32.2044 67.1425 32.1963 67.1525 32.1963H67.4786C67.4886 32.1963 67.4967 32.2044 67.4967 32.2144V32.4498C67.4967 32.4598 67.4886 32.4679 67.4786 32.4679H67.1525Z" fill="#79808F"/>
                    <path d="M67.8591 32.4498C67.8591 32.4598 67.8672 32.4679 67.8772 32.4679H68.2032C68.2132 32.4679 68.2213 32.4598 68.2213 32.4498V32.2144C68.2213 32.2044 68.2132 32.1963 68.2032 32.1963H67.8772C67.8672 32.1963 67.8591 32.2044 67.8591 32.2144V32.4498Z" fill="#79808F"/>
                    <path d="M68.6017 32.4679C68.5917 32.4679 68.5836 32.4598 68.5836 32.4498V32.2144C68.5836 32.2044 68.5917 32.1963 68.6017 32.1963H68.9277C68.9377 32.1963 68.9458 32.2044 68.9458 32.2144V32.4498C68.9458 32.4598 68.9377 32.4679 68.9277 32.4679H68.6017Z" fill="#79808F"/>
                    <path d="M69.308 32.4498C69.308 32.4598 69.3161 32.4679 69.3261 32.4679H69.6521C69.6621 32.4679 69.6702 32.4598 69.6702 32.4498V32.2144C69.6702 32.2044 69.6621 32.1963 69.6521 32.1963H69.3261C69.3161 32.1963 69.308 32.2044 69.308 32.2144V32.4498Z" fill="#79808F"/>
                    <path d="M70.0506 32.2871C70.0406 32.2871 70.0325 32.279 70.0325 32.269V32.0336C70.0325 32.0236 70.0406 32.0155 70.0506 32.0155H70.3766C70.3866 32.0155 70.3947 32.0236 70.3947 32.0336V32.269C70.3947 32.279 70.3866 32.2871 70.3766 32.2871H70.0506Z" fill="#79808F"/>
                    <g filter="url(#filter4_ii_3717_10920)">
                        <path d="M52.1456 23.3784C52.1456 22.9002 52.4729 22.484 52.9377 22.3714L53.844 22.1517C54.701 21.9439 55.5796 21.8389 56.4614 21.8389H57.9413C58.2414 21.8389 58.4847 22.0822 58.4847 22.3823V24.3746C58.4847 24.6746 58.2414 24.9179 57.9413 24.9179H56.4614C55.5796 24.9179 54.701 24.8129 53.844 24.6052L52.9377 24.3855C52.4729 24.2728 52.1456 23.8567 52.1456 23.3784Z" fill="url(#paint4_linear_3717_10920)"/>
                    </g>
                    <g filter="url(#filter5_d_3717_10920)">
                        <rect x="53.5285" y="23.1025" width="1.9182" height="0.456211" rx="0.045279" fill="#F8FCFF"/>
                    </g>
                    <g filter="url(#filter6_i_3717_10920)">
                        <path d="M53.129 22.2967C53.1089 22.0989 53.2673 21.9352 53.4661 21.9352C53.6647 21.9352 53.8258 22.0985 53.8383 22.2968C53.86 22.6401 53.9251 23.1513 54.1171 23.4806C54.3035 23.8 54.8085 24.3465 55.1839 24.7337C55.3441 24.8991 55.2276 25.1816 54.9974 25.1816C54.9374 25.1816 54.8801 25.1612 54.8347 25.1221C54.5686 24.893 53.6229 24.0521 53.3927 23.4806C53.2331 23.0844 53.1611 22.6137 53.129 22.2967Z" fill="white"/>
                    </g>
                    <path d="M57.127 27.2713H48.0712V23.757C48.0712 23.3853 48.014 23.0159 47.9017 22.6617L42.7373 6.38086C42.7314 6.36213 42.7214 6.34493 42.7081 6.33044L41.9773 5.53319C41.8447 5.38847 41.8622 5.16172 42.0155 5.03909C42.1188 4.95643 42.2607 4.9414 42.3791 5.00057L44.8146 6.21835C44.9889 6.30548 45.131 6.44573 45.2203 6.61885L53.5999 22.8543C53.7172 23.0816 53.8583 23.2959 54.0208 23.4935L57.127 27.2713Z" fill="url(#paint5_linear_3717_10920)"/>
                    <rect x="48.8863" y="23.8307" width="1.0867" height="3.07897" rx="0.15" fill="#C5CDDE"/>
                    <rect x="48.9163" y="23.8607" width="1.0267" height="3.01897" rx="0.12" stroke="black" stroke-opacity="0.1" stroke-width="0.06"/>
                    <rect x="47.1767" y="16.7788" width="0.566056" height="6.76112" rx="0.15" transform="rotate(-18.9583 47.1767 16.7788)" fill="#DDE3EE"/>
                    <rect x="47.1863" y="16.7835" width="0.551056" height="6.74612" rx="0.1425" transform="rotate(-18.9583 47.1863 16.7835)" stroke="black" stroke-opacity="0.1" stroke-width="0.015"/>
                    <g filter="url(#filter7_i_3717_10920)">
                        <path d="M45.4454 17.3844C45.4454 17.2389 45.5538 17.1161 45.6982 17.0981L46.5125 16.9963C46.7153 16.9709 46.8943 17.129 46.8943 17.3333C46.8943 17.5209 46.7423 17.673 46.5547 17.673H45.734C45.5746 17.673 45.4454 17.5438 45.4454 17.3844Z" fill="white"/>
                    </g>
                    <g filter="url(#filter8_i_3717_10920)">
                        <path d="M46.5323 21.1879C46.5323 21.0423 46.6407 20.9196 46.7851 20.9015L47.5994 20.7997C47.8022 20.7744 47.9813 20.9325 47.9813 21.1368C47.9813 21.3244 47.8292 21.4765 47.6416 21.4765H46.8209C46.6615 21.4765 46.5323 21.3473 46.5323 21.1879Z" fill="white"/>
                    </g>
                    <g filter="url(#filter9_i_3717_10920)">
                        <path d="M47.256 24.2666C47.256 24.1211 47.3643 23.9983 47.5088 23.9803L48.3231 23.8785C48.5258 23.8531 48.7049 24.0112 48.7049 24.2155C48.7049 24.4031 48.5528 24.5552 48.3652 24.5552H47.5446C47.3852 24.5552 47.256 24.426 47.256 24.2666Z" fill="white"/>
                    </g>
                    <path d="M45.2231 10.9707L46.8028 15.8608L45.7161 15.8608L44.1767 10.9556L45.2231 10.9707Z" fill="#CED4E1"/>
                    <path d="M44.2178 10.9862L45.2012 11.0004L46.7615 15.8308L45.7381 15.8308L44.2178 10.9862Z" stroke="black" stroke-opacity="0.1" stroke-width="0.06"/>
                    <path d="M46.7304 15.756L49.2487 23.2869L48.0715 23.2869L45.684 15.7409L46.7304 15.756Z" fill="#CED4E1"/>
                    <path d="M45.7252 15.7715L46.7087 15.7857L49.2071 23.2569L48.0935 23.2569L45.7252 15.7715Z" stroke="black" stroke-opacity="0.1" stroke-width="0.06"/>
                    <path d="M49.2479 27.2594L49.2479 23.2871L48.0706 23.2871L48.0703 27.2594L49.2479 27.2594Z" fill="#CED4E1"/>
                    <path d="M49.2179 23.3171L49.2179 27.2294L48.1003 27.2294L48.1006 23.3171L49.2179 23.3171Z" stroke="black" stroke-opacity="0.1" stroke-width="0.06"/>
                    <path fill-rule="evenodd" clip-rule="evenodd" d="M45.6279 7.43988C45.582 7.35098 45.4728 7.31607 45.3839 7.36191C45.295 7.40776 45.2601 7.51699 45.3059 7.6059L47.0227 10.9353C47.0686 11.0242 47.1778 11.0591 47.2667 11.0132C47.3556 10.9674 47.3905 10.8581 47.3447 10.7692L45.6279 7.43988ZM47.6612 11.4939C47.6154 11.405 47.5061 11.3701 47.4172 11.416C47.3283 11.4618 47.2934 11.5711 47.3392 11.66L49.056 14.9893C49.1019 15.0782 49.2111 15.1131 49.3 15.0673C49.3889 15.0214 49.4238 14.9122 49.378 14.8233L47.6612 11.4939ZM49.4519 15.4703C49.5408 15.4245 49.65 15.4594 49.6959 15.5483L51.4126 18.8776C51.4585 18.9665 51.4236 19.0758 51.3347 19.1216C51.2458 19.1674 51.1365 19.1325 51.0907 19.0436L49.3739 15.7143C49.3281 15.6254 49.363 15.5161 49.4519 15.4703ZM51.7292 19.6025C51.6834 19.5136 51.5741 19.4787 51.4852 19.5245C51.3963 19.5704 51.3614 19.6796 51.4073 19.7685L53.124 23.0979C53.1699 23.1868 53.2791 23.2217 53.368 23.1758C53.4569 23.13 53.4918 23.0208 53.446 22.9318L51.7292 19.6025Z" fill="#DDE3EE"/>
                    <mask id="path-28-inside-1_3717_10920" fill="white">
                        <path fill-rule="evenodd" clip-rule="evenodd" d="M46.9756 15.9041C46.8804 15.935 46.8284 16.0372 46.8594 16.1324L47.2519 17.3379C47.2829 17.433 47.3851 17.485 47.4802 17.454L47.9968 17.2858C48.0919 17.2549 48.1439 17.1527 48.113 17.0575L47.7205 15.852C47.6895 15.7569 47.5873 15.7049 47.4922 15.7359L46.9756 15.9041ZM47.5838 17.7295C47.4885 17.76 47.4359 17.8619 47.4663 17.9571L47.852 19.1661C47.8824 19.2614 47.9843 19.314 48.0796 19.2836L48.5937 19.1195C48.689 19.0891 48.7416 18.9872 48.7112 18.8919L48.3255 17.683C48.2951 17.5877 48.1932 17.5351 48.0979 17.5655L47.5838 17.7295ZM48.1192 19.9724C48.0882 19.8773 48.1402 19.7751 48.2353 19.7442L48.752 19.5759C48.8471 19.545 48.9493 19.597 48.9803 19.6921L49.3727 20.8976C49.4037 20.9927 49.3517 21.0949 49.2566 21.1259L48.7399 21.2941C48.6448 21.3251 48.5426 21.2731 48.5117 21.178L48.1192 19.9724ZM48.9179 21.7715C48.8228 21.8025 48.7708 21.9047 48.8018 21.9998L49.1943 23.2053C49.2252 23.3004 49.3274 23.3524 49.4226 23.3215L49.9392 23.1533C50.0343 23.1223 50.0863 23.0201 50.0554 22.925L49.6629 21.7194C49.6319 21.6243 49.5297 21.5723 49.4346 21.6033L48.9179 21.7715Z"/>
                    </mask>
                    <path fill-rule="evenodd" clip-rule="evenodd" d="M46.9756 15.9041C46.8804 15.935 46.8284 16.0372 46.8594 16.1324L47.2519 17.3379C47.2829 17.433 47.3851 17.485 47.4802 17.454L47.9968 17.2858C48.0919 17.2549 48.1439 17.1527 48.113 17.0575L47.7205 15.852C47.6895 15.7569 47.5873 15.7049 47.4922 15.7359L46.9756 15.9041ZM47.5838 17.7295C47.4885 17.76 47.4359 17.8619 47.4663 17.9571L47.852 19.1661C47.8824 19.2614 47.9843 19.314 48.0796 19.2836L48.5937 19.1195C48.689 19.0891 48.7416 18.9872 48.7112 18.8919L48.3255 17.683C48.2951 17.5877 48.1932 17.5351 48.0979 17.5655L47.5838 17.7295ZM48.1192 19.9724C48.0882 19.8773 48.1402 19.7751 48.2353 19.7442L48.752 19.5759C48.8471 19.545 48.9493 19.597 48.9803 19.6921L49.3727 20.8976C49.4037 20.9927 49.3517 21.0949 49.2566 21.1259L48.7399 21.2941C48.6448 21.3251 48.5426 21.2731 48.5117 21.178L48.1192 19.9724ZM48.9179 21.7715C48.8228 21.8025 48.7708 21.9047 48.8018 21.9998L49.1943 23.2053C49.2252 23.3004 49.3274 23.3524 49.4226 23.3215L49.9392 23.1533C50.0343 23.1223 50.0863 23.0201 50.0554 22.925L49.6629 21.7194C49.6319 21.6243 49.5297 21.5723 49.4346 21.6033L48.9179 21.7715Z" fill="#DDE3EE"/>
                    <path d="M46.8594 16.1324L46.8024 16.1509L46.8594 16.1324ZM46.9756 15.9041L46.957 15.847H46.957L46.9756 15.9041ZM47.2519 17.3379L47.3089 17.3193L47.2519 17.3379ZM47.4802 17.454L47.4987 17.5111L47.4802 17.454ZM47.9968 17.2858L47.9783 17.2288L47.9968 17.2858ZM48.113 17.0575L48.0559 17.0761L48.113 17.0575ZM47.7205 15.852L47.6634 15.8706L47.7205 15.852ZM47.4922 15.7359L47.4736 15.6788V15.6788L47.4922 15.7359ZM47.4663 17.9571L47.4091 17.9754L47.4663 17.9571ZM47.5838 17.7295L47.5656 17.6724L47.5838 17.7295ZM47.852 19.1661L47.7949 19.1843L47.852 19.1661ZM48.0796 19.2836L48.0614 19.2264L48.0796 19.2836ZM48.5937 19.1195L48.6119 19.1767L48.5937 19.1195ZM48.7112 18.8919L48.654 18.9102L48.7112 18.8919ZM48.3255 17.683L48.3826 17.6648L48.3255 17.683ZM48.0979 17.5655L48.1161 17.6227L48.0979 17.5655ZM48.2353 19.7442L48.2167 19.6871H48.2167L48.2353 19.7442ZM48.1192 19.9724L48.0621 19.991H48.0621L48.1192 19.9724ZM48.752 19.5759L48.7705 19.633H48.7705L48.752 19.5759ZM48.9803 19.6921L49.0373 19.6735L48.9803 19.6921ZM49.3727 20.8976L49.4298 20.8791L49.3727 20.8976ZM49.2566 21.1259L49.2752 21.183L49.2566 21.1259ZM48.7399 21.2941L48.7585 21.3512H48.7585L48.7399 21.2941ZM48.5117 21.178L48.5687 21.1594L48.5117 21.178ZM48.8018 21.9998L48.7447 22.0184H48.7447L48.8018 21.9998ZM48.9179 21.7715L48.8994 21.7144H48.8994L48.9179 21.7715ZM49.1943 23.2053L49.1372 23.2239L49.1943 23.2053ZM49.4226 23.3215L49.4411 23.3785H49.4411L49.4226 23.3215ZM49.9392 23.1533L49.9578 23.2103L49.9392 23.1533ZM50.0554 22.925L50.1124 22.9064L50.0554 22.925ZM49.6629 21.7194L49.7199 21.7009L49.7199 21.7009L49.6629 21.7194ZM49.4346 21.6033L49.416 21.5462H49.416L49.4346 21.6033ZM46.9165 16.1138C46.8957 16.0502 46.9305 15.9818 46.9941 15.9611L46.957 15.847C46.8304 15.8882 46.7611 16.0243 46.8024 16.1509L46.9165 16.1138ZM47.3089 17.3193L46.9165 16.1138L46.8024 16.1509L47.1948 17.3565L47.3089 17.3193ZM47.4616 17.397C47.398 17.4177 47.3296 17.3829 47.3089 17.3193L47.1948 17.3565C47.2361 17.4831 47.3721 17.5523 47.4987 17.5111L47.4616 17.397ZM47.9783 17.2288L47.4616 17.397L47.4987 17.5111L48.0154 17.3429L47.9783 17.2288ZM48.0559 17.0761C48.0766 17.1397 48.0419 17.2081 47.9783 17.2288L48.0154 17.3429C48.142 17.3017 48.2113 17.1656 48.17 17.039L48.0559 17.0761ZM47.6634 15.8706L48.0559 17.0761L48.17 17.039L47.7775 15.8334L47.6634 15.8706ZM47.5108 15.7929C47.5744 15.7722 47.6427 15.807 47.6634 15.8706L47.7775 15.8334C47.7363 15.7068 47.6003 15.6376 47.4736 15.6788L47.5108 15.7929ZM46.9941 15.9611L47.5108 15.7929L47.4736 15.6788L46.957 15.847L46.9941 15.9611ZM47.5235 17.9389C47.5031 17.8752 47.5383 17.807 47.602 17.7867L47.5656 17.6724C47.4387 17.7129 47.3687 17.8485 47.4091 17.9754L47.5235 17.9389ZM47.9092 19.1478L47.5235 17.9389L47.4091 17.9754L47.7949 19.1843L47.9092 19.1478ZM48.0614 19.2264C47.9977 19.2467 47.9295 19.2116 47.9092 19.1478L47.7949 19.1843C47.8353 19.3112 47.971 19.3812 48.0979 19.3407L48.0614 19.2264ZM48.5755 19.0624L48.0614 19.2264L48.0979 19.3407L48.6119 19.1767L48.5755 19.0624ZM48.654 18.9102C48.6744 18.9739 48.6392 19.0421 48.5755 19.0624L48.6119 19.1767C48.7388 19.1362 48.8088 19.0006 48.7684 18.8737L48.654 18.9102ZM48.2683 17.7013L48.654 18.9102L48.7684 18.8737L48.3826 17.6648L48.2683 17.7013ZM48.1161 17.6227C48.1798 17.6023 48.248 17.6375 48.2683 17.7013L48.3826 17.6648C48.3422 17.5379 48.2065 17.4679 48.0796 17.5084L48.1161 17.6227ZM47.602 17.7867L48.1161 17.6227L48.0796 17.5084L47.5656 17.6724L47.602 17.7867ZM48.2167 19.6871C48.0901 19.7283 48.0209 19.8644 48.0621 19.991L48.1762 19.9539C48.1555 19.8903 48.1903 19.8219 48.2539 19.8012L48.2167 19.6871ZM48.7334 19.5189L48.2167 19.6871L48.2539 19.8012L48.7705 19.633L48.7334 19.5189ZM49.0373 19.6735C48.9961 19.5469 48.86 19.4777 48.7334 19.5189L48.7705 19.633C48.8342 19.6123 48.9025 19.6471 48.9232 19.7107L49.0373 19.6735ZM49.4298 20.8791L49.0373 19.6735L48.9232 19.7107L49.3157 20.9162L49.4298 20.8791ZM49.2752 21.183C49.4018 21.1417 49.471 21.0057 49.4298 20.8791L49.3157 20.9162C49.3364 20.9798 49.3016 21.0482 49.238 21.0689L49.2752 21.183ZM48.7585 21.3512L49.2752 21.183L49.238 21.0689L48.7214 21.2371L48.7585 21.3512ZM48.4546 21.1965C48.4958 21.3232 48.6319 21.3924 48.7585 21.3512L48.7214 21.2371C48.6578 21.2578 48.5894 21.223 48.5687 21.1594L48.4546 21.1965ZM48.0621 19.991L48.4546 21.1965L48.5687 21.1594L48.1762 19.9539L48.0621 19.991ZM48.8588 21.9812C48.8381 21.9176 48.8729 21.8493 48.9365 21.8286L48.8994 21.7144C48.7727 21.7557 48.7035 21.8917 48.7447 22.0184L48.8588 21.9812ZM49.2513 23.1867L48.8588 21.9812L48.7447 22.0184L49.1372 23.2239L49.2513 23.1867ZM49.404 23.2644C49.3404 23.2851 49.272 23.2503 49.2513 23.1867L49.1372 23.2239C49.1784 23.3505 49.3145 23.4197 49.4411 23.3785L49.404 23.2644ZM49.9206 23.0962L49.404 23.2644L49.4411 23.3785L49.9578 23.2103L49.9206 23.0962ZM49.9983 22.9435C50.019 23.0072 49.9842 23.0755 49.9206 23.0962L49.9578 23.2103C50.0844 23.1691 50.1536 23.033 50.1124 22.9064L49.9983 22.9435ZM49.6058 21.738L49.9983 22.9435L50.1124 22.9064L49.7199 21.7009L49.6058 21.738ZM49.4532 21.6603C49.5168 21.6396 49.5851 21.6744 49.6058 21.738L49.7199 21.7009C49.6787 21.5742 49.5426 21.505 49.416 21.5462L49.4532 21.6603ZM48.9365 21.8286L49.4532 21.6603L49.416 21.5462L48.8994 21.7144L48.9365 21.8286Z" fill="black" fill-opacity="0.1" mask="url(#path-28-inside-1_3717_10920)"/>
                    <g filter="url(#filter10_i_3717_10920)">
                        <path d="M44.765 6.19423L44.9807 6.32606C45.0235 6.36062 45.063 6.39893 45.0989 6.44054L42.7275 6.35271L42.7192 6.34574C42.7156 6.34047 42.7116 6.33545 42.7073 6.33072L41.9765 5.53346C41.8438 5.38875 41.8613 5.162 42.0146 5.03936C42.1179 4.95671 42.2599 4.94167 42.3782 5.00084L44.765 6.19423Z" fill="url(#paint6_linear_3717_10920)"/>
                    </g>
                    <g filter="url(#filter11_ii_3717_10920)">
                        <path d="M52.1456 36.6259C52.1456 37.1042 52.4729 37.5203 52.9377 37.633L53.844 37.8527C54.701 38.0604 55.5796 38.1654 56.4614 38.1654H57.9413C58.2414 38.1654 58.4847 37.9221 58.4847 37.6221V35.6298C58.4847 35.3297 58.2414 35.0864 57.9413 35.0864H56.4614C55.5796 35.0864 54.701 35.1914 53.844 35.3992L52.9377 35.6189C52.4729 35.7316 52.1456 36.1477 52.1456 36.6259Z" fill="url(#paint7_linear_3717_10920)"/>
                    </g>
                    <g filter="url(#filter12_d_3717_10920)">
                        <rect width="1.9182" height="0.456211" rx="0.045279" transform="matrix(1 0 0 -1 53.5285 36.8995)" fill="#CCD2DD"/>
                    </g>
                    <g filter="url(#filter13_ii_3717_10920)">
                        <path d="M53.1304 37.7054C53.1104 37.9032 53.2687 38.0669 53.4675 38.0669C53.6662 38.0669 53.8272 37.9036 53.8398 37.7054C53.8614 37.362 53.9265 36.8508 54.1186 36.5216C54.3049 36.2021 54.8099 35.6557 55.1853 35.2684C55.3456 35.1031 55.2291 34.8206 54.9988 34.8206C54.9389 34.8206 54.8816 34.8409 54.8362 34.88C54.5701 35.1091 53.6243 35.95 53.3941 36.5216C53.2346 36.9178 53.1626 37.3885 53.1304 37.7054Z" fill="url(#paint8_linear_3717_10920)"/>
                    </g>
                    <path d="M57.1412 32.701L48.0712 32.6401V36.2451C48.0712 36.6167 48.014 36.9861 47.9017 37.3403L42.7373 53.6212C42.7314 53.6399 42.7214 53.6571 42.7081 53.6716L41.9773 54.4689C41.8447 54.6136 41.8622 54.8403 42.0155 54.963C42.1188 55.0456 42.2607 55.0607 42.3791 55.0015L44.8146 53.7837C44.9889 53.6966 45.131 53.5563 45.2203 53.3832L53.6011 37.1454C53.7176 36.9196 53.8576 36.7068 54.0186 36.5103L57.1412 32.701Z" fill="url(#paint9_linear_3717_10920)"/>
                    <rect width="1.0867" height="3.07897" rx="0.15" transform="matrix(1 0 0 -1 48.8863 36.1714)" fill="#C5CDDE"/>
                    <rect x="0.03" y="-0.03" width="1.0267" height="3.01897" rx="0.12" transform="matrix(1 0 0 -1 48.8863 36.1114)" stroke="black" stroke-opacity="0.1" stroke-width="0.06"/>
                    <rect width="0.566056" height="6.76112" rx="0.15" transform="matrix(0.944353 0.328933 0.328933 -0.944353 47.2545 43.2177)" fill="#DDE3EE"/>
                    <rect x="0.00954965" y="-0.00461565" width="0.551056" height="6.74612" rx="0.1425" transform="matrix(0.944353 0.328933 0.328933 -0.944353 47.2566 43.2055)" stroke="black" stroke-opacity="0.1" stroke-width="0.015"/>
                    <g filter="url(#filter14_i_3717_10920)">
                        <path d="M45.4454 42.6195C45.4454 42.7651 45.5538 42.8879 45.6982 42.9059L46.5125 43.0077C46.7153 43.033 46.8943 42.875 46.8943 42.6706C46.8943 42.483 46.7423 42.331 46.5547 42.331H45.734C45.5746 42.331 45.4454 42.4602 45.4454 42.6195Z" fill="white"/>
                    </g>
                    <g filter="url(#filter15_i_3717_10920)">
                        <path d="M46.5323 38.8161C46.5323 38.9616 46.6407 39.0844 46.7851 39.1024L47.5994 39.2042C47.8022 39.2296 47.9813 39.0715 47.9813 38.8672C47.9813 38.6796 47.8292 38.5275 47.6416 38.5275H46.8209C46.6615 38.5275 46.5323 38.6567 46.5323 38.8161Z" fill="white"/>
                    </g>
                    <g filter="url(#filter16_i_3717_10920)">
                        <path d="M47.256 35.7355C47.256 35.8811 47.3643 36.0038 47.5088 36.0219L48.3231 36.1237C48.5258 36.149 48.7049 35.9909 48.7049 35.7866C48.7049 35.599 48.5528 35.4469 48.3652 35.4469H47.5446C47.3852 35.4469 47.256 35.5761 47.256 35.7355Z" fill="white"/>
                    </g>
                    <path d="M45.1879 49.0314L46.7675 44.1413L45.7167 44.1413L44.1773 49.0464L45.1879 49.0314Z" fill="#D6DDEC"/>
                    <path d="M44.2184 49.0158L45.1659 49.0017L46.7263 44.1713L45.7387 44.1713L44.2184 49.0158Z" stroke="black" stroke-opacity="0.1" stroke-width="0.06"/>
                    <path d="M46.7304 44.2461L49.2487 36.7152L48.0715 36.7152L45.684 44.2613L46.7304 44.2461Z" fill="#D6DDEC"/>
                    <path d="M45.7252 44.2307L46.7087 44.2165L49.2071 36.7452L48.0935 36.7452L45.7252 44.2307Z" stroke="black" stroke-opacity="0.1" stroke-width="0.06"/>
                    <path d="M49.2493 32.6395L49.2493 36.7147L48.0721 36.7147L48.0717 32.6395L49.2493 32.6395Z" fill="#CED4E1"/>
                    <path d="M49.2193 36.6847L49.2193 32.6695L48.1017 32.6695L48.1021 36.6847L49.2193 36.6847Z" stroke="black" stroke-opacity="0.1" stroke-width="0.06"/>
                    <path d="M45.6279 52.562C45.582 52.6509 45.4728 52.6858 45.3839 52.6399C45.295 52.5941 45.2601 52.4849 45.3059 52.3959L47.0227 49.0666C47.0686 48.9777 47.1778 48.9428 47.2667 48.9886C47.3556 49.0345 47.3905 49.1437 47.3447 49.2326L45.6279 52.562Z" fill="#DDE3EE"/>
                    <path d="M47.6617 48.5078C47.6158 48.5967 47.5066 48.6316 47.4177 48.5858C47.3288 48.5399 47.2939 48.4307 47.3397 48.3418L49.0565 45.0125C49.1024 44.9235 49.2116 44.8886 49.3005 44.9345C49.3894 44.9803 49.4243 45.0896 49.3785 45.1785L47.6617 48.5078Z" fill="#DDE3EE"/>
                    <path d="M49.4517 44.5317C49.5406 44.5775 49.6498 44.5426 49.6957 44.4537L51.4125 41.1243C51.4583 41.0354 51.4234 40.9262 51.3345 40.8803C51.2456 40.8345 51.1364 40.8694 51.0905 40.9583L49.3737 44.2877C49.3279 44.3766 49.3628 44.4858 49.4517 44.5317Z" fill="#DDE3EE"/>
                    <path d="M51.7295 40.3995C51.6837 40.4885 51.5744 40.5234 51.4855 40.4775C51.3966 40.4317 51.3617 40.3224 51.4075 40.2335L53.1243 36.9042C53.1702 36.8153 53.2794 36.7804 53.3683 36.8262C53.4572 36.8721 53.4921 36.9813 53.4463 37.0702L51.7295 40.3995Z" fill="#DDE3EE"/>
                    <rect width="0.90558" height="1.63004" rx="0.15" transform="matrix(0.949538 0.313652 0.313652 -0.949538 46.878 44.0347)" fill="#DDE3EE"/>
                    <rect x="0.0378957" y="-0.0190766" width="0.84558" height="1.57004" rx="0.12" transform="matrix(0.949538 0.313652 0.313652 -0.949538 46.8859 43.9856)" stroke="black" stroke-opacity="0.1" stroke-width="0.06"/>
                    <rect width="0.901847" height="1.63121" rx="0.15" transform="matrix(0.951369 0.308053 0.308053 -0.951369 47.4947 42.2139)" fill="#DDE3EE"/>
                    <rect x="0.0377827" y="-0.0192995" width="0.841847" height="1.57121" rx="0.12" transform="matrix(0.951369 0.308053 0.308053 -0.951369 47.5025 42.1646)" stroke="black" stroke-opacity="0.1" stroke-width="0.06"/>
                    <rect width="0.90558" height="1.63004" rx="0.15" transform="matrix(0.949538 0.313652 0.313652 -0.949538 48.1554 40.2001)" fill="#DDE3EE"/>
                    <rect x="0.0378957" y="-0.0190766" width="0.84558" height="1.57004" rx="0.12" transform="matrix(0.949538 0.313652 0.313652 -0.949538 48.1633 40.1511)" stroke="black" stroke-opacity="0.1" stroke-width="0.06"/>
                    <rect width="0.90558" height="1.63004" rx="0.15" transform="matrix(0.949538 0.313652 0.313652 -0.949538 48.8468 38.1764)" fill="#DDE3EE"/>
                    <rect x="0.0378957" y="-0.0190766" width="0.84558" height="1.57004" rx="0.12" transform="matrix(0.949538 0.313652 0.313652 -0.949538 48.8547 38.1273)" stroke="black" stroke-opacity="0.1" stroke-width="0.06"/>
                    <g filter="url(#filter17_i_3717_10920)">
                        <path d="M44.765 53.8075L44.9807 53.6757C45.0235 53.6412 45.063 53.6028 45.0989 53.5612L42.7275 53.6491L42.7192 53.656C42.7156 53.6613 42.7116 53.6663 42.7073 53.6711L41.9765 54.4683C41.8438 54.613 41.8613 54.8398 42.0146 54.9624C42.1179 55.0451 42.2599 55.0601 42.3782 55.0009L44.765 53.8075Z" fill="url(#paint10_linear_3717_10920)"/>
                    </g>
                    <path d="M57.1346 32.6983L48.0704 32.6403V36.731C48.0704 36.7725 48.104 36.806 48.1454 36.806H53.74C53.7625 36.806 53.7838 36.7959 53.7981 36.7785L57.1346 32.6983Z" fill="url(#paint11_linear_3717_10920)"/>
                    <path opacity="0.3" d="M32.7218 27.671V28.3583C32.7218 28.5583 32.884 28.7205 33.084 28.7205H33.4463C33.6463 28.7205 33.8085 28.5583 33.8085 28.3583V27.5463" stroke="#63829A" stroke-width="0.135837"/>
                    <path opacity="0.3" d="M73.1109 27.7686V28.5403C73.1109 28.7403 72.9487 28.9025 72.7486 28.9025H72.3718C72.1798 28.9025 72.0242 28.7469 72.0242 28.5549V28.1318C72.0242 27.9288 71.9414 27.7346 71.7949 27.594V27.594" stroke="#63829A" stroke-width="0.135837"/>
                    <path opacity="0.3" d="M73.1099 32.2069V31.4825C73.1099 31.2824 72.9478 31.1202 72.7477 31.1202H72.3324C72.1616 31.1202 72.0232 31.2586 72.0232 31.4294V31.9116C72.0232 32.0974 71.9353 32.2722 71.7861 32.3829V32.3829" stroke="#63829A" stroke-width="0.135837"/>
                    <path opacity="0.3" d="M53.7305 27.2849L53.7305 27.8141C53.7305 27.9141 53.8116 27.9952 53.9116 27.9952H54.2738C54.3738 27.9952 54.4549 27.9141 54.4549 27.8141V27.2849" stroke="#63829A" stroke-width="0.135837"/>
                    <path opacity="0.3" d="M53.7305 32.6851V32.3228C53.7305 32.2228 53.8116 32.1417 53.9116 32.1417H54.2738C54.3738 32.1417 54.4549 32.2228 54.4549 32.3228V32.6851" stroke="#63829A" stroke-width="0.135837"/>
                    <path opacity="0.3" d="M55.1807 27.2787V27.8149C55.1807 27.9149 55.2618 27.996 55.3618 27.996H55.724C55.824 27.996 55.9051 27.9149 55.9051 27.8149V27.2787" stroke="#63829A" stroke-width="0.135837"/>
                    <path opacity="0.3" d="M55.1807 32.6851V32.3228C55.1807 32.2228 55.2618 32.1417 55.3618 32.1417H55.724C55.824 32.1417 55.9051 32.2228 55.9051 32.3228V32.6851" stroke="#63829A" stroke-width="0.135837"/>
                    <path opacity="0.3" d="M32.7218 32.2706V31.9802C32.7218 31.7801 32.884 31.6179 33.084 31.6179H33.4463C33.6463 31.6179 33.8085 31.7801 33.8085 31.9802V32.4109" stroke="#63829A" stroke-width="0.135837"/>
                    <path d="M38.3551 27.542C38.3451 27.542 38.337 27.5501 38.337 27.5601V27.7956C38.337 27.8056 38.3451 27.8137 38.3551 27.8137H38.6811C38.6911 27.8137 38.6993 27.8056 38.6993 27.7956V27.5601C38.6993 27.5501 38.6911 27.542 38.6811 27.542H38.3551Z" fill="#C9D0DC"/>
                    <path d="M36.0005 27.6324C35.9905 27.6324 35.9824 27.6405 35.9824 27.6505V27.886C35.9824 27.896 35.9905 27.9041 36.0005 27.9041H36.3265C36.3365 27.9041 36.3447 27.896 36.3447 27.886V27.6505C36.3447 27.6405 36.3365 27.6324 36.3265 27.6324H36.0005Z" fill="#C9D0DC"/>
                    <path d="M36.725 27.6324C36.715 27.6324 36.7069 27.6405 36.7069 27.6505V27.886C36.7069 27.896 36.715 27.9041 36.725 27.9041H37.051C37.061 27.9041 37.0691 27.896 37.0691 27.886V27.6505C37.0691 27.6405 37.061 27.6324 37.051 27.6324H36.725Z" fill="#C9D0DC"/>
                    <path d="M37.4313 27.6505C37.4313 27.6405 37.4395 27.6324 37.4495 27.6324H37.7755C37.7855 27.6324 37.7936 27.6405 37.7936 27.6505V27.886C37.7936 27.896 37.7855 27.9041 37.7755 27.9041H37.4495C37.4395 27.9041 37.4313 27.896 37.4313 27.886V27.6505Z" fill="#C9D0DC"/>
                    <path d="M39.0615 27.5601C39.0615 27.5501 39.0696 27.542 39.0796 27.542H39.4056C39.4156 27.542 39.4237 27.5501 39.4237 27.5601V27.7956C39.4237 27.8056 39.4156 27.8137 39.4056 27.8137H39.0796C39.0696 27.8137 39.0615 27.8056 39.0615 27.7956V27.5601Z" fill="#C9D0DC"/>
                    <path d="M39.8041 27.542C39.7941 27.542 39.7859 27.5501 39.7859 27.5601V27.7956C39.7859 27.8056 39.7941 27.8137 39.8041 27.8137H40.1301C40.1401 27.8137 40.1482 27.8056 40.1482 27.7956V27.5601C40.1482 27.5501 40.1401 27.542 40.1301 27.542H39.8041Z" fill="#C9D0DC"/>
                    <path d="M40.5104 27.5601C40.5104 27.5501 40.5185 27.542 40.5285 27.542H40.8545C40.8645 27.542 40.8726 27.5501 40.8726 27.5601V27.7956C40.8726 27.8056 40.8645 27.8137 40.8545 27.8137H40.5285C40.5185 27.8137 40.5104 27.8056 40.5104 27.7956V27.5601Z" fill="#C9D0DC"/>
                    <path d="M41.253 27.542C41.243 27.542 41.2349 27.5501 41.2349 27.5601V27.7956C41.2349 27.8056 41.243 27.8137 41.253 27.8137H41.579C41.589 27.8137 41.5971 27.8056 41.5971 27.7956V27.5601C41.5971 27.5501 41.589 27.542 41.579 27.542H41.253Z" fill="#C9D0DC"/>
                    <path d="M41.9593 27.5601C41.9593 27.5501 41.9674 27.542 41.9774 27.542H42.3035C42.3135 27.542 42.3216 27.5501 42.3216 27.5601V27.7956C42.3216 27.8056 42.3135 27.8137 42.3035 27.8137H41.9774C41.9674 27.8137 41.9593 27.8056 41.9593 27.7956V27.5601Z" fill="#C9D0DC"/>
                    <path d="M42.7019 27.542C42.6919 27.542 42.6838 27.5501 42.6838 27.5601V27.7956C42.6838 27.8056 42.6919 27.8137 42.7019 27.8137H43.0279C43.0379 27.8137 43.046 27.8056 43.046 27.7956V27.5601C43.046 27.5501 43.0379 27.542 43.0279 27.542H42.7019Z" fill="#C9D0DC"/>
                    <path d="M43.4083 27.5601C43.4083 27.5501 43.4164 27.542 43.4264 27.542H43.7524C43.7624 27.542 43.7705 27.5501 43.7705 27.5601V27.7956C43.7705 27.8056 43.7624 27.8137 43.7524 27.8137H43.4264C43.4164 27.8137 43.4083 27.8056 43.4083 27.7956V27.5601Z" fill="#C9D0DC"/>
                    <path d="M44.1508 27.542C44.1408 27.542 44.1327 27.5501 44.1327 27.5601V27.7956C44.1327 27.8056 44.1408 27.8137 44.1508 27.8137H44.4768C44.4868 27.8137 44.4949 27.8056 44.4949 27.7956V27.5601C44.4949 27.5501 44.4868 27.542 44.4768 27.542H44.1508Z" fill="#C9D0DC"/>
                    <path d="M44.8572 27.5601C44.8572 27.5501 44.8653 27.542 44.8753 27.542H45.2013C45.2113 27.542 45.2194 27.5501 45.2194 27.5601V27.7956C45.2194 27.8056 45.2113 27.8137 45.2013 27.8137H44.8753C44.8653 27.8137 44.8572 27.8056 44.8572 27.7956V27.5601Z" fill="#C9D0DC"/>
                    <path d="M45.5998 27.542C45.5897 27.542 45.5816 27.5501 45.5816 27.5601V27.7956C45.5816 27.8056 45.5897 27.8137 45.5998 27.8137H45.9258C45.9358 27.8137 45.9439 27.8056 45.9439 27.7956V27.5601C45.9439 27.5501 45.9358 27.542 45.9258 27.542H45.5998Z" fill="#C9D0DC"/>
                    <path d="M46.3061 27.5601C46.3061 27.5501 46.3142 27.542 46.3242 27.542H46.6502C46.6602 27.542 46.6683 27.5501 46.6683 27.5601V27.7956C46.6683 27.8056 46.6602 27.8137 46.6502 27.8137H46.3242C46.3142 27.8137 46.3061 27.8056 46.3061 27.7956V27.5601Z" fill="#C9D0DC"/>
                    <path d="M47.0487 27.542C47.0387 27.542 47.0306 27.5501 47.0306 27.5601V27.7956C47.0306 27.8056 47.0387 27.8137 47.0487 27.8137H47.3747C47.3847 27.8137 47.3928 27.8056 47.3928 27.7956V27.5601C47.3928 27.5501 47.3847 27.542 47.3747 27.542H47.0487Z" fill="#C9D0DC"/>
                    <path d="M47.755 27.5601C47.755 27.5501 47.7631 27.542 47.7731 27.542H48.0991C48.1091 27.542 48.1173 27.5501 48.1173 27.5601V27.7956C48.1173 27.8056 48.1091 27.8137 48.0991 27.8137H47.7731C47.7631 27.8137 47.755 27.8056 47.755 27.7956V27.5601Z" fill="#C9D0DC"/>
                    <path d="M48.4976 27.542C48.4876 27.542 48.4795 27.5501 48.4795 27.5601V27.7956C48.4795 27.8056 48.4876 27.8137 48.4976 27.8137H48.8236C48.8336 27.8137 48.8417 27.8056 48.8417 27.7956V27.5601C48.8417 27.5501 48.8336 27.542 48.8236 27.542H48.4976Z" fill="#C9D0DC"/>
                    <path d="M49.2039 27.5601C49.2039 27.5501 49.2121 27.542 49.2221 27.542H49.5481C49.5581 27.542 49.5662 27.5501 49.5662 27.5601V27.7956C49.5662 27.8056 49.5581 27.8137 49.5481 27.8137H49.2221C49.2121 27.8137 49.2039 27.8056 49.2039 27.7956V27.5601Z" fill="#C9D0DC"/>
                    <path d="M49.9465 27.542C49.9365 27.542 49.9284 27.5501 49.9284 27.5601V27.7956C49.9284 27.8056 49.9365 27.8137 49.9465 27.8137H50.2725C50.2825 27.8137 50.2906 27.8056 50.2906 27.7956V27.5601C50.2906 27.5501 50.2825 27.542 50.2725 27.542H49.9465Z" fill="#C9D0DC"/>
                    <path d="M50.6529 27.5601C50.6529 27.5501 50.661 27.542 50.671 27.542H50.997C51.007 27.542 51.0151 27.5501 51.0151 27.5601V27.7956C51.0151 27.8056 51.007 27.8137 50.997 27.8137H50.671C50.661 27.8137 50.6529 27.8056 50.6529 27.7956V27.5601Z" fill="#C9D0DC"/>
                    <path d="M51.3954 27.542C51.3854 27.542 51.3773 27.5501 51.3773 27.5601V27.7956C51.3773 27.8056 51.3854 27.8137 51.3954 27.8137H51.7215C51.7315 27.8137 51.7396 27.8056 51.7396 27.7956V27.5601C51.7396 27.5501 51.7315 27.542 51.7215 27.542H51.3954Z" fill="#C9D0DC"/>
                    <path d="M52.1018 27.5601C52.1018 27.5501 52.1099 27.542 52.1199 27.542H52.4459C52.4559 27.542 52.464 27.5501 52.464 27.5601V27.7956C52.464 27.8056 52.4559 27.8137 52.4459 27.8137H52.1199C52.1099 27.8137 52.1018 27.8056 52.1018 27.7956V27.5601Z" fill="#C9D0DC"/>
                    <path d="M52.8444 27.542C52.8344 27.542 52.8263 27.5501 52.8263 27.5601V27.7956C52.8263 27.8056 52.8344 27.8137 52.8444 27.8137H53.1704C53.1804 27.8137 53.1885 27.8056 53.1885 27.7956V27.5601C53.1885 27.5501 53.1804 27.542 53.1704 27.542H52.8444Z" fill="#C9D0DC"/>
                    <path d="M56.2673 27.5601C56.2673 27.5501 56.2755 27.542 56.2855 27.542H56.6115C56.6215 27.542 56.6296 27.5501 56.6296 27.5601V27.7956C56.6296 27.8056 56.6215 27.8137 56.6115 27.8137H56.2855C56.2755 27.8137 56.2673 27.8056 56.2673 27.7956V27.5601Z" fill="#C9D0DC"/>
                    <path d="M57.0099 27.542C56.9999 27.542 56.9918 27.5501 56.9918 27.5601V27.7956C56.9918 27.8056 56.9999 27.8137 57.0099 27.8137H57.3359C57.3459 27.8137 57.354 27.8056 57.354 27.7956V27.5601C57.354 27.5501 57.3459 27.542 57.3359 27.542H57.0099Z" fill="#C9D0DC"/>
                    <path d="M57.7163 27.5601C57.7163 27.5501 57.7244 27.542 57.7344 27.542H58.0604C58.0704 27.542 58.0785 27.5501 58.0785 27.5601V27.7956C58.0785 27.8056 58.0704 27.8137 58.0604 27.8137H57.7344C57.7244 27.8137 57.7163 27.8056 57.7163 27.7956V27.5601Z" fill="#C9D0DC"/>
                    <path d="M58.4588 27.542C58.4488 27.542 58.4407 27.5501 58.4407 27.5601V27.7956C58.4407 27.8056 58.4488 27.8137 58.4588 27.8137H58.7849C58.7949 27.8137 58.803 27.8056 58.803 27.7956V27.5601C58.803 27.5501 58.7949 27.542 58.7849 27.542H58.4588Z" fill="#C9D0DC"/>
                    <path d="M59.1652 27.5601C59.1652 27.5501 59.1733 27.542 59.1833 27.542H59.5093C59.5193 27.542 59.5274 27.5501 59.5274 27.5601V27.7956C59.5274 27.8056 59.5193 27.8137 59.5093 27.8137H59.1833C59.1733 27.8137 59.1652 27.8056 59.1652 27.7956V27.5601Z" fill="#C9D0DC"/>
                    <path d="M59.9078 27.542C59.8978 27.542 59.8897 27.5501 59.8897 27.5601V27.7956C59.8897 27.8056 59.8978 27.8137 59.9078 27.8137H60.2338C60.2438 27.8137 60.2519 27.8056 60.2519 27.7956V27.5601C60.2519 27.5501 60.2438 27.542 60.2338 27.542H59.9078Z" fill="#C9D0DC"/>
                    <path d="M60.6141 27.5601C60.6141 27.5501 60.6222 27.542 60.6322 27.542H60.9582C60.9682 27.542 60.9763 27.5501 60.9763 27.5601V27.7956C60.9763 27.8056 60.9682 27.8137 60.9582 27.8137H60.6322C60.6222 27.8137 60.6141 27.8056 60.6141 27.7956V27.5601Z" fill="#C9D0DC"/>
                    <path d="M61.3567 27.542C61.3467 27.542 61.3386 27.5501 61.3386 27.5601V27.7956C61.3386 27.8056 61.3467 27.8137 61.3567 27.8137H61.6827C61.6927 27.8137 61.7008 27.8056 61.7008 27.7956V27.5601C61.7008 27.5501 61.6927 27.542 61.6827 27.542H61.3567Z" fill="#C9D0DC"/>
                    <path d="M62.063 27.5601C62.063 27.5501 62.0712 27.542 62.0812 27.542H62.4072C62.4172 27.542 62.4253 27.5501 62.4253 27.5601V27.7956C62.4253 27.8056 62.4172 27.8137 62.4072 27.8137H62.0812C62.0712 27.8137 62.063 27.8056 62.063 27.7956V27.5601Z" fill="#C9D0DC"/>
                    <path d="M62.8056 27.542C62.7956 27.542 62.7875 27.5501 62.7875 27.5601V27.7956C62.7875 27.8056 62.7956 27.8137 62.8056 27.8137H63.1316C63.1416 27.8137 63.1497 27.8056 63.1497 27.7956V27.5601C63.1497 27.5501 63.1416 27.542 63.1316 27.542H62.8056Z" fill="#C9D0DC"/>
                    <path d="M63.512 27.5601C63.512 27.5501 63.5201 27.542 63.5301 27.542H63.8561C63.8661 27.542 63.8742 27.5501 63.8742 27.5601V27.7956C63.8742 27.8056 63.8661 27.8137 63.8561 27.8137H63.5301C63.5201 27.8137 63.512 27.8056 63.512 27.7956V27.5601Z" fill="#C9D0DC"/>
                    <path d="M64.2545 27.542C64.2445 27.542 64.2364 27.5501 64.2364 27.5601V27.7956C64.2364 27.8056 64.2445 27.8137 64.2545 27.8137H64.5805C64.5905 27.8137 64.5987 27.8056 64.5987 27.7956V27.5601C64.5987 27.5501 64.5905 27.542 64.5805 27.542H64.2545Z" fill="#C9D0DC"/>
                    <path d="M64.9609 27.5601C64.9609 27.5501 64.969 27.542 64.979 27.542H65.305C65.315 27.542 65.3231 27.5501 65.3231 27.5601V27.7956C65.3231 27.8056 65.315 27.8137 65.305 27.8137H64.979C64.969 27.8137 64.9609 27.8056 64.9609 27.7956V27.5601Z" fill="#C9D0DC"/>
                    <path d="M65.7035 27.542C65.6935 27.542 65.6854 27.5501 65.6854 27.5601V27.7956C65.6854 27.8056 65.6935 27.8137 65.7035 27.8137H66.0295C66.0395 27.8137 66.0476 27.8056 66.0476 27.7956V27.5601C66.0476 27.5501 66.0395 27.542 66.0295 27.542H65.7035Z" fill="#C9D0DC"/>
                    <path d="M66.4098 27.5601C66.4098 27.5501 66.4179 27.542 66.4279 27.542H66.7539C66.7639 27.542 66.772 27.5501 66.772 27.5601V27.7956C66.772 27.8056 66.7639 27.8137 66.7539 27.8137H66.4279C66.4179 27.8137 66.4098 27.8056 66.4098 27.7956V27.5601Z" fill="#C9D0DC"/>
                    <path d="M67.1524 27.542C67.1424 27.542 67.1343 27.5501 67.1343 27.5601V27.7956C67.1343 27.8056 67.1424 27.8137 67.1524 27.8137H67.4784C67.4884 27.8137 67.4965 27.8056 67.4965 27.7956V27.5601C67.4965 27.5501 67.4884 27.542 67.4784 27.542H67.1524Z" fill="#C9D0DC"/>
                    <path d="M67.8589 27.5601C67.8589 27.5501 67.867 27.542 67.877 27.542H68.2031C68.2131 27.542 68.2212 27.5501 68.2212 27.5601V27.7956C68.2212 27.8056 68.2131 27.8137 68.2031 27.8137H67.877C67.867 27.8137 67.8589 27.8056 67.8589 27.7956V27.5601Z" fill="#C9D0DC"/>
                    <path d="M68.6015 27.542C68.5915 27.542 68.5834 27.5501 68.5834 27.5601V27.7956C68.5834 27.8056 68.5915 27.8137 68.6015 27.8137H68.9275C68.9375 27.8137 68.9456 27.8056 68.9456 27.7956V27.5601C68.9456 27.5501 68.9375 27.542 68.9275 27.542H68.6015Z" fill="#C9D0DC"/>
                    <path d="M69.3079 27.5601C69.3079 27.5501 69.316 27.542 69.326 27.542H69.652C69.662 27.542 69.6701 27.5501 69.6701 27.5601V27.7956C69.6701 27.8056 69.662 27.8137 69.652 27.8137H69.326C69.316 27.8137 69.3079 27.8056 69.3079 27.7956V27.5601Z" fill="#C9D0DC"/>
                    <path d="M70.0504 27.7228C70.0404 27.7228 70.0323 27.7309 70.0323 27.741V27.9764C70.0323 27.9864 70.0404 27.9945 70.0504 27.9945H70.3764C70.3864 27.9945 70.3946 27.9864 70.3946 27.9764V27.741C70.3946 27.7309 70.3864 27.7228 70.3764 27.7228H70.0504Z" fill="#C9D0DC"/>
                    <path d="M24.7938 30.8648L36.7716 30.3376L22.9453 30.3604L23.2448 30.538C23.3219 30.5837 23.4065 30.6152 23.4947 30.6311L24.7938 30.8648Z" fill="url(#paint12_linear_3717_10920)"/>
                    <path d="M76.0663 29.9211H76.3945C76.3851 29.6935 76.3155 29.4716 76.1925 29.2669C76.1643 29.2201 76.1335 29.1744 76.1002 29.1299H75.7014C75.9276 29.3681 76.0582 29.6366 76.0663 29.9211Z" fill="url(#paint13_linear_3717_10920)"/>
                    <path d="M75.5929 29.0245H76.0145C75.9069 28.9019 75.7794 28.7901 75.6354 28.691C75.63 28.6873 75.6246 28.6836 75.6192 28.6799H75.0963C75.2864 28.7834 75.4534 28.899 75.5929 29.0245Z" fill="url(#paint14_linear_3717_10920)"/>
                    <path d="M74.8854 28.5744H75.4483C75.3366 28.5115 75.2178 28.4558 75.0933 28.4076H74.459C74.6094 28.4573 74.7519 28.5131 74.8854 28.5744Z" fill="url(#paint15_linear_3717_10920)"/>
                    <path d="M75.6234 30.846C75.8831 30.6026 76.0404 30.3238 76.0637 30.0266H76.3945C76.3852 30.2541 76.3155 30.4761 76.1925 30.6807C76.1583 30.7375 76.1203 30.7926 76.0785 30.846H75.6234Z" fill="url(#paint16_linear_3717_10920)"/>
                    <path d="M74.9451 31.296C75.1564 31.1943 75.3437 31.0785 75.5017 30.9514H75.9891C75.887 31.0629 75.7682 31.1652 75.6354 31.2566C75.616 31.27 75.5964 31.2831 75.5764 31.296H74.9451Z" fill="url(#paint17_linear_3717_10920)"/>
                    <path d="M74.2003 31.5683C74.378 31.5205 74.5466 31.4646 74.7047 31.4015H75.3967C75.2773 31.4651 75.1504 31.5209 75.0176 31.5683H74.2003Z" fill="url(#paint18_linear_3717_10920)"/>
                    <g filter="url(#filter18_i_3717_10920)">
                        <path d="M19.4999 30.1688C19.4999 29.9694 19.6627 29.8083 19.8621 29.8104L36.706 29.9858C36.8063 29.9869 36.8871 30.0685 36.8871 30.1688C36.8871 30.2691 36.8063 30.3508 36.706 30.3518L19.8621 30.5273C19.6627 30.5293 19.4999 30.3683 19.4999 30.1688Z" fill="url(#paint19_linear_3717_10920)"/>
                    </g>
                    <g filter="url(#filter19_f_3717_10920)">
                        <rect x="35.7525" y="31.5183" width="34.9694" height="0.232064" fill="white"/>
                    </g>
                </g>
            </g>
        </g>
    </g>
    <defs>
        <filter id="filter0_d_3717_10920" x="-16.5" y="-9" width="121.5" height="84" filterUnits="userSpaceOnUse" color-interpolation-filters="sRGB">
            <feFlood flood-opacity="0" result="BackgroundImageFix"/>
            <feColorMatrix in="SourceAlpha" type="matrix" values="0 0 0 0 0 0 0 0 0 0 0 0 0 0 0 0 0 0 127 0" result="hardAlpha"/>
            <feOffset dx="-4.5" dy="3"/>
            <feGaussianBlur stdDeviation="6"/>
            <feColorMatrix type="matrix" values="0 0 0 0 0.161719 0 0 0 0 0.232031 0 0 0 0 0.3375 0 0 0 0.3 0"/>
            <feBlend mode="normal" in2="BackgroundImageFix" result="effect1_dropShadow_3717_10920"/>
            <feBlend mode="normal" in="SourceGraphic" in2="effect1_dropShadow_3717_10920" result="shape"/>
        </filter>
        <filter id="filter1_d_3717_10920" x="17.2499" y="4.81201" width="60.7505" height="53.3774" filterUnits="userSpaceOnUse" color-interpolation-filters="sRGB">
            <feFlood flood-opacity="0" result="BackgroundImageFix"/>
            <feColorMatrix in="SourceAlpha" type="matrix" values="0 0 0 0 0 0 0 0 0 0 0 0 0 0 0 0 0 0 127 0" result="hardAlpha"/>
            <feOffset dx="-1.5" dy="2.25"/>
            <feGaussianBlur stdDeviation="0.375"/>
            <feComposite in2="hardAlpha" operator="out"/>
            <feColorMatrix type="matrix" values="0 0 0 0 0.539896 0 0 0 0 0.541967 0 0 0 0 0.591667 0 0 0 0.56 0"/>
            <feBlend mode="normal" in2="BackgroundImageFix" result="effect1_dropShadow_3717_10920"/>
            <feBlend mode="normal" in="SourceGraphic" in2="effect1_dropShadow_3717_10920" result="shape"/>
        </filter>
        <filter id="filter2_i_3717_10920" x="21.5524" y="19.6744" width="7.69666" height="10.3141" filterUnits="userSpaceOnUse" color-interpolation-filters="sRGB">
            <feFlood flood-opacity="0" result="BackgroundImageFix"/>
            <feBlend mode="normal" in="SourceGraphic" in2="BackgroundImageFix" result="shape"/>
            <feColorMatrix in="SourceAlpha" type="matrix" values="0 0 0 0 0 0 0 0 0 0 0 0 0 0 0 0 0 0 127 0" result="hardAlpha"/>
            <feOffset dx="0.15" dy="-0.375"/>
            <feGaussianBlur stdDeviation="0.1875"/>
            <feComposite in2="hardAlpha" operator="arithmetic" k2="-1" k3="1"/>
            <feColorMatrix type="matrix" values="0 0 0 0 0.752941 0 0 0 0 0.772549 0 0 0 0 0.815686 0 0 0 1 0"/>
            <feBlend mode="normal" in2="shape" result="effect1_innerShadow_3717_10920"/>
        </filter>
        <filter id="filter3_i_3717_10920" x="21.5524" y="30.1558" width="7.69666" height="10.3141" filterUnits="userSpaceOnUse" color-interpolation-filters="sRGB">
            <feFlood flood-opacity="0" result="BackgroundImageFix"/>
            <feBlend mode="normal" in="SourceGraphic" in2="BackgroundImageFix" result="shape"/>
            <feColorMatrix in="SourceAlpha" type="matrix" values="0 0 0 0 0 0 0 0 0 0 0 0 0 0 0 0 0 0 127 0" result="hardAlpha"/>
            <feOffset dx="0.15" dy="-0.375"/>
            <feGaussianBlur stdDeviation="0.1875"/>
            <feComposite in2="hardAlpha" operator="arithmetic" k2="-1" k3="1"/>
            <feColorMatrix type="matrix" values="0 0 0 0 0.752941 0 0 0 0 0.772549 0 0 0 0 0.815686 0 0 0 1 0"/>
            <feBlend mode="normal" in2="shape" result="effect1_innerShadow_3717_10920"/>
        </filter>
        <filter id="filter4_ii_3717_10920" x="52.1456" y="21.4639" width="6.71407" height="3.64148" filterUnits="userSpaceOnUse" color-interpolation-filters="sRGB">
            <feFlood flood-opacity="0" result="BackgroundImageFix"/>
            <feBlend mode="normal" in="SourceGraphic" in2="BackgroundImageFix" result="shape"/>
            <feColorMatrix in="SourceAlpha" type="matrix" values="0 0 0 0 0 0 0 0 0 0 0 0 0 0 0 0 0 0 127 0" result="hardAlpha"/>
            <feOffset dx="0.375" dy="-0.375"/>
            <feGaussianBlur stdDeviation="0.375"/>
            <feComposite in2="hardAlpha" operator="arithmetic" k2="-1" k3="1"/>
            <feColorMatrix type="matrix" values="0 0 0 0 0.671667 0 0 0 0 0.699222 0 0 0 0 0.775 0 0 0 1 0"/>
            <feBlend mode="normal" in2="shape" result="effect1_innerShadow_3717_10920"/>
            <feColorMatrix in="SourceAlpha" type="matrix" values="0 0 0 0 0 0 0 0 0 0 0 0 0 0 0 0 0 0 127 0" result="hardAlpha"/>
            <feOffset dy="0.1875"/>
            <feGaussianBlur stdDeviation="0.1875"/>
            <feComposite in2="hardAlpha" operator="arithmetic" k2="-1" k3="1"/>
            <feColorMatrix type="matrix" values="0 0 0 0 1 0 0 0 0 1 0 0 0 0 1 0 0 0 1 0"/>
            <feBlend mode="normal" in2="effect1_innerShadow_3717_10920" result="effect2_innerShadow_3717_10920"/>
        </filter>
        <filter id="filter5_d_3717_10920" x="53.3474" y="23.1025" width="2.28043" height="0.818439" filterUnits="userSpaceOnUse" color-interpolation-filters="sRGB">
            <feFlood flood-opacity="0" result="BackgroundImageFix"/>
            <feColorMatrix in="SourceAlpha" type="matrix" values="0 0 0 0 0 0 0 0 0 0 0 0 0 0 0 0 0 0 127 0" result="hardAlpha"/>
            <feOffset dy="0.181116"/>
            <feGaussianBlur stdDeviation="0.090558"/>
            <feColorMatrix type="matrix" values="0 0 0 0 0.74902 0 0 0 0 0.811765 0 0 0 0 0.866667 0 0 0 0.5 0"/>
            <feBlend mode="normal" in2="BackgroundImageFix" result="effect1_dropShadow_3717_10920"/>
            <feBlend mode="normal" in="SourceGraphic" in2="effect1_dropShadow_3717_10920" result="shape"/>
        </filter>
        <filter id="filter6_i_3717_10920" x="53.1273" y="21.7541" width="2.13077" height="3.42745" filterUnits="userSpaceOnUse" color-interpolation-filters="sRGB">
            <feFlood flood-opacity="0" result="BackgroundImageFix"/>
            <feBlend mode="normal" in="SourceGraphic" in2="BackgroundImageFix" result="shape"/>
            <feColorMatrix in="SourceAlpha" type="matrix" values="0 0 0 0 0 0 0 0 0 0 0 0 0 0 0 0 0 0 127 0" result="hardAlpha"/>
            <feOffset dy="-0.181116"/>
            <feGaussianBlur stdDeviation="0.090558"/>
            <feComposite in2="hardAlpha" operator="arithmetic" k2="-1" k3="1"/>
            <feColorMatrix type="matrix" values="0 0 0 0 0.74902 0 0 0 0 0.811765 0 0 0 0 0.866667 0 0 0 1 0"/>
            <feBlend mode="normal" in2="shape" result="effect1_innerShadow_3717_10920"/>
        </filter>
        <filter id="filter7_i_3717_10920" x="45.4454" y="16.8125" width="1.44893" height="0.860514" filterUnits="userSpaceOnUse" color-interpolation-filters="sRGB">
            <feFlood flood-opacity="0" result="BackgroundImageFix"/>
            <feBlend mode="normal" in="SourceGraphic" in2="BackgroundImageFix" result="shape"/>
            <feColorMatrix in="SourceAlpha" type="matrix" values="0 0 0 0 0 0 0 0 0 0 0 0 0 0 0 0 0 0 127 0" result="hardAlpha"/>
            <feOffset dy="-0.181116"/>
            <feGaussianBlur stdDeviation="0.090558"/>
            <feComposite in2="hardAlpha" operator="arithmetic" k2="-1" k3="1"/>
            <feColorMatrix type="matrix" values="0 0 0 0 0.739062 0 0 0 0 0.784896 0 0 0 0 0.825 0 0 0 1 0"/>
            <feBlend mode="normal" in2="shape" result="effect1_innerShadow_3717_10920"/>
        </filter>
        <filter id="filter8_i_3717_10920" x="46.5323" y="20.616" width="1.44893" height="0.860514" filterUnits="userSpaceOnUse" color-interpolation-filters="sRGB">
            <feFlood flood-opacity="0" result="BackgroundImageFix"/>
            <feBlend mode="normal" in="SourceGraphic" in2="BackgroundImageFix" result="shape"/>
            <feColorMatrix in="SourceAlpha" type="matrix" values="0 0 0 0 0 0 0 0 0 0 0 0 0 0 0 0 0 0 127 0" result="hardAlpha"/>
            <feOffset dy="-0.181116"/>
            <feGaussianBlur stdDeviation="0.090558"/>
            <feComposite in2="hardAlpha" operator="arithmetic" k2="-1" k3="1"/>
            <feColorMatrix type="matrix" values="0 0 0 0 0.739062 0 0 0 0 0.784896 0 0 0 0 0.825 0 0 0 1 0"/>
            <feBlend mode="normal" in2="shape" result="effect1_innerShadow_3717_10920"/>
        </filter>
        <filter id="filter9_i_3717_10920" x="47.256" y="23.6947" width="1.44893" height="0.860514" filterUnits="userSpaceOnUse" color-interpolation-filters="sRGB">
            <feFlood flood-opacity="0" result="BackgroundImageFix"/>
            <feBlend mode="normal" in="SourceGraphic" in2="BackgroundImageFix" result="shape"/>
            <feColorMatrix in="SourceAlpha" type="matrix" values="0 0 0 0 0 0 0 0 0 0 0 0 0 0 0 0 0 0 127 0" result="hardAlpha"/>
            <feOffset dy="-0.181116"/>
            <feGaussianBlur stdDeviation="0.090558"/>
            <feComposite in2="hardAlpha" operator="arithmetic" k2="-1" k3="1"/>
            <feColorMatrix type="matrix" values="0 0 0 0 0.739062 0 0 0 0 0.784896 0 0 0 0 0.825 0 0 0 1 0"/>
            <feBlend mode="normal" in2="shape" result="effect1_innerShadow_3717_10920"/>
        </filter>
        <filter id="filter10_i_3717_10920" x="41.8873" y="4.96503" width="3.21156" height="1.47551" filterUnits="userSpaceOnUse" color-interpolation-filters="sRGB">
            <feFlood flood-opacity="0" result="BackgroundImageFix"/>
            <feBlend mode="normal" in="SourceGraphic" in2="BackgroundImageFix" result="shape"/>
            <feColorMatrix in="SourceAlpha" type="matrix" values="0 0 0 0 0 0 0 0 0 0 0 0 0 0 0 0 0 0 127 0" result="hardAlpha"/>
            <feOffset dy="0.135837"/>
            <feComposite in2="hardAlpha" operator="arithmetic" k2="-1" k3="1"/>
            <feColorMatrix type="matrix" values="0 0 0 0 1 0 0 0 0 1 0 0 0 0 1 0 0 0 0.96 0"/>
            <feBlend mode="normal" in2="shape" result="effect1_innerShadow_3717_10920"/>
        </filter>
        <filter id="filter11_ii_3717_10920" x="52.1456" y="34.7114" width="6.71407" height="3.64148" filterUnits="userSpaceOnUse" color-interpolation-filters="sRGB">
            <feFlood flood-opacity="0" result="BackgroundImageFix"/>
            <feBlend mode="normal" in="SourceGraphic" in2="BackgroundImageFix" result="shape"/>
            <feColorMatrix in="SourceAlpha" type="matrix" values="0 0 0 0 0 0 0 0 0 0 0 0 0 0 0 0 0 0 127 0" result="hardAlpha"/>
            <feOffset dx="0.375" dy="-0.375"/>
            <feGaussianBlur stdDeviation="0.375"/>
            <feComposite in2="hardAlpha" operator="arithmetic" k2="-1" k3="1"/>
            <feColorMatrix type="matrix" values="0 0 0 0 0.671667 0 0 0 0 0.699222 0 0 0 0 0.775 0 0 0 1 0"/>
            <feBlend mode="normal" in2="shape" result="effect1_innerShadow_3717_10920"/>
            <feColorMatrix in="SourceAlpha" type="matrix" values="0 0 0 0 0 0 0 0 0 0 0 0 0 0 0 0 0 0 127 0" result="hardAlpha"/>
            <feOffset dy="0.1875"/>
            <feGaussianBlur stdDeviation="0.1875"/>
            <feComposite in2="hardAlpha" operator="arithmetic" k2="-1" k3="1"/>
            <feColorMatrix type="matrix" values="0 0 0 0 1 0 0 0 0 1 0 0 0 0 1 0 0 0 1 0"/>
            <feBlend mode="normal" in2="effect1_innerShadow_3717_10920" result="effect2_innerShadow_3717_10920"/>
        </filter>
        <filter id="filter12_d_3717_10920" x="53.3474" y="36.4433" width="2.28043" height="0.818439" filterUnits="userSpaceOnUse" color-interpolation-filters="sRGB">
            <feFlood flood-opacity="0" result="BackgroundImageFix"/>
            <feColorMatrix in="SourceAlpha" type="matrix" values="0 0 0 0 0 0 0 0 0 0 0 0 0 0 0 0 0 0 127 0" result="hardAlpha"/>
            <feOffset dy="0.181116"/>
            <feGaussianBlur stdDeviation="0.090558"/>
            <feColorMatrix type="matrix" values="0 0 0 0 0.695208 0 0 0 0 0.727254 0 0 0 0 0.783333 0 0 0 1 0"/>
            <feBlend mode="normal" in2="BackgroundImageFix" result="effect1_dropShadow_3717_10920"/>
            <feBlend mode="normal" in="SourceGraphic" in2="effect1_dropShadow_3717_10920" result="shape"/>
        </filter>
        <filter id="filter13_ii_3717_10920" x="53.1287" y="34.4456" width="2.50577" height="3.80884" filterUnits="userSpaceOnUse" color-interpolation-filters="sRGB">
            <feFlood flood-opacity="0" result="BackgroundImageFix"/>
            <feBlend mode="normal" in="SourceGraphic" in2="BackgroundImageFix" result="shape"/>
            <feColorMatrix in="SourceAlpha" type="matrix" values="0 0 0 0 0 0 0 0 0 0 0 0 0 0 0 0 0 0 127 0" result="hardAlpha"/>
            <feOffset dx="0.375" dy="-0.375"/>
            <feGaussianBlur stdDeviation="0.375"/>
            <feComposite in2="hardAlpha" operator="arithmetic" k2="-1" k3="1"/>
            <feColorMatrix type="matrix" values="0 0 0 0 0.671667 0 0 0 0 0.699222 0 0 0 0 0.775 0 0 0 1 0"/>
            <feBlend mode="normal" in2="shape" result="effect1_innerShadow_3717_10920"/>
            <feColorMatrix in="SourceAlpha" type="matrix" values="0 0 0 0 0 0 0 0 0 0 0 0 0 0 0 0 0 0 127 0" result="hardAlpha"/>
            <feOffset dy="0.1875"/>
            <feGaussianBlur stdDeviation="0.1875"/>
            <feComposite in2="hardAlpha" operator="arithmetic" k2="-1" k3="1"/>
            <feColorMatrix type="matrix" values="0 0 0 0 1 0 0 0 0 1 0 0 0 0 1 0 0 0 1 0"/>
            <feBlend mode="normal" in2="effect1_innerShadow_3717_10920" result="effect2_innerShadow_3717_10920"/>
        </filter>
        <filter id="filter14_i_3717_10920" x="45.4454" y="42.1498" width="1.44893" height="0.860514" filterUnits="userSpaceOnUse" color-interpolation-filters="sRGB">
            <feFlood flood-opacity="0" result="BackgroundImageFix"/>
            <feBlend mode="normal" in="SourceGraphic" in2="BackgroundImageFix" result="shape"/>
            <feColorMatrix in="SourceAlpha" type="matrix" values="0 0 0 0 0 0 0 0 0 0 0 0 0 0 0 0 0 0 127 0" result="hardAlpha"/>
            <feOffset dy="-0.181116"/>
            <feGaussianBlur stdDeviation="0.090558"/>
            <feComposite in2="hardAlpha" operator="arithmetic" k2="-1" k3="1"/>
            <feColorMatrix type="matrix" values="0 0 0 0 0.739062 0 0 0 0 0.784896 0 0 0 0 0.825 0 0 0 1 0"/>
            <feBlend mode="normal" in2="shape" result="effect1_innerShadow_3717_10920"/>
        </filter>
        <filter id="filter15_i_3717_10920" x="46.5323" y="38.3464" width="1.44893" height="0.860514" filterUnits="userSpaceOnUse" color-interpolation-filters="sRGB">
            <feFlood flood-opacity="0" result="BackgroundImageFix"/>
            <feBlend mode="normal" in="SourceGraphic" in2="BackgroundImageFix" result="shape"/>
            <feColorMatrix in="SourceAlpha" type="matrix" values="0 0 0 0 0 0 0 0 0 0 0 0 0 0 0 0 0 0 127 0" result="hardAlpha"/>
            <feOffset dy="-0.181116"/>
            <feGaussianBlur stdDeviation="0.090558"/>
            <feComposite in2="hardAlpha" operator="arithmetic" k2="-1" k3="1"/>
            <feColorMatrix type="matrix" values="0 0 0 0 0.739062 0 0 0 0 0.784896 0 0 0 0 0.825 0 0 0 1 0"/>
            <feBlend mode="normal" in2="shape" result="effect1_innerShadow_3717_10920"/>
        </filter>
        <filter id="filter16_i_3717_10920" x="47.256" y="35.2658" width="1.44893" height="0.860514" filterUnits="userSpaceOnUse" color-interpolation-filters="sRGB">
            <feFlood flood-opacity="0" result="BackgroundImageFix"/>
            <feBlend mode="normal" in="SourceGraphic" in2="BackgroundImageFix" result="shape"/>
            <feColorMatrix in="SourceAlpha" type="matrix" values="0 0 0 0 0 0 0 0 0 0 0 0 0 0 0 0 0 0 127 0" result="hardAlpha"/>
            <feOffset dy="-0.181116"/>
            <feGaussianBlur stdDeviation="0.090558"/>
            <feComposite in2="hardAlpha" operator="arithmetic" k2="-1" k3="1"/>
            <feColorMatrix type="matrix" values="0 0 0 0 0.739062 0 0 0 0 0.784896 0 0 0 0 0.825 0 0 0 1 0"/>
            <feBlend mode="normal" in2="shape" result="effect1_innerShadow_3717_10920"/>
        </filter>
        <filter id="filter17_i_3717_10920" x="41.8873" y="53.5612" width="3.21156" height="1.47551" filterUnits="userSpaceOnUse" color-interpolation-filters="sRGB">
            <feFlood flood-opacity="0" result="BackgroundImageFix"/>
            <feBlend mode="normal" in="SourceGraphic" in2="BackgroundImageFix" result="shape"/>
            <feColorMatrix in="SourceAlpha" type="matrix" values="0 0 0 0 0 0 0 0 0 0 0 0 0 0 0 0 0 0 127 0" result="hardAlpha"/>
            <feOffset dy="0.135837"/>
            <feComposite in2="hardAlpha" operator="arithmetic" k2="-1" k3="1"/>
            <feColorMatrix type="matrix" values="0 0 0 0 1 0 0 0 0 1 0 0 0 0 1 0 0 0 0.96 0"/>
            <feBlend mode="normal" in2="shape" result="effect1_innerShadow_3717_10920"/>
        </filter>
        <filter id="filter18_i_3717_10920" x="19.4999" y="29.7353" width="17.5371" height="0.791965" filterUnits="userSpaceOnUse" color-interpolation-filters="sRGB">
            <feFlood flood-opacity="0" result="BackgroundImageFix"/>
            <feBlend mode="normal" in="SourceGraphic" in2="BackgroundImageFix" result="shape"/>
            <feColorMatrix in="SourceAlpha" type="matrix" values="0 0 0 0 0 0 0 0 0 0 0 0 0 0 0 0 0 0 127 0" result="hardAlpha"/>
            <feOffset dx="0.15" dy="-0.075"/>
            <feGaussianBlur stdDeviation="0.1875"/>
            <feComposite in2="hardAlpha" operator="arithmetic" k2="-1" k3="1"/>
            <feColorMatrix type="matrix" values="0 0 0 0 0.752941 0 0 0 0 0.772549 0 0 0 0 0.815686 0 0 0 1 0"/>
            <feBlend mode="normal" in2="shape" result="effect1_innerShadow_3717_10920"/>
        </filter>
        <filter id="filter19_f_3717_10920" x="33.9413" y="29.7071" width="38.5917" height="3.85439" filterUnits="userSpaceOnUse" color-interpolation-filters="sRGB">
            <feFlood flood-opacity="0" result="BackgroundImageFix"/>
            <feBlend mode="normal" in="SourceGraphic" in2="BackgroundImageFix" result="shape"/>
            <feGaussianBlur stdDeviation="0.90558" result="effect1_foregroundBlur_3717_10920"/>
        </filter>
        <linearGradient id="paint0_linear_3717_10920" x1="-18" y1="69.375" x2="120.75" y2="-9.375" gradientUnits="userSpaceOnUse">
            <stop stop-color="#B1B7C1"/>
            <stop offset="1" stop-color="#EBF1FC"/>
        </linearGradient>
        <linearGradient id="paint1_linear_3717_10920" x1="22.2288" y1="19.4992" x2="22.2817" y2="30.8775" gradientUnits="userSpaceOnUse">
            <stop stop-color="white"/>
            <stop offset="0.545996" stop-color="#E8EAED"/>
            <stop offset="0.864886" stop-color="#BCC4D2"/>
            <stop offset="1" stop-color="#949DAD"/>
        </linearGradient>
        <linearGradient id="paint2_linear_3717_10920" x1="22.2288" y1="41.0201" x2="22.2817" y2="29.6418" gradientUnits="userSpaceOnUse">
            <stop stop-color="white"/>
            <stop offset="0.545996" stop-color="#E8EAED"/>
            <stop offset="0.864886" stop-color="#BCC4D2"/>
            <stop offset="1" stop-color="#949DAD"/>
        </linearGradient>
        <linearGradient id="paint3_linear_3717_10920" x1="50.4706" y1="25.3058" x2="50.4706" y2="32.7037" gradientUnits="userSpaceOnUse">
            <stop stop-color="white"/>
            <stop offset="0.545996" stop-color="white"/>
            <stop offset="0.854167" stop-color="#BCC4D2"/>
            <stop offset="1" stop-color="#949DAD"/>
        </linearGradient>
        <linearGradient id="paint4_linear_3717_10920" x1="56.8975" y1="20.6289" x2="56.4164" y2="26.068" gradientUnits="userSpaceOnUse">
            <stop stop-color="white"/>
            <stop offset="0.278075" stop-color="white"/>
            <stop offset="0.776316" stop-color="#BCC4D2"/>
            <stop offset="0.994652" stop-color="#949DAD"/>
        </linearGradient>
        <linearGradient id="paint5_linear_3717_10920" x1="43.2229" y1="3.92646" x2="43.4809" y2="32.5925" gradientUnits="userSpaceOnUse">
            <stop stop-color="white"/>
            <stop offset="0.545996" stop-color="white"/>
            <stop offset="0.864886" stop-color="#DAE3F2"/>
            <stop offset="1" stop-color="#E0EBFF"/>
        </linearGradient>
        <linearGradient id="paint6_linear_3717_10920" x1="42.3652" y1="4.90379" x2="42.9086" y2="6.44327" gradientUnits="userSpaceOnUse">
            <stop stop-color="#CCD2DC"/>
            <stop offset="0.430289" stop-color="#D9E0E6" stop-opacity="0.814234"/>
            <stop offset="1" stop-color="#D8E5EE" stop-opacity="0.08"/>
        </linearGradient>
        <linearGradient id="paint7_linear_3717_10920" x1="55.3151" y1="33.1542" x2="55.3904" y2="38.6497" gradientUnits="userSpaceOnUse">
            <stop stop-color="white"/>
            <stop offset="0.278075" stop-color="white"/>
            <stop offset="0.776316" stop-color="#BCC4D2"/>
            <stop offset="0.994652" stop-color="#949DAD"/>
        </linearGradient>
        <linearGradient id="paint8_linear_3717_10920" x1="54.3678" y1="32.7833" x2="54.5776" y2="38.571" gradientUnits="userSpaceOnUse">
            <stop stop-color="white"/>
            <stop offset="0.278075" stop-color="white"/>
            <stop offset="0.776316" stop-color="#BCC4D2"/>
            <stop offset="0.994652" stop-color="#949DAD"/>
        </linearGradient>
        <linearGradient id="paint9_linear_3717_10920" x1="43.2229" y1="56.0756" x2="43.3533" y2="30.6539" gradientUnits="userSpaceOnUse">
            <stop stop-color="white"/>
            <stop offset="0.545996" stop-color="white"/>
            <stop offset="0.864886" stop-color="#BCC4D2"/>
            <stop offset="1" stop-color="#949DAD"/>
        </linearGradient>
        <linearGradient id="paint10_linear_3717_10920" x1="42.3652" y1="55.098" x2="42.9086" y2="53.5585" gradientUnits="userSpaceOnUse">
            <stop stop-color="#CCD2DC"/>
            <stop offset="0.430289" stop-color="#D9E0E6" stop-opacity="0.814234"/>
            <stop offset="1" stop-color="#D8E5EE" stop-opacity="0.08"/>
        </linearGradient>
        <linearGradient id="paint11_linear_3717_10920" x1="51.7166" y1="32.7426" x2="51.6159" y2="36.615" gradientUnits="userSpaceOnUse">
            <stop stop-color="#5D6673" stop-opacity="0.46"/>
            <stop offset="1" stop-color="#5D6673" stop-opacity="0"/>
        </linearGradient>
        <linearGradient id="paint12_linear_3717_10920" x1="26.7469" y1="30.1766" x2="26.7602" y2="30.7784" gradientUnits="userSpaceOnUse">
            <stop stop-color="#5D6673" stop-opacity="0.46"/>
            <stop offset="1" stop-color="#5D6673" stop-opacity="0"/>
        </linearGradient>
        <linearGradient id="paint13_linear_3717_10920" x1="74.0954" y1="29.4479" x2="76.3161" y2="29.7833" gradientUnits="userSpaceOnUse">
            <stop stop-color="#D2D4DE"/>
            <stop offset="1" stop-color="#767A87"/>
        </linearGradient>
        <linearGradient id="paint14_linear_3717_10920" x1="74.0954" y1="29.4479" x2="76.3161" y2="29.7833" gradientUnits="userSpaceOnUse">
            <stop stop-color="#D2D4DE"/>
            <stop offset="1" stop-color="#767A87"/>
        </linearGradient>
        <linearGradient id="paint15_linear_3717_10920" x1="74.0954" y1="29.4479" x2="76.3161" y2="29.7833" gradientUnits="userSpaceOnUse">
            <stop stop-color="#D2D4DE"/>
            <stop offset="1" stop-color="#767A87"/>
        </linearGradient>
        <linearGradient id="paint16_linear_3717_10920" x1="74.0954" y1="29.4479" x2="76.3161" y2="29.7833" gradientUnits="userSpaceOnUse">
            <stop stop-color="#D2D4DE"/>
            <stop offset="1" stop-color="#767A87"/>
        </linearGradient>
        <linearGradient id="paint17_linear_3717_10920" x1="74.0954" y1="29.4479" x2="76.3161" y2="29.7833" gradientUnits="userSpaceOnUse">
            <stop stop-color="#D2D4DE"/>
            <stop offset="1" stop-color="#767A87"/>
        </linearGradient>
        <linearGradient id="paint18_linear_3717_10920" x1="74.0954" y1="29.4479" x2="76.3161" y2="29.7833" gradientUnits="userSpaceOnUse">
            <stop stop-color="#D2D4DE"/>
            <stop offset="1" stop-color="#767A87"/>
        </linearGradient>
        <linearGradient id="paint19_linear_3717_10920" x1="21.1836" y1="29.7751" x2="20.0288" y2="31.8968" gradientUnits="userSpaceOnUse">
            <stop stop-color="white"/>
            <stop offset="0.545996" stop-color="#E8EAED"/>
            <stop offset="0.864886" stop-color="#BCC4D2"/>
            <stop offset="1" stop-color="#949DAD"/>
        </linearGradient>
        <clipPath id="clip0_3717_10920">
            <rect width="100" height="60" rx="12" fill="white"/>
        </clipPath>
        <clipPath id="clip1_3717_10920">
            <rect width="97.5" height="60" rx="12" fill="white"/>
        </clipPath>
    </defs>
</svg>
