<svg width="16" height="16" viewBox="0 0 16 16" fill="none" xmlns="http://www.w3.org/2000/svg">
    <path d="M14.945 8.00456C14.945 7.35156 14.054 6.84245 12.9639 6.84245H10.6895C10.3796 6.84245 10.2689 6.78158 10.0807 6.58236L6.32878 2.52051C6.20703 2.39323 6.06315 2.32129 5.90267 2.32129H5.19434C5.05046 2.32129 4.96745 2.4541 5.03939 2.60352L6.97624 6.83691L4.1429 7.15234L3.13021 5.34277C3.05273 5.20443 2.93099 5.14355 2.75391 5.14355H2.50488C2.35547 5.14355 2.25586 5.24316 2.25586 5.39258V10.6165C2.25586 10.766 2.35547 10.8656 2.50488 10.8656H2.75391C2.93099 10.8656 3.05273 10.8047 3.13021 10.6663L4.1429 8.85124L6.97624 9.1722L5.03939 13.4001C4.96745 13.555 5.05046 13.6823 5.19434 13.6823H5.90267C6.06315 13.6823 6.20703 13.6159 6.32878 13.4886L10.0807 9.42676C10.2689 9.22201 10.3796 9.16667 10.6895 9.16667H12.9639C14.054 9.16667 14.945 8.65202 14.945 8.00456Z" fill="white"/>
</svg>
