<svg
        width="28"
        height="28"
        viewBox="0 0 28 28"
        fill="none"
        xmlns="http://www.w3.org/2000/svg"
>
    <path d="M17.5832 6.51289C18.2273 5.69025 18.6814 4.56746 18.6814 3.43355C18.6814 3.27792 18.6708 3.12228 18.6497 3C17.5938 3.04447 16.3267 3.7337 15.577 4.66751C14.9752 5.37898 14.4261 6.51289 14.4261 7.64679C14.4261 7.82466 14.4578 7.99141 14.4683 8.04699C14.5317 8.05811 14.6373 8.08034 14.7534 8.08034C15.6932 8.08034 16.8758 7.41334 17.5832 6.51289ZM18.3224 8.31379C16.7491 8.31379 15.4609 9.32542 14.6373 9.32542C13.7609 9.32542 12.6205 8.38049 11.2478 8.38049C8.63975 8.38049 6 10.6483 6 14.9171C6 17.5851 6.97143 20.3977 8.18571 22.2097C9.2205 23.7438 10.1286 25 11.4379 25C12.7261 25 13.2963 24.0995 14.9012 24.0995C16.5273 24.0995 16.8969 24.9778 18.3224 24.9778C19.7373 24.9778 20.677 23.6104 21.5745 22.2653C22.5671 20.7201 22.9894 19.2193 23 19.1415C22.9155 19.1193 20.2124 17.952 20.2124 14.6948C20.2124 11.8711 22.3348 10.6038 22.4615 10.5038C21.0571 8.38049 18.9137 8.31379 18.3224 8.31379Z" fill="#573CFF" />
</svg>