<svg
        width="28"
        height="28"
        viewBox="0 0 28 28"
        fill="none"
        xmlns="http://www.w3.org/2000/svg"
>
    <path d="M20.8715 10.8296L23.2048 6.73338C23.2674 6.62067 23.2837 6.48749 23.2502 6.36268C23.2167 6.23787 23.1361 6.13147 23.0258 6.06652C22.9155 6.00157 22.7845 5.98328 22.661 6.01563C22.5376 6.04798 22.4317 6.12835 22.3662 6.23936L20.0058 10.3836C18.1216 9.5243 16.0793 9.07998 14.0135 9.07998C11.9477 9.07998 9.9054 9.5243 8.02126 10.3836L5.66087 6.23936C5.5954 6.12835 5.48947 6.04798 5.36601 6.01563C5.24256 5.98328 5.11152 6.00157 5.00125 6.06652C4.89099 6.13147 4.81037 6.23787 4.77687 6.36268C4.74336 6.48749 4.75965 6.62067 4.82222 6.73338L7.15555 10.8296C3.1314 13.039 0.399034 17.149 0 22L28 22C27.601 17.149 24.8618 13.039 20.8715 10.8296ZM7.56135 17.9518C7.33128 17.9518 7.10637 17.8826 6.91507 17.7529C6.72376 17.6232 6.57466 17.4389 6.48662 17.2232C6.39857 17.0076 6.37553 16.7703 6.42042 16.5414C6.4653 16.3124 6.5761 16.1022 6.73879 15.9371C6.90147 15.7721 7.10875 15.6597 7.33441 15.6141C7.56006 15.5686 7.79396 15.592 8.00652 15.6813C8.21908 15.7706 8.40076 15.9219 8.52859 16.1159C8.65641 16.31 8.72464 16.5382 8.72464 16.7716C8.72464 17.0846 8.60208 17.3848 8.38392 17.6061C8.16576 17.8274 7.86987 17.9518 7.56135 17.9518ZM20.4522 17.9518C20.2221 17.9518 19.9972 17.8826 19.8059 17.7529C19.6146 17.6232 19.4655 17.4389 19.3774 17.2232C19.2894 17.0076 19.2664 16.7703 19.3112 16.5414C19.3561 16.3124 19.4669 16.1022 19.6296 15.9371C19.7923 15.7721 19.9996 15.6597 20.2252 15.6141C20.4509 15.5686 20.6848 15.592 20.8973 15.6813C21.1099 15.7706 21.2916 15.9219 21.4194 16.1159C21.5472 16.31 21.6155 16.5382 21.6155 16.7716C21.6155 17.0846 21.4929 17.3848 21.2747 17.6061C21.0566 17.8274 20.7607 17.9518 20.4522 17.9518Z" fill="#573CFF" />
</svg>