<svg width="24" height="25" viewBox="0 0 24 25" fill="none" xmlns="http://www.w3.org/2000/svg">
<g clip-path="url(#clip0_5301_39234)">
<path d="M4.86963 19.8613H19.1221C20.9067 19.8613 21.8115 18.9648 21.8115 17.2051V9.07861C21.8115 7.31885 20.9067 6.42236 19.1221 6.42236H16.3496V5.66699C16.3496 4.09814 15.4946 3.35938 13.9341 3.35938H10.0576C8.57178 3.35938 7.65039 4.09814 7.65039 5.66699V6.42236H4.86963C3.10156 6.42236 2.18848 7.31885 2.18848 9.07861V17.2051C2.18848 18.9648 3.10156 19.8613 4.86963 19.8613ZM9.16113 5.66699C9.16113 5.07764 9.50146 4.74561 10.1074 4.74561H13.8843C14.4985 4.74561 14.8389 5.07764 14.8389 5.66699V6.42236H9.16113V5.66699ZM4.93604 18.2925C4.20557 18.2925 3.81543 17.9106 3.81543 17.1553V9.13672C3.81543 8.37305 4.20557 7.99951 4.93604 7.99951H5.89062V18.2925H4.93604ZM7.43457 18.2925V7.99951H16.5654V18.2925H7.43457ZM19.064 7.99951C19.7944 7.99951 20.1846 8.37305 20.1846 9.13672V17.1553C20.1846 17.9106 19.7944 18.2925 19.064 18.2925H18.1094V7.99951H19.064Z" fill="#292838"/>
</g>
<defs>
<clipPath id="clip0_5301_39234">
<rect width="24" height="24" fill="white" transform="translate(0 0.466797)"/>
</clipPath>
</defs>
</svg>
