<svg width="14" height="15" viewBox="0 0 14 15" fill="none" xmlns="http://www.w3.org/2000/svg">
    <path fillRule="evenodd" clipRule="evenodd" d="M9.1938 9.93991H4.80261C4.57783 9.56082 4.4482 9.12013 4.4482 8.65177C4.4482 7.2524 5.60546 6.09998 6.99999 6.09998C8.39453 6.09998 9.54695 7.2524 9.54695 8.65177C9.54695 9.12013 9.41786 9.56082 9.1938 9.93991ZM6.99999 3.23828C7.26631 3.23828 7.49389 3.46586 7.49389 3.73218V4.71513C7.49389 4.98145 7.26631 5.20418 6.99999 5.20418C6.73368 5.20418 6.51094 4.98145 6.51094 4.71513V3.73218C6.51094 3.46586 6.73368 3.23828 6.99999 3.23828ZM9.4356 6.22591C9.24192 6.03706 9.24192 5.72233 9.43076 5.53348L10.1329 4.83137C10.3217 4.64253 10.6364 4.64253 10.8253 4.82653C11.0141 5.01538 11.0141 5.3398 10.8253 5.5238L10.128 6.22106C9.93918 6.41475 9.6196 6.41475 9.4356 6.22591ZM3.872 6.22105C4.056 6.41474 4.37558 6.41474 4.56442 6.22589C4.75326 6.04189 4.75326 5.71747 4.56926 5.53347L3.872 4.83136C3.688 4.64736 3.36842 4.64252 3.17957 4.82652C2.99073 5.01536 2.99073 5.33979 3.17473 5.51894L3.872 6.22105ZM11.9148 9.14567C12.1811 9.14567 12.4038 8.91809 12.4038 8.65177C12.4038 8.38546 12.1811 8.16272 11.9148 8.16272H10.9318C10.6655 8.16272 10.4427 8.38546 10.4427 8.65177C10.4427 8.91809 10.6655 9.14567 10.9318 9.14567H11.9148ZM1.59619 8.65177C1.59619 8.38546 1.81893 8.16272 2.09009 8.16272H3.0682C3.33451 8.16272 3.56209 8.38546 3.56209 8.65177C3.56209 8.91809 3.33451 9.14567 3.0682 9.14567H2.09009C1.81893 9.14567 1.59619 8.91809 1.59619 8.65177Z" fill="#F4B63C" />
    <rect x="4.03235" y="12.4854" width="3.96904" height="0.636364" rx="0.318182" fill="#CAE6FA" />
    <rect x="6.86731" y="10.8945" width="4.25254" height="0.636364" rx="0.318182" fill="#CAE6FA" />
    <rect x="8.56836" y="12.4854" width="1.70102" height="0.636364" rx="0.318182" fill="#CAE6FA" />
    <rect x="3.18182" y="10.8945" width="3.11853" height="0.636364" rx="0.318182" fill="#CAE6FA" />
</svg>