<svg width="12" height="13" viewBox="0 0 12 13" fill="none" xmlns="http://www.w3.org/2000/svg">
    <path d="M8.65649 7.00122C8.65649 6.86011 8.60254 6.73975 8.49463 6.63184L5.25732 3.46509C5.16602 3.37378 5.05396 3.32812 4.92114 3.32812C4.65137 3.32812 4.43555 3.53564 4.43555 3.80542C4.43555 3.93823 4.4895 4.05859 4.58081 4.15405L7.50269 7.00122L4.58081 9.84839C4.49365 9.9397 4.43555 10.0601 4.43555 10.1929C4.43555 10.4668 4.65137 10.6743 4.92114 10.6743C5.05396 10.6743 5.16602 10.6287 5.25732 10.5374L8.49463 7.37061C8.60669 7.2627 8.65649 7.14233 8.65649 7.00122Z" fill="#F33E3E"/>
</svg>
