<svg width="24" height="25" viewBox="0 0 24 25" fill="none" xmlns="http://www.w3.org/2000/svg">
    <g clip-path="url(#clip0_3222_5023)">
        <path d="M6.96973 20.7661C5.17676 20.7661 4.24707 19.8447 4.24707 18.0684V7.96631C4.24707 6.18994 5.17676 5.26855 6.96973 5.26855H17.022C18.8149 5.26855 19.7446 6.18994 19.7446 7.96631V18.0684C19.7446 19.8364 18.8149 20.7661 17.022 20.7661H6.96973ZM7.06934 19.1392H16.9224C17.686 19.1392 18.1177 18.7324 18.1177 17.9272V8.09912C18.1177 7.29395 17.686 6.89551 16.9224 6.89551H7.06934C6.29736 6.89551 5.87402 7.29395 5.87402 8.09912V17.9272C5.87402 18.7324 6.29736 19.1392 7.06934 19.1392ZM9.26904 16.4912C8.854 16.4912 8.52197 16.1592 8.52197 15.7358C8.52197 15.5366 8.60498 15.354 8.74609 15.2212L10.9458 13.0132L8.74609 10.8135C8.60498 10.6724 8.52197 10.4897 8.52197 10.2905C8.52197 9.87549 8.854 9.55176 9.26904 9.55176C9.48486 9.55176 9.65918 9.62646 9.80029 9.77588L12 11.9673L14.2163 9.76758C14.374 9.60986 14.54 9.53516 14.7476 9.53516C15.1626 9.53516 15.4946 9.86719 15.4946 10.2822C15.4946 10.4814 15.4199 10.6558 15.2705 10.8052L13.0625 13.0132L15.2622 15.2129C15.4033 15.354 15.4863 15.5366 15.4863 15.7358C15.4863 16.1592 15.1543 16.4912 14.7393 16.4912C14.5151 16.4912 14.3408 16.4082 14.1997 16.2671L12 14.0757L9.80859 16.2671C9.66748 16.4165 9.48486 16.4912 9.26904 16.4912Z" fill="#F33E3E"/>
    </g>
    <defs>
        <clipPath id="clip0_3222_5023">
            <rect width="24" height="24" fill="white" transform="translate(0 0.998047)"/>
        </clipPath>
    </defs>
</svg>
