<svg width="12" height="12" viewBox="0 0 12 12" fill="none" xmlns="http://www.w3.org/2000/svg">
    <path d="M0.601074 11.3597C0.30363 11.0692 0.310547 10.5573 0.601074 10.2737L4.85522 6.01261L0.601074 1.75846C0.310547 1.47485 0.30363 0.96989 0.601074 0.665528C0.898519 0.368083 1.40348 0.375 1.69401 0.665528L5.94816 4.91968L10.2023 0.665528C10.4998 0.375 10.9909 0.375 11.2952 0.672445C11.5996 0.962972 11.5927 1.46794 11.3022 1.75846L7.04801 6.01261L11.3022 10.2737C11.5927 10.5642 11.5927 11.0623 11.2952 11.3597C10.9978 11.6641 10.4998 11.6571 10.2023 11.3666L5.94816 7.11247L1.69401 11.3666C1.40348 11.6571 0.905436 11.6571 0.601074 11.3597Z" fill="#566B9B"/>
</svg>
