<svg width="21" height="20" viewBox="0 0 21 20" fill="none" xmlns="http://www.w3.org/2000/svg">
    <g clip-path="url(#clip0_3222_117)">
        <path d="M5.9248 17.7681C4.13184 17.7681 3.20215 16.8467 3.20215 15.0703V4.96826C3.20215 3.19189 4.13184 2.27051 5.9248 2.27051H15.9771C17.77 2.27051 18.6997 3.19189 18.6997 4.96826V15.0703C18.6997 16.8384 17.77 17.7681 15.9771 17.7681H5.9248ZM6.02441 16.1411H15.8774C16.6411 16.1411 17.0728 15.7344 17.0728 14.9292V5.10107C17.0728 4.2959 16.6411 3.89746 15.8774 3.89746H6.02441C5.25244 3.89746 4.8291 4.2959 4.8291 5.10107V14.9292C4.8291 15.7344 5.25244 16.1411 6.02441 16.1411ZM13.5449 7.81543C13.96 7.81543 14.2256 8.12256 14.2256 8.5708V12.4307C14.2256 12.9951 13.9102 13.2524 13.3872 13.2524H9.51074C9.0625 13.2524 8.77197 12.9868 8.77197 12.5718C8.77197 12.165 9.0625 11.8911 9.51904 11.8911H10.9219L12.0591 12.0239L10.8223 10.895L7.90869 7.98145C7.77588 7.84863 7.67627 7.64941 7.67627 7.4585C7.67627 7.01855 7.9834 6.73633 8.40674 6.73633C8.63086 6.73633 8.81348 6.81104 8.96289 6.96045L11.8682 9.86572L12.9805 11.0776L12.8643 9.88232V8.5542C12.8643 8.10596 13.1299 7.81543 13.5449 7.81543Z" fill="#566B9B"/>
    </g>
    <defs>
        <clipPath id="clip0_3222_117">
            <rect width="20" height="20" fill="white" transform="translate(0.955078)"/>
        </clipPath>
    </defs>
</svg>
