<svg width="21" height="20" viewBox="0 0 21 20" fill="none" xmlns="http://www.w3.org/2000/svg">
    <path d="M6.76302 16.4732C5.26888 16.4732 4.49414 15.7054 4.49414 14.2251V5.80672C4.49414 4.32642 5.26888 3.55859 6.76302 3.55859H15.1399C16.634 3.55859 17.4088 4.32642 17.4088 5.80672V14.2251C17.4088 15.6985 16.634 16.4732 15.1399 16.4732H6.76302ZM6.84603 15.1174H15.0569C15.6933 15.1174 16.053 14.7785 16.053 14.1075V5.9174C16.053 5.24642 15.6933 4.91439 15.0569 4.91439H6.84603C6.20272 4.91439 5.84993 5.24642 5.84993 5.9174V14.1075C5.84993 14.7785 6.20272 15.1174 6.84603 15.1174ZM13.1131 11.804C12.7673 11.804 12.539 11.5688 12.539 11.1884V10.0816L12.6427 9.08553L11.7089 10.1024L9.29476 12.5234C9.16333 12.6479 9.01807 12.7102 8.82438 12.7102C8.47852 12.7102 8.22257 12.475 8.22257 12.1084C8.22257 11.9424 8.29867 11.7833 8.41626 11.6657L10.8442 9.23771L11.868 8.30387L10.9203 8.40763H9.7513C9.37777 8.40763 9.13566 8.18628 9.13566 7.84041C9.13566 7.50146 9.37777 7.28011 9.74438 7.28011H12.9817C13.4106 7.28011 13.6803 7.48763 13.6803 7.96492V11.1815C13.6803 11.5481 13.4521 11.804 13.1131 11.804Z" fill="#566B9B"/>
</svg>
