<svg width="22" height="20" viewBox="0 0 22 20" fill="none" xmlns="http://www.w3.org/2000/svg">
    <path opacity="0.5" fill-rule="evenodd" clip-rule="evenodd" d="M7.47656 2.56335C7.79719 2.52153 8.12383 2.5 8.45508 2.5C8.78633 2.5 9.11297 2.52153 9.43359 2.56335C9.88997 2.62288 10.2117 3.0411 10.1521 3.49747C10.0926 3.95384 9.67439 4.27554 9.21802 4.21601C8.96869 4.18349 8.71405 4.16667 8.45508 4.16667C8.1961 4.16667 7.94147 4.18349 7.69214 4.21601C7.23577 4.27554 6.81755 3.95384 6.75802 3.49747C6.69849 3.0411 7.02019 2.62288 7.47656 2.56335ZM5.05728 4.2029C5.33772 4.56783 5.26922 5.091 4.90429 5.37144C4.49988 5.68221 4.13728 6.04481 3.82651 6.44921C3.54608 6.81414 3.02291 6.88264 2.65798 6.60221C2.29304 6.32177 2.22455 5.7986 2.50498 5.43367C2.90402 4.9144 3.36948 4.44894 3.88874 4.0499C4.25368 3.76947 4.77685 3.83797 5.05728 4.2029ZM1.95255 8.30294C2.40892 8.36247 2.73062 8.78069 2.67109 9.23706C2.63857 9.48639 2.62174 9.74102 2.62174 10C2.62174 10.259 2.63857 10.5136 2.67109 10.7629C2.73062 11.2193 2.40892 11.6375 1.95255 11.6971C1.49618 11.7566 1.07796 11.4349 1.01843 10.9785C0.976604 10.6579 0.955078 10.3313 0.955078 10C0.955078 9.66875 0.976604 9.34211 1.01843 9.02148C1.07796 8.56511 1.49618 8.24341 1.95255 8.30294ZM2.65798 13.3978C3.02291 13.1174 3.54608 13.1859 3.82651 13.5508C4.13728 13.9552 4.49988 14.3178 4.90429 14.6286C5.26922 14.909 5.33772 15.4322 5.05728 15.7971C4.77685 16.162 4.25368 16.2305 3.88875 15.9501C3.36948 15.5511 2.90402 15.0856 2.50498 14.5663C2.22455 14.2014 2.29305 13.6782 2.65798 13.3978ZM6.75802 16.5025C6.81755 16.0462 7.23576 15.7245 7.69214 15.784C7.94147 15.8165 8.1961 15.8333 8.45508 15.8333C8.71405 15.8333 8.96869 15.8165 9.21802 15.784C9.67439 15.7245 10.0926 16.0462 10.1521 16.5025C10.2117 16.9589 9.88997 17.3771 9.43359 17.4367C9.11297 17.4785 8.78633 17.5 8.45508 17.5C8.12383 17.5 7.79719 17.4785 7.47656 17.4367C7.02019 17.3771 6.69849 16.9589 6.75802 16.5025Z" fill="#566B9B"/>
    <path d="M21.0107 10.0055C21.0037 9.18921 19.8901 8.5459 18.5273 8.5459H15.6843C15.297 8.5459 15.1517 8.47673 14.9165 8.22078L10.2266 3.15039C10.0744 2.98438 9.89453 2.90137 9.69393 2.90137H8.80159C8.62174 2.90137 8.51798 3.06738 8.60099 3.25415L11.029 8.53898L7.48039 8.93327L6.21452 6.67822C6.11768 6.50529 5.97241 6.4292 5.74414 6.4292H5.43286C5.24609 6.4292 5.12158 6.55371 5.12158 6.74048V13.2704C5.12158 13.4572 5.24609 13.5817 5.43286 13.5817H5.74414C5.97241 13.5817 6.11768 13.5056 6.21452 13.3327L7.48039 11.0707L11.029 11.4719L8.60099 16.7568C8.51798 16.9435 8.62174 17.1095 8.80159 17.1095H9.69393C9.89453 17.1095 10.0744 17.0196 10.2266 16.8605L14.9165 11.7901C15.1517 11.5342 15.297 11.465 15.6843 11.465H18.5273C19.8901 11.465 21.0037 10.8148 21.0107 10.0055Z" fill="#566B9B"/>
</svg>
