<svg width="21" height="20" viewBox="0 0 21 20" fill="none" xmlns="http://www.w3.org/2000/svg">
    <g clip-path="url(#clip0_3222_6801)">
        <circle opacity="0.5" cx="13.4552" cy="10.0002" r="6.66667" stroke="#566B9B" stroke-width="1.66667" stroke-linecap="round" stroke-dasharray="1.67 3.33"/>
        <path d="M16.8442 10.0055C16.8372 9.18921 15.7236 8.5459 14.3608 8.5459H11.5178C11.1305 8.5459 10.9852 8.47673 10.75 8.22078L6.06006 3.15039C5.90788 2.98438 5.72803 2.90137 5.52742 2.90137H4.63509C4.45524 2.90137 4.35148 3.06738 4.43449 3.25415L6.86247 8.53898L3.31388 8.93327L2.04801 6.67822C1.95117 6.50529 1.80591 6.4292 1.57764 6.4292H1.26636C1.07959 6.4292 0.955078 6.55371 0.955078 6.74048V13.2704C0.955078 13.4572 1.07959 13.5817 1.26636 13.5817H1.57764C1.80591 13.5817 1.95117 13.5056 2.04801 13.3327L3.31388 11.0707L6.86247 11.4719L4.43449 16.7568C4.35148 16.9435 4.45524 17.1095 4.63509 17.1095H5.52742C5.72803 17.1095 5.90788 17.0196 6.06006 16.8605L10.75 11.7901C10.9852 11.5342 11.1305 11.465 11.5178 11.465H14.3608C15.7236 11.465 16.8372 10.8148 16.8442 10.0055Z" fill="#566B9B"/>
    </g>
    <defs>
        <clipPath id="clip0_3222_6801">
            <rect width="20" height="20" fill="white" transform="translate(0.955078)"/>
        </clipPath>
    </defs>
</svg>
