<svg width="21" height="21" viewBox="0 0 21 21" fill="none" xmlns="http://www.w3.org/2000/svg">
    <path d="M4.70689 7.5C2.65155 7.5 0.955078 5.80271 0.955078 3.75C0.955078 1.69729 2.65517 0 4.71052 0C6.76223 0 8.45508 1.69729 8.45508 3.75C8.45508 5.80271 6.75861 7.5 4.70689 7.5ZM6.53386 4.20696C6.69698 4.20696 6.82386 4.08003 6.82386 3.91683C6.82386 3.75363 6.69698 3.62669 6.53386 3.62669H4.99689V1.54497C4.99689 1.38177 4.87001 1.25484 4.71052 1.25484C4.54377 1.25484 4.4169 1.38177 4.4169 1.54497V3.91683C4.4169 4.08003 4.54377 4.20696 4.71052 4.20696H6.53386Z" fill="#566B9B"/>
    <path d="M17.5996 8.3488C19.0805 7.88927 20.6429 8.6938 20.8413 9.27212C21.1813 10.2638 19.8793 11.1179 19.4413 11.4051L19.4355 11.4089C17.9119 12.3166 15.3899 13.2853 14.6338 13.6596C13.8776 14.0339 9.80428 19.6647 9.26402 19.7994C8.72376 19.934 8.01338 20.1268 7.60949 20.1244C7.2056 20.1221 9.04785 15.5402 9.04785 15.5402C6.26062 16.3452 4.01374 16.7596 2.82157 16.6869L2.81597 16.6866C2.55824 16.6694 1.80099 16.6192 1.5942 16.0173C1.39049 15.4228 1.886 14.9446 2.50882 14.5422C2.50882 14.5422 0.827473 12.0128 1.04528 11.8606C1.26308 11.7084 2.17711 11.1911 2.31673 11.1705C2.45636 11.1499 5.22162 12.8329 5.22162 12.8329C6.33575 12.3543 7.87247 11.9074 8.85136 11.4906C8.85136 11.4906 7.52357 10.1005 7.37969 9.91196C7.2358 9.72342 7.965 9.56869 8.46222 9.49075C8.95943 9.4128 12.5701 10.0946 12.5701 10.0946L17.5996 8.3488Z" fill="#566B9B"/>
</svg>
