<svg width="21" height="20" viewBox="0 0 21 20" fill="none" xmlns="http://www.w3.org/2000/svg">
    <path d="M17.2069 7.5C15.1515 7.5 13.4551 5.80271 13.4551 3.75C13.4551 1.69729 15.1552 0 17.2105 0C19.2622 0 20.9551 1.69729 20.9551 3.75C20.9551 5.80271 19.2586 7.5 17.2069 7.5ZM19.0339 4.20696C19.197 4.20696 19.3239 4.08003 19.3239 3.91683C19.3239 3.75363 19.197 3.62669 19.0339 3.62669H17.4969V1.54497C17.4969 1.38177 17.37 1.25484 17.2105 1.25484C17.0438 1.25484 16.9169 1.38177 16.9169 1.54497V3.91683C16.9169 4.08003 17.0438 4.20696 17.2105 4.20696H19.0339Z" fill="#566B9B"/>
    <path d="M18.5099 14.4113C19.9655 14.9459 20.7178 16.5341 20.5241 17.114C20.1918 18.1083 18.6387 17.9958 18.1163 17.9579L18.1094 17.9574C16.3477 17.7529 13.7559 16.9904 12.9279 16.8283C12.0999 16.6663 5.44373 18.6648 4.93279 18.4435C4.42186 18.2223 3.74044 17.9439 3.42104 17.6967C3.10163 17.4495 7.34835 14.929 7.34835 14.929C4.64531 13.8753 2.60876 12.8396 1.70593 12.0576L1.70171 12.0539C1.50737 11.8838 0.936387 11.3838 1.13777 10.7801C1.33707 10.1841 2.02113 10.1053 2.76035 10.164C2.76035 10.164 2.96126 7.13342 3.22675 7.1448C3.49225 7.15618 4.5325 7.30055 4.65593 7.36899C4.77937 7.43743 5.95361 10.4541 5.95361 10.4541C7.12931 10.7508 8.62147 11.3293 9.65227 11.5928C9.65227 11.5928 9.44196 9.68201 9.4422 9.44483C9.44243 9.20765 10.1157 9.52771 10.558 9.76783C11.0003 10.008 13.4542 12.7429 13.4542 12.7429L18.5099 14.4113Z" fill="#566B9B"/>
</svg>
